<svg width="24" height="24" viewBox="0 0 24 24" fill="none" xmlns="http://www.w3.org/2000/svg">
<path fill-rule="evenodd" clip-rule="evenodd" d="M11.9052 1C9.53892 1 7.62069 2.91823 7.62069 5.28448C7.62069 6.4575 8.09209 7.52042 8.85577 8.29413L6.17168 14.3333C5.88543 14.2731 5.58866 14.2414 5.28448 14.2414C2.91823 14.2414 1 16.1596 1 18.5259C1 20.8921 2.91823 22.8103 5.28448 22.8103C7.21084 22.8103 8.84027 21.539 9.37953 19.7897H14.4308C14.9701 21.539 16.5995 22.8103 18.5259 22.8103C20.8921 22.8103 22.8103 20.8921 22.8103 18.5259C22.8103 16.1596 20.8921 14.2414 18.5259 14.2414C18.3383 14.2414 18.1535 14.2534 17.9723 14.2768L14.9721 8.27628C15.7255 7.50411 16.1897 6.4485 16.1897 5.28448C16.1897 2.91823 14.2714 1 11.9052 1ZM13.5535 9.24041C13.0461 9.45208 12.4893 9.56896 11.9052 9.56896C11.3336 9.56896 10.7881 9.45703 10.2895 9.2539L7.73186 15.0087C8.73006 15.7046 9.4181 16.8146 9.54703 18.0897H14.2633C14.4036 16.7018 15.2063 15.5096 16.3503 14.834L13.5535 9.24041Z" fill="black" fill-opacity="0.6"/>
</svg>
