<?xml version="1.0" encoding="utf-8"?>
<!-- Generator: Adobe Illustrator 24.2.3, SVG Export Plug-In . SVG Version: 6.00 Build 0)  -->
<svg version="1.1" id="Layer_1" xmlns="http://www.w3.org/2000/svg" xmlns:xlink="http://www.w3.org/1999/xlink" x="0px" y="0px"
	 width="15px" height="15px" viewBox="0 0 15 15" style="enable-background:new 0 0 15 15;" xml:space="preserve">
<path d="M9.44,4.5L7.5,6.44L5.56,4.5L4.5,5.56L6.44,7.5L4.5,9.44l1.06,1.06L7.5,8.56l1.94,1.94l1.06-1.06L8.56,7.5l1.94-1.94
	L9.44,4.5z M7.5,0C3.35,0,0,3.35,0,7.5S3.35,15,7.5,15S15,11.65,15,7.5S11.65,0,7.5,0z M7.5,13.5c-3.31,0-6-2.69-6-6s2.69-6,6-6
	s6,2.69,6,6S10.81,13.5,7.5,13.5z"/>
</svg>
