<?xml version="1.0" encoding="utf-8"?>
<!-- Generator: Adobe Illustrator 27.9.0, SVG Export Plug-In . SVG Version: 6.00 Build 0)  -->
<svg version="1.1" id="Layer_1" xmlns="http://www.w3.org/2000/svg" xmlns:xlink="http://www.w3.org/1999/xlink" x="0px" y="0px"
	 width="22.254px" height="15.75px" viewBox="0 0 22.254 15.75" style="enable-background:new 0 0 22.254 15.75;"
	 xml:space="preserve">
<style type="text/css">
	.st0{fill-rule:evenodd;clip-rule:evenodd;fill:#FFFFFF;fill-opacity:0.87;stroke:#010101;stroke-width:0.75;stroke-miterlimit:10;}
</style>
<path class="st0" d="M5.078,8.812l3.778,4.062c0.525,0.564,0.521,1.391,0.029,1.949l-0.098,0.102l-0.088,0.077
	c-0.613,0.5-1.518,0.489-2.104,0.011l-0.113-0.102l-0.054-0.056L0.876,8.885L0.814,8.812H5.078z M21.439,8.812l-0.062,0.072
	l-5.552,5.971l-0.054,0.056l-0.113,0.102c-0.587,0.478-1.492,0.489-2.104-0.011l-0.088-0.077l-0.098-0.102
	c-0.492-0.559-0.495-1.385,0.029-1.949l3.778-4.062H21.439z M8.699,0.747l0.088,0.077C9.375,1.38,9.413,2.276,8.856,2.875
	L5.078,6.937H0.814l0.062-0.072l5.552-5.971l0.054-0.056C7.059,0.262,8.046,0.214,8.699,0.747z M13.554,0.747
	c0.653-0.533,1.64-0.486,2.217,0.091l0.054,0.056l5.552,5.971l0.062,0.072h-4.264l-3.778-4.062c-0.557-0.6-0.519-1.495,0.069-2.051
	L13.554,0.747z"/>
</svg>
