<?xml version="1.0" encoding="utf-8"?>
<!-- Generator: Adobe Illustrator 24.1.3, SVG Export Plug-In . SVG Version: 6.00 Build 0)  -->
<svg version="1.1" id="Layer_1" xmlns="http://www.w3.org/2000/svg" xmlns:xlink="http://www.w3.org/1999/xlink" x="0px" y="0px"
	 width="14.6px" height="15px" viewBox="0 0 14.6 15" style="enable-background:new 0 0 14.6 15;" xml:space="preserve">
<path d="M12.9,8.2c0-0.2,0-0.5,0-0.7c0-0.2,0-0.5-0.1-0.7l1.6-1.2c0.1-0.1,0.2-0.3,0.1-0.5L13,2.5c-0.1-0.2-0.3-0.2-0.5-0.2L10.7,3
	c-0.4-0.3-0.8-0.5-1.3-0.7l-0.3-2C9.1,0.1,9,0,8.8,0h-3C5.6,0,5.5,0.1,5.4,0.3l-0.3,2C4.7,2.5,4.3,2.8,3.9,3L2,2.3
	c-0.2-0.1-0.4,0-0.5,0.2L0.1,5.1C0,5.2,0,5.4,0.2,5.5l1.6,1.2c0,0.2-0.1,0.5-0.1,0.7c0,0.2,0,0.5,0.1,0.7L0.1,9.5C0,9.6,0,9.8,0,9.9
	l1.5,2.6c0.1,0.2,0.3,0.2,0.5,0.2L3.9,12c0.4,0.3,0.8,0.5,1.3,0.7l0.3,2c0,0.2,0.2,0.3,0.4,0.3h3c0.2,0,0.3-0.1,0.4-0.3l0.3-2
	c0.5-0.2,0.9-0.4,1.3-0.7l1.9,0.7c0.2,0.1,0.4,0,0.5-0.2l1.5-2.6c0.1-0.2,0.1-0.4-0.1-0.5L12.9,8.2z M7.3,10.3
	c-1.5,0-2.8-1.3-2.8-2.8s1.3-2.8,2.8-2.8s2.8,1.3,2.8,2.8S8.8,10.3,7.3,10.3z"/>
</svg>
