<?xml version="1.0" encoding="utf-8"?>
<!-- Generator: Adobe Illustrator 24.1.3, SVG Export Plug-In . SVG Version: 6.00 Build 0)  -->
<svg version="1.1" id="Layer_1" xmlns="http://www.w3.org/2000/svg" xmlns:xlink="http://www.w3.org/1999/xlink" x="0px" y="0px"
	 width="4px" height="16px" viewBox="0 0 4 16" style="enable-background:new 0 0 4 16;" xml:space="preserve">
<path d="M2,4c1.1,0,2-0.9,2-2S3.1,0,2,0S0,0.9,0,2S0.9,4,2,4z M2,6C0.9,6,0,6.9,0,8s0.9,2,2,2s2-0.9,2-2S3.1,6,2,6z M2,12
	c-1.1,0-2,0.9-2,2s0.9,2,2,2s2-0.9,2-2S3.1,12,2,12z"/>
</svg>
