<?xml version="1.0" encoding="UTF-8"?>
<svg xmlns="http://www.w3.org/2000/svg" width="12.857" height="15" version="1.1" viewBox="0 0 12.857 15">
  <defs>
    <style>
      .cls-1 {
        fill: #5f6368;
      }
    </style>
  </defs>
  <!-- Generator: Adobe Illustrator 28.6.0, SVG Export Plug-In . SVG Version: 1.2.0 Build 709)  -->
  <g>
    <g id="Layer_1">
      <path class="cls-1" d="M6.357,10.714c.25,0,.461-.086.634-.259.173-.173.259-.384.259-.634s-.086-.461-.259-.634c-.173-.173-.384-.259-.634-.259s-.461.086-.634.259-.259.384-.259.634.086.461.259.634.384.259.634.259ZM5.714,7.964h1.321c0-.202.009-.375.027-.518s.057-.28.116-.411.134-.253.223-.366c.089-.113.217-.253.384-.42.417-.417.711-.765.884-1.045s.259-.598.259-.955c0-.631-.214-1.14-.643-1.527s-1.006-.58-1.732-.58c-.655,0-1.211.161-1.67.482s-.777.768-.955,1.339l1.179.464c.083-.321.25-.58.5-.777s.542-.295.875-.295c.321,0,.589.086.804.259s.321.402.321.688c0,.202-.065.417-.196.643s-.351.476-.661.75c-.202.167-.366.33-.491.491s-.229.33-.312.509-.143.366-.179.562-.054.432-.054.705ZM6.429,15l-2.143-2.143H1.429c-.393,0-.729-.14-1.009-.42-.28-.28-.42-.616-.42-1.009V1.429c0-.393.14-.729.42-1.009.28-.28.616-.42,1.009-.42h10c.393,0,.729.14,1.009.42s.42.616.42,1.009v10c0,.393-.14.729-.42,1.009s-.616.42-1.009.42h-2.857l-2.143,2.143ZM1.429,11.429h3.429l1.571,1.571,1.571-1.571h3.429V1.429H1.429v10Z"/>
    </g>
  </g>
</svg>