<?xml version="1.0" encoding="UTF-8"?>
<svg xmlns="http://www.w3.org/2000/svg" width="15.075" height="15" version="1.1" viewBox="0 0 15.075 15">
  <defs>
    <style>
      .cls-1 {
        fill: #5f6368;
      }
    </style>
  </defs>
  <!-- Generator: Adobe Illustrator 28.6.0, SVG Export Plug-In . SVG Version: 1.2.0 Build 709)  -->
  <g>
    <g id="Layer_1">
      <path class="cls-1" d="M5.475,15l-.3-2.4c-.162-.062-.316-.137-.459-.225s-.284-.181-.422-.281l-2.231.938-2.062-3.562,1.931-1.462c-.013-.087-.019-.172-.019-.253v-.506c0-.081.006-.166.019-.253l-1.931-1.462L2.062,1.969l2.231.938c.138-.1.281-.194.431-.281s.3-.163.45-.225l.3-2.4h4.125l.3,2.4c.163.062.316.137.459.225s.284.181.422.281l2.231-.938,2.062,3.562-1.931,1.462c.013.087.019.172.019.253v.506c0,.081-.013.166-.038.253l1.931,1.462-2.062,3.562-2.212-.938c-.137.1-.281.194-.431.281s-.3.163-.45.225l-.3,2.4h-4.125ZM6.788,13.5h1.481l.262-1.987c.388-.1.747-.247,1.078-.441s.634-.428.909-.703l1.856.769.731-1.275-1.613-1.219c.062-.175.106-.359.131-.553s.038-.391.038-.591-.013-.397-.038-.591c-.025-.194-.069-.378-.131-.553l1.613-1.219-.731-1.275-1.856.787c-.275-.287-.578-.528-.909-.722s-.691-.341-1.078-.441l-.244-1.988h-1.481l-.262,1.988c-.387.1-.747.247-1.078.441s-.634.428-.909.703l-1.856-.769-.731,1.275,1.613,1.2c-.063.188-.106.375-.131.562s-.038.387-.038.6c0,.2.012.394.038.581s.069.375.131.562l-1.613,1.219.731,1.275,1.856-.788c.275.288.578.528.909.722s.691.341,1.078.441l.244,1.987ZM7.575,10.125c.725,0,1.344-.256,1.856-.769s.769-1.131.769-1.856-.256-1.344-.769-1.856-1.131-.769-1.856-.769c-.738,0-1.359.256-1.866.769s-.759,1.131-.759,1.856.253,1.344.759,1.856,1.128.769,1.866.769Z"/>
    </g>
  </g>
</svg>