<?xml version="1.0" encoding="UTF-8"?>
<svg xmlns="http://www.w3.org/2000/svg" width="15" height="15" version="1.1" viewBox="0 0 15 15">
  <defs>
    <style>
      .cls-1 {
        fill: #5f6368;
      }
    </style>
  </defs>
  <!-- Generator: Adobe Illustrator 28.6.0, SVG Export Plug-In . SVG Version: 1.2.0 Build 709)  -->
  <g>
    <g id="Layer_1">
      <path class="cls-1" d="M1.667,15c-.458,0-.851-.163-1.177-.49-.326-.326-.49-.719-.49-1.177V1.667c0-.458.163-.851.49-1.177.326-.326.719-.49,1.177-.49h5.833v1.667H1.667v11.667h11.667v-5.833h1.667v5.833c0,.458-.163.851-.49,1.177-.326.326-.719.49-1.177.49H1.667ZM5.583,10.583l-1.167-1.167L12.167,1.667h-3V0h5.833v5.833h-1.667v-3l-7.75,7.75Z"/>
    </g>
  </g>
</svg>