<?xml version="1.0" encoding="UTF-8"?>
<svg xmlns="http://www.w3.org/2000/svg" width="12.75" height="15" version="1.1" viewBox="0 0 12.75 15">
  <defs>
    <style>
      .cls-1 {
        fill: #231f20;
      }
    </style>
  </defs>
  <!-- Generator: Adobe Illustrator 28.6.0, SVG Export Plug-In . SVG Version: 1.2.0 Build 709)  -->
  <g>
    <g id="Layer_1">
      <path class="cls-1" d="M4.5,12c-.413,0-.766-.147-1.059-.441-.294-.294-.441-.647-.441-1.059V1.5c0-.413.147-.766.441-1.059s.647-.441,1.059-.441h6.75c.413,0,.766.147,1.059.441s.441.647.441,1.059v9c0,.413-.147.766-.441,1.059-.294.294-.647.441-1.059.441h-6.75ZM4.5,10.5h6.75V1.5h-6.75v9ZM1.5,15c-.413,0-.766-.147-1.059-.441-.294-.294-.441-.647-.441-1.059V3h1.5v10.5h8.25v1.5H1.5ZM4.5,10.5V1.5v9Z"/>
    </g>
  </g>
</svg>