<?xml version="1.0" encoding="utf-8"?>
<!-- Generator: Adobe Illustrator 27.9.0, SVG Export Plug-In . SVG Version: 6.00 Build 0)  -->
<svg version="1.1" id="Layer_1" xmlns="http://www.w3.org/2000/svg" xmlns:xlink="http://www.w3.org/1999/xlink" x="0px" y="0px"
	 width="18.75px" height="15px" viewBox="0 0 18.75 15" style="enable-background:new 0 0 18.75 15;" xml:space="preserve">
<style type="text/css">
	.st0{fill:#FFFFFF;enable-background:new    ;}
</style>
<path class="st0" d="M8.92,3.5L8.34,2.91L6.92,1.5H1.75v12h16v-10h-8H8.92z"/>
<path d="M16.875,1.875h-7.5L7.5,0H1.875C0.844,0,0.009,0.844,0.009,1.875L0,13.125C0,14.156,0.844,15,1.875,15h15
	c1.031,0,1.875-0.844,1.875-1.875V3.75C18.75,2.719,17.906,1.875,16.875,1.875z M16.875,13.125h-15V1.875h4.847l1.322,1.322
	L8.597,3.75h8.278V13.125z"/>
</svg>
