<?xml version="1.0" encoding="utf-8"?>
<!-- Generator: Adobe Illustrator 27.4.0, SVG Export Plug-In . SVG Version: 6.00 Build 0)  -->
<svg version="1.1" id="Layer_1" xmlns="http://www.w3.org/2000/svg" xmlns:xlink="http://www.w3.org/1999/xlink" x="0px" y="0px"
	 width="15px" height="15px" viewBox="0 0 15 15" style="enable-background:new 0 0 15 15;" xml:space="preserve">
<path d="M7.5,0C3.3525,0,0,3.3525,0,7.5S3.3525,15,7.5,15S15,11.6475,15,7.5S11.6475,0,7.5,0z M7.5,13.5c-3.3075,0-6-2.6925-6-6
	s2.6925-6,6-6s6,2.6925,6,6S10.8075,13.5,7.5,13.5z M10.1925,3.75L7.5,6.4425L4.8075,3.75L3.75,4.8075L6.4425,7.5L3.75,10.1925
	L4.8075,11.25L7.5,8.5575l2.6925,2.6925l1.0575-1.0575L8.5575,7.5L11.25,4.8075L10.1925,3.75z"/>
</svg>
