<?xml version="1.0" encoding="utf-8"?>
<!-- Generator: Adobe Illustrator 22.1.0, SVG Export Plug-In . SVG Version: 6.00 Build 0)  -->
<svg version="1.1" id="Layer_1" xmlns="http://www.w3.org/2000/svg" xmlns:xlink="http://www.w3.org/1999/xlink" x="0px" y="0px"
	 width="504.3px" height="164.6px" viewBox="0 0 504.3 164.6" enable-background="new 0 0 504.3 164.6" xml:space="preserve">
<rect x="170" y="53.9" fill="#EC881D" width="141" height="56.4"/>
<g>
	<path d="M193.4,88.4h-2.1V78.2h7.2V80h-5.1v2.3h4.5v1.8h-4.5V88.4z"/>
	<path d="M199.7,80.9h1.9v1.3h0c0.4-0.8,0.9-1.5,2.1-1.5c0.1,0,0.3,0,0.4,0v2c-0.2,0-0.4,0-0.6,0c-1.5,0-1.8,1-1.8,1.8v3.9h-2V80.9z
		"/>
	<path d="M211.7,86.2c-0.5,1.8-2,2.4-3.3,2.4c-2.1,0-3.7-1-3.7-4.1c0-0.9,0.3-3.8,3.6-3.8c1.5,0,3.5,0.7,3.5,4.1v0.4h-5.1
		c0.1,0.6,0.2,1.8,1.8,1.8c0.5,0,1.1-0.3,1.3-0.8H211.7z M209.7,83.9c-0.1-1.2-0.9-1.6-1.5-1.6c-0.9,0-1.4,0.6-1.5,1.6H209.7z"/>
	<path d="M219.9,80.9v10.4h-2v-3.8h0c-0.4,0.8-1.1,1.1-2.1,1.1c-2.4,0-3.2-2.2-3.2-3.8c0-2.1,1-4.1,3.3-4.1c1.3,0,1.8,0.8,2.1,1.3h0
		v-1.1H219.9z M216.4,86.9c0.9,0,1.6-0.7,1.6-2.2c0-2.1-1.3-2.3-1.7-2.3c-0.8,0-1.6,0.5-1.6,2.4C214.7,86.1,215.2,86.9,216.4,86.9z"
		/>
	<path d="M228.5,88.4h-1.9v-1.1h0c-0.5,0.8-1.2,1.3-2.3,1.3c-1.5,0-2.6-0.8-2.6-2.8v-4.9h2v4.7c0,1.2,0.7,1.4,1.3,1.4
		c0.6,0,1.5-0.4,1.5-1.7v-4.3h2V88.4z"/>
	<path d="M236.7,86.2c-0.5,1.8-2,2.4-3.3,2.4c-2.1,0-3.7-1-3.7-4.1c0-0.9,0.3-3.8,3.6-3.8c1.5,0,3.5,0.7,3.5,4.1v0.4h-5.1
		c0.1,0.6,0.2,1.8,1.8,1.8c0.5,0,1.1-0.3,1.3-0.8H236.7z M234.8,83.9c-0.1-1.2-0.9-1.6-1.5-1.6c-0.9,0-1.4,0.6-1.5,1.6H234.8z"/>
	<path d="M244.9,88.4h-2v-4.6c0-0.5,0-1.5-1.3-1.5c-0.9,0-1.6,0.6-1.6,1.7v4.3h-2v-7.5h1.9V82h0c0.3-0.5,0.8-1.3,2.3-1.3
		c1.5,0,2.6,0.9,2.6,2.5V88.4z"/>
	<path d="M249,80.9h1.2v1.4H249v4.1c0,0.4,0,0.6,0.8,0.6c0.1,0,0.3,0,0.4,0v1.5c-0.3,0-0.6,0-0.9,0H249c-1.7,0-2-0.6-2-1.6v-4.6h-1
		v-1.4h1v-2h2V80.9z"/>
	<path d="M253.7,88.4h-2.1V78.2h4.6c2,0,3.1,1.3,3.1,3.2c0,0.9-0.5,3.2-3.2,3.2h-2.4V88.4z M255.7,83c1.6,0,1.6-1.1,1.6-1.6
		c0-1-0.5-1.4-1.9-1.4h-1.7v3H255.7z"/>
	<path d="M266.9,86.9c0,0.9,0.2,1.1,0.4,1.2v0.3h-2.1c-0.1-0.4-0.1-0.5-0.2-0.9c-0.5,0.5-1.1,1.1-2.4,1.1c-1.1,0-2.3-0.6-2.3-2.2
		c0-1.5,0.9-2.2,2.2-2.4l1.8-0.3c0.3,0,0.7-0.2,0.7-0.6c0-0.8-0.8-0.9-1.3-0.9c-1,0-1.2,0.6-1.2,1h-1.9c0.2-2.3,1.8-2.6,3.4-2.6
		c1.1,0,3,0.3,3,2.2V86.9z M265,84.7c-0.2,0.2-0.5,0.3-1.3,0.4c-0.7,0.1-1.3,0.3-1.3,1.1c0,0.7,0.5,0.9,0.9,0.9
		c0.9,0,1.8-0.6,1.8-1.5V84.7z"/>
	<path d="M270.9,80.9h1.2v1.4h-1.2v4.1c0,0.4,0,0.6,0.8,0.6c0.1,0,0.3,0,0.4,0v1.5c-0.3,0-0.6,0-0.9,0h-0.3c-1.7,0-2-0.6-2-1.6v-4.6
		h-1v-1.4h1v-2h2V80.9z"/>
	<path d="M280.2,88.4h-2v-4.6c0-0.5,0-1.5-1.3-1.5c-0.9,0-1.6,0.6-1.6,1.7v4.3h-2V78.2h2v3.6h0c0.3-0.6,1.1-1.2,2.2-1.2
		c1.5,0,2.6,0.9,2.6,2.5V88.4z"/>
	<path d="M286.2,83.1c-0.1-0.5-0.3-1-1.3-1s-1.2,0.4-1.2,0.7c0,1.2,4.7,0.3,4.7,3.1c0,2.2-2.1,2.6-3.3,2.6c-1.7,0-3.6-0.6-3.6-2.6h2
		c0,0.6,0.4,1.1,1.6,1.1c1,0,1.3-0.5,1.3-0.8c0-1.3-4.7-0.3-4.7-3.1c0-1.1,0.7-2.5,3-2.5c1.5,0,3.2,0.4,3.4,2.5H286.2z"/>
</g>
<rect x="366.8" fill="#BADBF3" width="137.5" height="57.2"/>
<g>
	<rect x="375.5" y="22.4" fill="none" width="120.1" height="14.1"/>
	<path d="M401.2,32.8c-3.8,0-4.9-3.1-4.9-5.3c0-2.2,1.2-5.3,4.9-5.3s4.9,3.1,4.9,5.3C406.2,29.6,405,32.8,401.2,32.8z M401.2,23.3
		c-2.2,0-3.5,1.7-3.5,4.1s1.3,4.1,3.5,4.1s3.5-1.7,3.5-4.1S403.4,23.3,401.2,23.3z"/>
	<path d="M412.4,32.5v-1.1l0,0c-0.5,0.9-1.2,1.3-2.3,1.3c-1.1,0-2.4-0.5-2.4-2.3v-5.3h1.2V30c0,1.2,0.6,1.6,1.4,1.6
		c1.6,0,2-1.4,2-2.5v-4.1h1.2v7.4H412.4z"/>
	<path d="M417,26.2V31c0,0.6,0.5,0.6,0.7,0.6h0.4v1c-0.5,0-0.8,0.1-0.9,0.1c-1.2,0-1.5-0.7-1.5-1.6v-4.9h-1v-1h1v-2.1h1.2v2.1h1.2v1
		H417z"/>
	<path d="M419.3,25.1h1.2v1h0c0.3-0.4,0.9-1.3,2.2-1.3c2,0,3.1,1.6,3.1,3.7c0,1.8-0.7,4.1-3.2,4.1c-1,0-1.6-0.5-2-1h0v3.7h-1.2V25.1
		z M422.5,31.6c1.4,0,2-1.2,2-2.8c0-0.9-0.1-2.8-2-2.8c-1.8,0-2,1.9-2,3.1C420.5,31.1,421.7,31.6,422.5,31.6z"/>
	<path d="M432,32.5v-1.1l0,0c-0.5,0.9-1.2,1.3-2.3,1.3c-1.1,0-2.4-0.5-2.4-2.3v-5.3h1.2V30c0,1.2,0.6,1.6,1.4,1.6c1.6,0,2-1.4,2-2.5
		v-4.1h1.2v7.4H432z"/>
	<path d="M436.6,26.2V31c0,0.6,0.5,0.6,0.7,0.6h0.4v1c-0.5,0-0.8,0.1-0.9,0.1c-1.2,0-1.5-0.7-1.5-1.6v-4.9h-1v-1h1v-2.1h1.2v2.1h1.2
		v1H436.6z"/>
	<path d="M441.9,22.4h8.2v1.2h-3.4v8.9h-1.4v-8.9h-3.4V22.4z"/>
	<path d="M449.6,27.4c0.1-1.8,1.2-2.5,3-2.5c0.6,0,2.7,0.2,2.7,2.1v4.2c0,0.3,0.2,0.4,0.4,0.4c0.1,0,0.3,0,0.4-0.1v0.9
		c-0.2,0.1-0.4,0.1-0.7,0.1c-1.1,0-1.3-0.6-1.3-1.1c-0.5,0.5-1.2,1.2-2.7,1.2c-1.4,0-2.3-0.9-2.3-2.1c0-0.6,0.2-2.1,2.2-2.3l2-0.3
		c0.3,0,0.6-0.1,0.6-0.9c0-0.8-0.6-1.2-1.7-1.2c-1.4,0-1.6,0.9-1.7,1.4H449.6z M454.2,28.7c-0.2,0.2-0.5,0.3-2,0.5
		c-0.6,0.1-1.6,0.3-1.6,1.2c0,0.8,0.4,1.3,1.3,1.3c1.2,0,2.3-0.7,2.3-1.7V28.7z"/>
	<path d="M457.4,32.5V22.4h1.2v3.7h0c0.5-0.8,1.3-1.1,2.1-1.1c2,0,3.1,1.6,3.1,3.7c0,1.8-0.7,4.1-3.2,4.1c-1.3,0-1.8-0.7-2-1.1h0
		v0.9H457.4z M460.6,26c-1.8,0-2,1.9-2,3.1c0,2,1.2,2.5,2,2.5c1.4,0,2-1.2,2-2.8C462.6,27.8,462.5,26,460.6,26z"/>
	<path d="M466.6,32.5h-1.2V22.4h1.2V32.5z"/>
	<path d="M474.7,30.2c0,0.4-0.4,1.4-1.3,2c-0.3,0.2-0.8,0.5-2,0.5c-2.1,0-3.3-1.6-3.3-3.7c0-2.3,1.1-4.1,3.5-4.1
		c2.1,0,3.2,1.7,3.2,4.3h-5.4c0,1.5,0.7,2.4,2.1,2.4c1.2,0,1.9-0.9,1.9-1.5H474.7z M473.6,28.2c-0.1-1.1-0.5-2.2-2.1-2.2
		c-1.1,0-2,1.1-2,2.2H473.6z"/>
</g>
<rect x="366.8" y="107.5" fill="#BADBF3" width="137.5" height="57.2"/>
<g>
	<rect x="375.5" y="122.1" fill="none" width="120.1" height="30"/>
	<path d="M386.3,125.1c-0.1-1.6-1.4-2.1-2.5-2.1c-0.9,0-2.3,0.2-2.3,1.8c0,0.9,0.6,1.1,1.2,1.3l2.9,0.7c1.3,0.3,2.3,1.1,2.3,2.7
		c0,2.4-2.2,3.1-4,3.1c-1.9,0-2.6-0.6-3.1-1c-0.9-0.8-1-1.6-1-2.6h1.3c0,1.8,1.5,2.4,2.8,2.4c1,0,2.7-0.3,2.7-1.7
		c0-1.1-0.5-1.4-2.2-1.8l-2.1-0.5c-0.7-0.2-2.2-0.6-2.2-2.4c0-1.6,1-3.1,3.5-3.1c3.5,0,3.9,2.1,3.9,3.2H386.3z"/>
	<path d="M395.7,129.9c0,0.4-0.4,1.4-1.3,2c-0.3,0.2-0.8,0.5-2,0.5c-2.1,0-3.3-1.6-3.3-3.7c0-2.3,1.1-4.1,3.5-4.1
		c2.1,0,3.2,1.7,3.2,4.3h-5.4c0,1.5,0.7,2.4,2.1,2.4c1.2,0,1.9-0.9,1.9-1.5H395.7z M394.5,128c-0.1-1.1-0.5-2.2-2.1-2.2
		c-1.1,0-2,1.1-2,2.2H394.5z"/>
	<path d="M403.4,135.1h-1.2v-3.7h0c-0.3,0.5-1,1-2,1c-2.5,0-3.2-2.4-3.2-4.1c0-2.1,1.1-3.7,3.1-3.7c1.3,0,1.9,0.8,2.2,1.3h0v-1h1.2
		V135.1z M400.2,125.8c-1.9,0-2,1.8-2,2.8c0,1.6,0.6,2.8,2,2.8c0.8,0,2-0.5,2-2.5C402.2,127.7,402,125.8,400.2,125.8z"/>
	<path d="M410,132.2v-1.1l0,0c-0.5,0.9-1.2,1.3-2.3,1.3c-1.1,0-2.4-0.5-2.4-2.3v-5.3h1.2v4.9c0,1.2,0.6,1.6,1.4,1.6
		c1.6,0,2-1.4,2-2.5v-4.1h1.2v7.4H410z"/>
	<path d="M419.2,129.9c0,0.4-0.4,1.4-1.3,2c-0.3,0.2-0.8,0.5-2,0.5c-2.1,0-3.3-1.6-3.3-3.7c0-2.3,1.1-4.1,3.5-4.1
		c2.1,0,3.2,1.7,3.2,4.3H414c0,1.5,0.7,2.4,2.1,2.4c1.2,0,1.9-0.9,1.9-1.5H419.2z M418.1,128c-0.1-1.1-0.5-2.2-2.1-2.2
		c-1.1,0-2,1.1-2,2.2H418.1z"/>
	<path d="M426.8,132.2h-1.2v-4.5c0-1.3-0.4-1.9-1.6-1.9c-0.7,0-1.9,0.5-1.9,2.5v4h-1.2v-7.4h1.2v1h0c0.3-0.4,1-1.3,2.2-1.3
		c1.1,0,2.6,0.5,2.6,2.6V132.2z"/>
	<path d="M433.3,127.3c-0.2-1-0.7-1.6-1.7-1.6c-1.5,0-2,1.5-2,2.8c0,1.3,0.3,2.8,2,2.8c0.8,0,1.6-0.6,1.8-1.7h1.2
		c-0.1,1.2-0.8,2.8-3,2.8c-2.1,0-3.3-1.6-3.3-3.7c0-2.3,1.1-4.1,3.5-4.1c1.9,0,2.7,1.4,2.8,2.7H433.3z"/>
	<path d="M442,129.9c0,0.4-0.4,1.4-1.3,2c-0.3,0.2-0.8,0.5-2,0.5c-2.1,0-3.3-1.6-3.3-3.7c0-2.3,1.1-4.1,3.5-4.1
		c2.1,0,3.2,1.7,3.2,4.3h-5.4c0,1.5,0.7,2.4,2.1,2.4c1.2,0,1.9-0.9,1.9-1.5H442z M440.8,128c-0.1-1.1-0.5-2.2-2.1-2.2
		c-1.1,0-2,1.1-2,2.2H440.8z"/>
	<path d="M449.1,132.2h-1.4v-10.1h4.6c1.9,0,3,1.2,3,2.8c0,1.4-0.8,3-3,3h-3.2V132.2z M449.1,126.8h2.7c1.2,0,2.1-0.5,2.1-1.8
		c0-1.3-0.9-1.7-2-1.7h-2.8V126.8z"/>
	<path d="M456.8,127.1c0.1-1.8,1.2-2.5,3-2.5c0.6,0,2.7,0.2,2.7,2.1v4.2c0,0.3,0.2,0.4,0.4,0.4c0.1,0,0.3,0,0.4-0.1v0.9
		c-0.2,0.1-0.4,0.1-0.7,0.1c-1.1,0-1.3-0.6-1.3-1.1c-0.5,0.5-1.2,1.2-2.7,1.2c-1.4,0-2.3-0.9-2.3-2.1c0-0.6,0.2-2.1,2.2-2.3l2-0.3
		c0.3,0,0.6-0.1,0.6-0.9c0-0.8-0.6-1.2-1.7-1.2c-1.4,0-1.6,0.9-1.7,1.4H456.8z M461.4,128.5c-0.2,0.2-0.5,0.3-2,0.5
		c-0.6,0.1-1.6,0.3-1.6,1.2c0,0.8,0.4,1.3,1.3,1.3c1.2,0,2.3-0.7,2.3-1.7V128.5z"/>
	<path d="M466.2,125.9v4.8c0,0.6,0.5,0.6,0.7,0.6h0.4v1c-0.5,0-0.8,0.1-0.9,0.1c-1.2,0-1.5-0.7-1.5-1.6v-4.9h-1v-1h1v-2.1h1.2v2.1
		h1.2v1H466.2z"/>
	<path d="M470.1,125.9v4.8c0,0.6,0.5,0.6,0.7,0.6h0.4v1c-0.5,0-0.8,0.1-0.9,0.1c-1.2,0-1.5-0.7-1.5-1.6v-4.9h-1v-1h1v-2.1h1.2v2.1
		h1.2v1H470.1z"/>
	<path d="M478.8,129.9c0,0.4-0.4,1.4-1.3,2c-0.3,0.2-0.8,0.5-2,0.5c-2.1,0-3.3-1.6-3.3-3.7c0-2.3,1.1-4.1,3.5-4.1
		c2.1,0,3.2,1.7,3.2,4.3h-5.4c0,1.5,0.7,2.4,2.1,2.4c1.2,0,1.9-0.9,1.9-1.5H478.8z M477.6,128c-0.1-1.1-0.5-2.2-2.1-2.2
		c-1.1,0-2,1.1-2,2.2H477.6z"/>
	<path d="M481.8,132.2h-1.2v-7.4h1.2v1.2h0c0.5-0.9,1.1-1.4,2.1-1.4c0.2,0,0.2,0,0.3,0v1.3h-0.5c-1.2,0-1.9,0.9-1.9,2V132.2z"/>
	<path d="M491.1,132.2h-1.2v-4.5c0-1.3-0.4-1.9-1.6-1.9c-0.7,0-1.9,0.5-1.9,2.5v4h-1.2v-7.4h1.2v1h0c0.3-0.4,1-1.3,2.2-1.3
		c1.1,0,2.6,0.5,2.6,2.6V132.2z"/>
	<path d="M420.9,139h8.2v1.2h-3.4v8.9h-1.4v-8.9h-3.4V139z"/>
	<path d="M428.6,144c0.1-1.8,1.2-2.5,3-2.5c0.6,0,2.7,0.2,2.7,2.1v4.2c0,0.3,0.2,0.4,0.4,0.4c0.1,0,0.3,0,0.4-0.1v0.9
		c-0.2,0.1-0.4,0.1-0.7,0.1c-1.1,0-1.3-0.6-1.3-1.1c-0.5,0.5-1.2,1.2-2.7,1.2c-1.4,0-2.3-0.9-2.3-2.1c0-0.6,0.2-2.1,2.2-2.3l2-0.3
		c0.3,0,0.6-0.1,0.6-0.9c0-0.8-0.6-1.2-1.7-1.2c-1.4,0-1.6,0.9-1.7,1.4H428.6z M433.1,145.4c-0.2,0.2-0.5,0.3-2,0.5
		c-0.6,0.1-1.6,0.3-1.6,1.2c0,0.8,0.4,1.3,1.3,1.3c1.2,0,2.3-0.7,2.3-1.7V145.4z"/>
	<path d="M436.4,149.1V139h1.2v3.7h0c0.5-0.8,1.3-1.1,2.1-1.1c2,0,3.1,1.6,3.1,3.7c0,1.8-0.7,4.1-3.2,4.1c-1.3,0-1.8-0.7-2-1.1h0
		v0.9H436.4z M439.6,142.7c-1.8,0-2,1.9-2,3.1c0,2,1.2,2.5,2,2.5c1.4,0,2-1.2,2-2.8C441.6,144.5,441.5,142.7,439.6,142.7z"/>
	<path d="M445.6,149.1h-1.2V139h1.2V149.1z"/>
	<path d="M453.7,146.8c0,0.4-0.4,1.4-1.3,2c-0.3,0.2-0.8,0.5-2,0.5c-2.1,0-3.3-1.6-3.3-3.7c0-2.3,1.1-4.1,3.5-4.1
		c2.1,0,3.2,1.7,3.2,4.3h-5.4c0,1.5,0.7,2.4,2.1,2.4c1.2,0,1.9-0.9,1.9-1.5H453.7z M452.5,144.9c-0.1-1.1-0.5-2.2-2.1-2.2
		c-1.1,0-2,1.1-2,2.2H452.5z"/>
</g>
<g>
	<g>
		<polyline fill="none" stroke="#5F6062" stroke-width="0.5" stroke-miterlimit="10" points="362.6,28.7 291.7,28.7 291.7,53.8 		
			"/>
		<g>
			<polygon fill="#5F6062" points="366.1,28.7 361.2,26.7 362.3,28.7 361.2,30.8 			"/>
		</g>
	</g>
</g>
<g>
	<g>
		<line fill="none" stroke="#5F6062" stroke-width="0.5" stroke-miterlimit="10" x1="362.6" y1="136.2" x2="360.1" y2="136.2"/>
		
			<line fill="none" stroke="#5F6062" stroke-width="0.5" stroke-miterlimit="10" stroke-dasharray="5.0668,5.0668" x1="355" y1="136.2" x2="296.8" y2="136.2"/>
		<polyline fill="none" stroke="#5F6062" stroke-width="0.5" stroke-miterlimit="10" points="294.2,136.2 291.7,136.2 291.7,133.7 
					"/>
		
			<line fill="none" stroke="#5F6062" stroke-width="0.5" stroke-miterlimit="10" stroke-dasharray="4.0118,4.0118" x1="291.7" y1="129.7" x2="291.7" y2="115.7"/>
		<line fill="none" stroke="#5F6062" stroke-width="0.5" stroke-miterlimit="10" x1="291.7" y1="113.7" x2="291.7" y2="111.2"/>
		<g>
			<polygon fill="#5F6062" points="366.1,136.2 361.2,134.2 362.3,136.2 361.2,138.3 			"/>
		</g>
	</g>
</g>
<rect y="1" fill="#DBDCE0" width="129" height="53.8"/>
<g>
	<rect x="7.7" y="23.6" fill="none" width="115" height="28.5"/>
	<path d="M33.9,33.3h-1.3v-9.7h1.3V33.3z"/>
	<path d="M41.8,33.3h-1.2V29c0-1.2-0.4-1.8-1.5-1.8c-0.7,0-1.9,0.4-1.9,2.3v3.8H36v-7.1h1.1v1h0c0.3-0.4,0.9-1.2,2.1-1.2
		c1.1,0,2.5,0.4,2.5,2.5V33.3z"/>
	<path d="M43.4,26.3h1.1v1h0c0.3-0.4,0.8-1.2,2.1-1.2c1.9,0,2.9,1.5,2.9,3.5c0,1.7-0.7,3.9-3.1,3.9c-0.9,0-1.6-0.4-1.9-0.9h0v3.5
		h-1.2V26.3z M46.5,32.5c1.3,0,1.9-1.2,1.9-2.7c0-0.9-0.1-2.6-1.9-2.6c-1.7,0-1.9,1.8-1.9,3C44.6,32,45.8,32.5,46.5,32.5z"/>
	<path d="M55.7,33.3v-1l0,0c-0.5,0.8-1.1,1.3-2.2,1.3c-1,0-2.3-0.5-2.3-2.2v-5.1h1.2V31c0,1.2,0.6,1.6,1.4,1.6
		c1.5,0,1.9-1.3,1.9-2.3v-3.9h1.2v7.1H55.7z"/>
	<path d="M60,27.3v4.6c0,0.6,0.5,0.6,0.7,0.6h0.4v0.9c-0.4,0-0.8,0.1-0.9,0.1c-1.2,0-1.4-0.7-1.4-1.5v-4.7h-1v-1h1v-2H60v2h1.1v1H60
		z"/>
	<path d="M65.4,23.6h7.9v1.2H70v8.5h-1.3v-8.5h-3.3V23.6z"/>
	<path d="M74.3,28.4c0.1-1.7,1.2-2.3,2.9-2.3c0.6,0,2.6,0.2,2.6,2v4.1c0,0.3,0.1,0.4,0.4,0.4c0.1,0,0.3,0,0.4-0.1v0.9
		c-0.2,0.1-0.4,0.1-0.6,0.1c-1.1,0-1.2-0.5-1.3-1.1c-0.5,0.5-1.2,1.1-2.6,1.1c-1.3,0-2.2-0.8-2.2-2c0-0.6,0.2-2,2.1-2.2l2-0.2
		c0.3,0,0.6-0.1,0.6-0.8c0-0.7-0.5-1.1-1.7-1.1c-1.4,0-1.5,0.8-1.6,1.4H74.3z M78.6,29.7c-0.2,0.1-0.5,0.3-2,0.4
		c-0.6,0.1-1.5,0.3-1.5,1.1c0,0.8,0.4,1.2,1.3,1.2c1.1,0,2.2-0.7,2.2-1.7V29.7z"/>
	<path d="M81.7,33.3v-9.7h1.2v3.5h0c0.5-0.7,1.2-1.1,2-1.1c1.9,0,2.9,1.5,2.9,3.5c0,1.7-0.7,3.9-3.1,3.9c-1.2,0-1.7-0.7-1.9-1.1h0
		v0.9H81.7z M84.8,27.1c-1.7,0-1.9,1.8-1.9,3c0,1.9,1.2,2.4,1.9,2.4c1.3,0,1.9-1.2,1.9-2.7C86.7,28.9,86.6,27.1,84.8,27.1z"/>
	<path d="M90.5,33.3h-1.2v-9.7h1.2V33.3z"/>
	<path d="M98.3,31.1c0,0.3-0.4,1.3-1.3,1.9c-0.3,0.2-0.8,0.5-1.9,0.5c-2,0-3.2-1.5-3.2-3.5c0-2.2,1.1-3.9,3.4-3.9c2,0,3,1.6,3,4.1
		h-5.2c0,1.5,0.7,2.3,2.1,2.3c1.1,0,1.8-0.9,1.8-1.4H98.3z M97.2,29.3c-0.1-1.1-0.5-2.1-2-2.1c-1.1,0-2,1-2,2.1H97.2z"/>
</g>
<rect y="109.9" fill="#DBDCE0" width="129" height="53.8"/>
<g>
	<g>
		<polyline fill="none" stroke="#5F6062" stroke-width="0.5" stroke-miterlimit="10" points="128.6,30.9 199.9,30.9 199.9,51.4 		
			"/>
		<g>
			<polygon fill="#5F6062" points="199.9,54.9 197.8,49.9 199.9,51.1 201.9,49.9 			"/>
		</g>
	</g>
</g>
<g>
	<g>
		<line fill="none" stroke="#5F6062" stroke-width="0.5" stroke-miterlimit="10" x1="128.6" y1="133.8" x2="131.1" y2="133.8"/>
		
			<line fill="none" stroke="#5F6062" stroke-width="0.5" stroke-miterlimit="10" stroke-dasharray="5.0959,5.0959" x1="136.2" y1="133.8" x2="194.8" y2="133.8"/>
		<polyline fill="none" stroke="#5F6062" stroke-width="0.5" stroke-miterlimit="10" points="197.4,133.8 199.9,133.8 199.9,131.3 
					"/>
		
			<line fill="none" stroke="#5F6062" stroke-width="0.5" stroke-miterlimit="10" stroke-dasharray="5.1557,5.1557" x1="199.9" y1="126.2" x2="199.9" y2="118.4"/>
		<line fill="none" stroke="#5F6062" stroke-width="0.5" stroke-miterlimit="10" x1="199.9" y1="115.9" x2="199.9" y2="113.4"/>
		<g>
			<polygon fill="#5F6062" points="199.9,109.8 201.9,114.8 199.9,113.6 197.8,114.8 			"/>
		</g>
	</g>
</g>
<g>
	<rect x="7" y="126.5" fill="none" width="115" height="28.5"/>
	<path d="M23.9,136.2h-1.3v-9.7h1.3V136.2z"/>
	<path d="M27.5,130.1v4.6c0,0.6,0.5,0.6,0.7,0.6h0.4v0.9c-0.4,0-0.8,0.1-0.9,0.1c-1.2,0-1.4-0.7-1.4-1.5v-4.7h-1v-1h1v-2h1.2v2h1.1
		v1H27.5z"/>
	<path d="M35.7,134c0,0.3-0.4,1.3-1.3,1.9c-0.3,0.2-0.8,0.5-1.9,0.5c-2,0-3.2-1.5-3.2-3.5c0-2.2,1.1-3.9,3.4-3.9c2,0,3,1.6,3,4.1
		h-5.2c0,1.5,0.7,2.3,2.1,2.3c1.1,0,1.8-0.9,1.8-1.4H35.7z M34.6,132.1c-0.1-1.1-0.5-2.1-2-2.1c-1.1,0-2,1-2,2.1H34.6z"/>
	<path d="M37.3,129.2h1.1v1h0c0.3-0.4,0.9-1.2,2.1-1.2s1.7,0.8,1.9,1.1c0.6-0.7,1.1-1.1,2.2-1.1c0.8,0,2.2,0.4,2.2,2.4v4.9h-1.2
		v-4.6c0-1-0.3-1.6-1.3-1.6c-1,0-1.7,0.9-1.7,1.9v4.3h-1.2v-4.9c0-0.6-0.2-1.3-1.1-1.3c-0.7,0-1.9,0.4-1.9,2.3v3.8h-1.2V129.2z"/>
	<path d="M52.5,126.5h3.9c2.5,0,4.1,1.9,4.1,4.7c0,2.2-0.9,5-4.1,5h-3.9V126.5z M53.8,135.1h2.5c1.7,0,2.8-1.3,2.8-3.8
		c0-2.4-1.1-3.7-2.9-3.7h-2.4V135.1z"/>
	<path d="M68,134c0,0.3-0.4,1.3-1.3,1.9c-0.3,0.2-0.8,0.5-1.9,0.5c-2,0-3.2-1.5-3.2-3.5c0-2.2,1.1-3.9,3.4-3.9c2,0,3,1.6,3,4.1h-5.2
		c0,1.5,0.7,2.3,2.1,2.3c1.1,0,1.8-0.9,1.8-1.4H68z M66.9,132.1c-0.1-1.1-0.5-2.1-2-2.1c-1.1,0-2,1-2,2.1H66.9z"/>
	<path d="M71,130.1v6.1h-1.2v-6.1h-1v-1h1v-1.2c0-1.1,0.7-1.6,1.8-1.6c0.2,0,0.4,0,0.5,0v1.1c-0.1,0-0.3,0-0.5,0
		c-0.5,0-0.7,0.3-0.7,0.8v0.9h1.2v1H71z"/>
	<path d="M73.3,127.9v-1.4h1.2v1.4H73.3z M74.5,136.2h-1.2v-7.1h1.2V136.2z"/>
	<path d="M82,136.2h-1.2v-4.3c0-1.2-0.4-1.8-1.5-1.8c-0.7,0-1.9,0.4-1.9,2.3v3.8h-1.2v-7.1h1.1v1h0c0.3-0.4,0.9-1.2,2.1-1.2
		c1.1,0,2.5,0.4,2.5,2.5V136.2z"/>
	<path d="M83.8,127.9v-1.4H85v1.4H83.8z M85,136.2h-1.2v-7.1H85V136.2z"/>
	<path d="M88.2,130.1v4.6c0,0.6,0.5,0.6,0.7,0.6h0.4v0.9c-0.4,0-0.8,0.1-0.9,0.1c-1.2,0-1.4-0.7-1.4-1.5v-4.7h-1v-1h1v-2h1.2v2h1.1
		v1H88.2z"/>
	<path d="M90.5,127.9v-1.4h1.2v1.4H90.5z M91.7,136.2h-1.2v-7.1h1.2V136.2z"/>
	<path d="M96.4,128.9c2.3,0,3.3,1.9,3.3,3.7s-1,3.7-3.3,3.7c-2.3,0-3.3-1.9-3.3-3.7S94.1,128.9,96.4,128.9z M96.4,135.4
		c1.7,0,2.1-1.8,2.1-2.7s-0.4-2.7-2.1-2.7c-1.7,0-2.1,1.8-2.1,2.7S94.7,135.4,96.4,135.4z"/>
	<path d="M106.8,136.2h-1.2v-4.3c0-1.2-0.4-1.8-1.5-1.8c-0.7,0-1.9,0.4-1.9,2.3v3.8H101v-7.1h1.1v1h0c0.3-0.4,0.9-1.2,2.1-1.2
		c1.1,0,2.5,0.4,2.5,2.5V136.2z"/>
	<path d="M47.8,142.7h7.9v1.2h-3.3v8.5h-1.3v-8.5h-3.3V142.7z"/>
	<path d="M56.7,147.5c0.1-1.7,1.2-2.4,2.9-2.4c0.6,0,2.6,0.2,2.6,2v4.1c0,0.3,0.1,0.4,0.4,0.4c0.1,0,0.3,0,0.4-0.1v0.9
		c-0.2,0.1-0.4,0.1-0.6,0.1c-1.1,0-1.2-0.5-1.3-1.1c-0.5,0.5-1.2,1.1-2.6,1.1c-1.3,0-2.2-0.8-2.2-2c0-0.6,0.2-2,2.1-2.2l2-0.2
		c0.3,0,0.6-0.1,0.6-0.8c0-0.7-0.5-1.1-1.7-1.1c-1.4,0-1.5,0.8-1.6,1.4H56.7z M61.1,148.8c-0.2,0.1-0.5,0.3-2,0.4
		c-0.6,0.1-1.5,0.3-1.5,1.1c0,0.8,0.4,1.2,1.3,1.2c1.1,0,2.2-0.7,2.2-1.7V148.8z"/>
	<path d="M64.2,152.4v-9.7h1.2v3.5h0c0.5-0.7,1.2-1.1,2-1.1c1.9,0,2.9,1.5,2.9,3.5c0,1.7-0.7,3.9-3.1,3.9c-1.2,0-1.7-0.7-1.9-1.1h0
		v0.9H64.2z M67.2,146.2c-1.7,0-1.9,1.8-1.9,3c0,1.9,1.2,2.4,1.9,2.4c1.3,0,1.9-1.2,1.9-2.7C69.1,148,69,146.2,67.2,146.2z"/>
	<path d="M73,152.4h-1.2v-9.7H73V152.4z"/>
	<path d="M80.7,150.2c0,0.3-0.4,1.3-1.3,1.9c-0.3,0.2-0.8,0.5-1.9,0.5c-2,0-3.2-1.5-3.2-3.5c0-2.2,1.1-3.9,3.4-3.9c2,0,3,1.6,3,4.1
		h-5.2c0,1.5,0.7,2.3,2.1,2.3c1.1,0,1.8-0.9,1.8-1.4H80.7z M79.6,148.3c-0.1-1.1-0.5-2.1-2-2.1c-1.1,0-2,1-2,2.1H79.6z"/>
</g>
<g>
</g>
<g>
</g>
<g>
</g>
<g>
</g>
<g>
</g>
<g>
</g>
<g>
</g>
</svg>
