<?xml version="1.0" encoding="utf-8"?>
<!-- Generator: Adobe Illustrator 22.1.0, SVG Export Plug-In . SVG Version: 6.00 Build 0)  -->
<svg version="1.1" id="Layer_1" xmlns="http://www.w3.org/2000/svg" xmlns:xlink="http://www.w3.org/1999/xlink" x="0px" y="0px"
	 width="503.9px" height="132.7px" viewBox="0 0 503.9 132.7" enable-background="new 0 0 503.9 132.7" xml:space="preserve">
<rect x="161.9" y="39.4" fill="#EC881D" width="158.6" height="53.8"/>
<g>
	<path d="M180.4,60.9h-5.1v2h4.7v1.7h-4.7v2.5h5.4v1.7h-7.3v-9.7h7.1V60.9z"/>
	<path d="M184.1,60.9h-1.9v-1.7h1.9V60.9z M184.1,61.7v7.2h-1.9v-7.2H184.1z"/>
	<path d="M192.4,61.7v6.8c0,1.2-0.1,3.3-3.6,3.3c-1.5,0-3-0.6-3.1-2.2h2c0.1,0.4,0.2,0.7,1.3,0.7c1,0,1.5-0.5,1.5-1.6v-0.9l0,0
		c-0.3,0.6-0.8,1.1-1.9,1.1c-1.7,0-3.1-1.2-3.1-3.7c0-2.5,1.4-3.7,3-3.7c1.3,0,1.9,0.8,2.1,1.3h0v-1.1H192.4z M189,67.3
		c1.3,0,1.6-1.1,1.6-2.1c0-1.2-0.6-2.1-1.6-2.1c-0.7,0-1.5,0.5-1.5,2.2C187.5,66.3,187.9,67.3,189,67.3z"/>
	<path d="M200.3,66.8c-0.5,1.7-1.9,2.3-3.1,2.3c-2,0-3.6-1-3.6-3.9c0-0.9,0.3-3.6,3.4-3.6c1.4,0,3.4,0.7,3.4,3.9v0.3h-4.9
		c0.1,0.5,0.2,1.7,1.7,1.7c0.5,0,1.1-0.3,1.2-0.8H200.3z M198.4,64.6c-0.1-1.2-0.8-1.5-1.5-1.5c-0.9,0-1.4,0.6-1.5,1.5H198.4z"/>
	<path d="M208.1,68.9h-1.9v-4.3c0-0.5,0-1.4-1.2-1.4c-0.8,0-1.5,0.6-1.5,1.7v4.1h-1.9v-7.2h1.8v1h0c0.3-0.4,0.8-1.2,2.2-1.2
		c1.4,0,2.5,0.8,2.5,2.4V68.9z"/>
	<path d="M213.7,68.9h-2l-2.6-7.2h2.1l1.5,5.3h0l1.5-5.3h2L213.7,68.9z"/>
	<path d="M223.5,66.8c-0.5,1.7-1.9,2.3-3.1,2.3c-2,0-3.6-1-3.6-3.9c0-0.9,0.3-3.6,3.4-3.6c1.4,0,3.4,0.7,3.4,3.9v0.3h-4.9
		c0.1,0.5,0.2,1.7,1.7,1.7c0.5,0,1.1-0.3,1.2-0.8H223.5z M221.6,64.6c-0.1-1.2-0.8-1.5-1.5-1.5c-0.9,0-1.4,0.6-1.5,1.5H221.6z"/>
	<path d="M230.9,66.3c-0.1,0.7-0.6,2.8-3.3,2.8c-2.7,0-3.3-2.1-3.3-3.6c0-2.3,1-4,3.4-4c1.1,0,3,0.5,3.2,2.7h-1.9
		c-0.1-0.5-0.4-1.2-1.3-1.2c-1.2,0-1.5,1.2-1.5,2.1c0,0.8,0,2.3,1.5,2.3c1,0,1.3-0.9,1.3-1.3H230.9z"/>
	<path d="M234.4,61.7h1.2v1.3h-1.2V67c0,0.4,0,0.6,0.8,0.6c0.1,0,0.3,0,0.4,0v1.4c-0.3,0-0.6,0-0.9,0h-0.2c-1.6,0-1.9-0.6-1.9-1.5
		v-4.3h-1v-1.3h1v-1.9h1.9V61.7z"/>
	<path d="M240,69.1c-1.9,0-3.7-1.2-3.7-3.8s1.7-3.8,3.7-3.8s3.7,1.2,3.7,3.8S241.9,69.1,240,69.1z M240,63.1c-1.5,0-1.7,1.3-1.7,2.2
		c0,0.9,0.3,2.2,1.7,2.2s1.7-1.3,1.7-2.2C241.7,64.4,241.4,63.1,240,63.1z"/>
	<path d="M245,61.7h1.8V63h0c0.4-0.7,0.8-1.4,2-1.4c0.1,0,0.2,0,0.4,0v1.9c-0.2,0-0.4,0-0.5,0c-1.5,0-1.7,0.9-1.7,1.7v3.7H245V61.7z
		"/>
	<path d="M256.5,62.4c-0.2-0.6-0.5-1.7-2.1-1.7c-1,0-2.4,0.6-2.4,3.4c0,1.7,0.7,3.3,2.4,3.3c1.1,0,1.9-0.6,2.1-1.8h2
		c-0.4,2.1-1.8,3.6-4.2,3.6c-2.6,0-4.4-1.7-4.4-5.1c0-3.4,2-5.1,4.4-5.1c2.9,0,4.1,2,4.2,3.4H256.5z"/>
	<path d="M266.1,66.8c-0.5,1.7-1.9,2.3-3.1,2.3c-2,0-3.6-1-3.6-3.9c0-0.9,0.3-3.6,3.4-3.6c1.4,0,3.4,0.7,3.4,3.9v0.3h-4.9
		c0.1,0.5,0.2,1.7,1.7,1.7c0.5,0,1.1-0.3,1.2-0.8H266.1z M264.2,64.6c-0.1-1.2-0.8-1.5-1.5-1.5c-0.9,0-1.4,0.6-1.5,1.5H264.2z"/>
	<path d="M273.9,68.9H272v-4.3c0-0.5,0-1.4-1.2-1.4c-0.8,0-1.5,0.6-1.5,1.7v4.1h-1.9v-7.2h1.8v1h0c0.3-0.4,0.8-1.2,2.2-1.2
		c1.4,0,2.5,0.8,2.5,2.4V68.9z"/>
	<path d="M277.8,61.7h1.2v1.3h-1.2V67c0,0.4,0,0.6,0.8,0.6c0.1,0,0.3,0,0.4,0v1.4c-0.3,0-0.6,0-0.9,0h-0.2c-1.6,0-1.9-0.6-1.9-1.5
		v-4.3h-1v-1.3h1v-1.9h1.9V61.7z"/>
	<path d="M280.1,61.7h1.8V63h0c0.4-0.7,0.8-1.4,2-1.4c0.1,0,0.2,0,0.4,0v1.9c-0.2,0-0.4,0-0.5,0c-1.5,0-1.7,0.9-1.7,1.7v3.7h-1.9
		V61.7z"/>
	<path d="M291.2,67.5c0,0.8,0.2,1,0.4,1.1v0.3h-2c-0.1-0.3-0.1-0.4-0.2-0.8c-0.4,0.4-1,1-2.3,1c-1.1,0-2.2-0.6-2.2-2.1
		c0-1.4,0.9-2.1,2.1-2.3l1.7-0.3c0.3,0,0.7-0.2,0.7-0.6c0-0.8-0.8-0.8-1.2-0.8c-0.9,0-1.1,0.6-1.2,1h-1.8c0.2-2.2,1.7-2.5,3.2-2.5
		c1,0,2.9,0.3,2.9,2.1V67.5z M289.3,65.4c-0.2,0.1-0.5,0.3-1.3,0.4c-0.7,0.1-1.3,0.3-1.3,1.1c0,0.7,0.5,0.9,0.9,0.9
		c0.8,0,1.7-0.5,1.7-1.4V65.4z"/>
	<path d="M294.8,68.9h-1.9v-9.7h1.9V68.9z"/>
	<path d="M298.5,60.9h-1.9v-1.7h1.9V60.9z M298.5,61.7v7.2h-1.9v-7.2H298.5z"/>
	<path d="M302.4,61.7h1.2v1.3h-1.2V67c0,0.4,0,0.6,0.8,0.6c0.1,0,0.3,0,0.4,0v1.4c-0.3,0-0.6,0-0.9,0h-0.2c-1.6,0-1.9-0.6-1.9-1.5
		v-4.3h-1v-1.3h1v-1.9h1.9V61.7z"/>
	<path d="M308.7,68.8c-0.9,2.7-1.1,3-2.8,3c-0.3,0-0.6,0-0.8,0v-1.5c0.1,0,0.2,0,0.4,0c0.7,0,1.1-0.1,1.2-1.1l-2.6-7.5h2.1l1.5,5.3
		h0l1.5-5.3h2L308.7,68.8z"/>
</g>
<g>
	<g>
		<line fill="none" stroke="#5F6062" stroke-width="0.5" stroke-miterlimit="10" x1="320.2" y1="66.3" x2="370.5" y2="66.3"/>
		<g>
			<polygon fill="#5F6062" points="374,66.3 369.1,68.4 370.2,66.3 369.1,64.3 			"/>
		</g>
	</g>
</g>
<rect x="374" y="39" fill="#BADBF3" width="129.8" height="54.6"/>
<g>
	<rect x="382.4" y="61.9" fill="none" width="114.7" height="20.9"/>
	<path d="M406.9,71.8c-3.6,0-4.7-3-4.7-5.1s1.1-5.1,4.7-5.1s4.7,3,4.7,5.1S410.5,71.8,406.9,71.8z M406.9,62.8
		c-2.1,0-3.4,1.7-3.4,3.9s1.3,3.9,3.4,3.9s3.4-1.7,3.4-3.9S409,62.8,406.9,62.8z"/>
	<path d="M417.6,71.5v-1l0,0c-0.5,0.8-1.1,1.3-2.2,1.3c-1,0-2.3-0.5-2.3-2.2v-5.1h1.2v4.7c0,1.2,0.6,1.5,1.4,1.5
		c1.5,0,1.9-1.3,1.9-2.3v-3.9h1.2v7H417.6z"/>
	<path d="M421.9,65.5v4.6c0,0.6,0.5,0.6,0.7,0.6h0.4v0.9c-0.4,0-0.8,0.1-0.9,0.1c-1.2,0-1.4-0.7-1.4-1.5v-4.6h-1v-1h1v-2h1.2v2h1.1
		v1H421.9z"/>
	<path d="M424.1,64.5h1.1v1h0c0.3-0.4,0.8-1.2,2.1-1.2c1.9,0,2.9,1.5,2.9,3.5c0,1.7-0.7,3.9-3.1,3.9c-0.9,0-1.6-0.4-1.9-0.9h0v3.5
		h-1.2V64.5z M427.2,70.7c1.3,0,1.9-1.2,1.9-2.7c0-0.9-0.1-2.6-1.9-2.6c-1.7,0-1.9,1.8-1.9,3C425.3,70.2,426.4,70.7,427.2,70.7z"/>
	<path d="M436.3,71.5v-1l0,0c-0.5,0.8-1.1,1.3-2.2,1.3c-1,0-2.3-0.5-2.3-2.2v-5.1h1.2v4.7c0,1.2,0.6,1.5,1.4,1.5
		c1.5,0,1.9-1.3,1.9-2.3v-3.9h1.2v7H436.3z"/>
	<path d="M440.7,65.5v4.6c0,0.6,0.5,0.6,0.7,0.6h0.4v0.9c-0.4,0-0.8,0.1-0.9,0.1c-1.2,0-1.4-0.7-1.4-1.5v-4.6h-1v-1h1v-2h1.2v2h1.1
		v1H440.7z"/>
	<path d="M445.8,61.9h7.8V63h-3.3v8.5H449V63h-3.3V61.9z"/>
	<path d="M453.1,66.6c0.1-1.7,1.2-2.3,2.9-2.3c0.6,0,2.6,0.2,2.6,2v4.1c0,0.3,0.1,0.4,0.4,0.4c0.1,0,0.3,0,0.4-0.1v0.9
		c-0.2,0.1-0.4,0.1-0.6,0.1c-1,0-1.2-0.5-1.3-1.1c-0.5,0.5-1.2,1.1-2.5,1.1c-1.3,0-2.2-0.8-2.2-2c0-0.6,0.2-2,2.1-2.2l2-0.2
		c0.3,0,0.6-0.1,0.6-0.8c0-0.7-0.5-1.1-1.7-1.1c-1.3,0-1.5,0.8-1.6,1.4H453.1z M457.5,67.9c-0.2,0.1-0.5,0.3-2,0.4
		c-0.6,0.1-1.5,0.3-1.5,1.1c0,0.8,0.4,1.2,1.3,1.2c1.1,0,2.2-0.7,2.2-1.7V67.9z"/>
	<path d="M460.6,71.5v-9.7h1.2v3.5h0c0.5-0.7,1.2-1.1,2-1.1c1.9,0,2.9,1.5,2.9,3.5c0,1.7-0.7,3.9-3.1,3.9c-1.2,0-1.7-0.7-1.9-1.1h0
		v0.9H460.6z M463.6,65.4c-1.7,0-1.9,1.8-1.9,3c0,1.9,1.2,2.4,1.9,2.4c1.3,0,1.9-1.2,1.9-2.7C465.5,67.1,465.4,65.4,463.6,65.4z"/>
	<path d="M469.4,71.5h-1.2v-9.7h1.2V71.5z"/>
	<path d="M477.1,69.3c0,0.3-0.4,1.3-1.3,1.9c-0.3,0.2-0.8,0.5-1.9,0.5c-2,0-3.1-1.5-3.1-3.5c0-2.2,1-3.9,3.4-3.9c2,0,3,1.6,3,4.1
		h-5.1c0,1.5,0.7,2.3,2,2.3c1.1,0,1.8-0.9,1.8-1.4H477.1z M476,67.5c-0.1-1.1-0.5-2.1-2-2.1c-1.1,0-2,1-2,2.1H476z"/>
</g>
<g>
	<rect y="78.1" fill="#DBDCE0" width="107.7" height="54.6"/>
	<g>
		<rect x="12.1" y="98.5" fill="none" width="81.8" height="14.8"/>
		<path d="M23.5,108.1h-7.1v-9.7h7v1.2h-5.7v3H23v1.2h-5.3v3.2h5.8V108.1z"/>
		<path d="M30.9,108.1h-1.1v-1h0c-0.5,1-1.3,1.2-2,1.2c-2.4,0-3.1-2.2-3.1-3.9c0-2,1.1-3.5,2.9-3.5c1.3,0,1.8,0.8,2.1,1.2l0-0.1
			v-3.5h1.2V108.1z M27.8,107.3c0.8,0,1.9-0.5,1.9-2.4c0-1.1-0.2-3-1.9-3c-1.8,0-1.9,1.7-1.9,2.6C25.9,106.1,26.5,107.3,27.8,107.3z
			"/>
		<path d="M38.4,107.5c0,1,0,3.5-3.3,3.5c-0.8,0-2.5-0.2-2.7-2.1h1.2c0.2,1.1,1.3,1.1,1.6,1.1c2,0,2-1.6,2-2.5v-0.3h0v0.1
			c-0.3,0.5-0.9,0.9-1.9,0.9c-2.4,0-3.1-2.2-3.1-3.9c0-2,1.1-3.5,2.9-3.5c1.3,0,1.8,0.8,2.1,1.2h0v-1h1.1V107.5z M35.4,107.3
			c0.8,0,1.9-0.5,1.9-2.4c0-1.1-0.2-3-1.9-3c-1.8,0-1.9,1.7-1.9,2.6C33.5,106.1,34.1,107.3,35.4,107.3z"/>
		<path d="M46,105.9c0,0.3-0.4,1.3-1.3,1.9c-0.3,0.2-0.8,0.5-1.9,0.5c-2,0-3.1-1.5-3.1-3.5c0-2.2,1-3.9,3.4-3.9c2,0,3,1.6,3,4.1H41
			c0,1.5,0.7,2.3,2,2.3c1.1,0,1.8-0.9,1.8-1.4H46z M44.9,104c-0.1-1.1-0.5-2.1-2-2.1c-1.1,0-2,1-2,2.1H44.9z"/>
		<path d="M51.5,103.1c0-0.4-0.2-1.2-1.7-1.2c-0.4,0-1.4,0.1-1.4,1c0,0.6,0.4,0.7,1.3,0.9l1.2,0.3c1.5,0.4,2,0.9,2,1.9
			c0,1.5-1.2,2.3-2.8,2.3c-2.8,0-3-1.6-3-2.5h1.1c0,0.6,0.2,1.4,1.9,1.4c0.8,0,1.6-0.3,1.6-1.1c0-0.6-0.4-0.8-1.4-1l-1.4-0.3
			c-1-0.2-1.6-0.7-1.6-1.7c0-1.5,1.3-2.2,2.7-2.2c2.5,0,2.7,1.9,2.7,2.2H51.5z"/>
		<path d="M57.3,98.5h7.8v1.2h-3.3v8.5h-1.3v-8.5h-3.3V98.5z"/>
		<path d="M66.2,103.2c0.1-1.7,1.2-2.3,2.9-2.3c0.6,0,2.6,0.2,2.6,2v4.1c0,0.3,0.1,0.4,0.4,0.4c0.1,0,0.3,0,0.4-0.1v0.9
			c-0.2,0.1-0.4,0.1-0.6,0.1c-1,0-1.2-0.5-1.3-1.1c-0.5,0.5-1.2,1.1-2.5,1.1c-1.3,0-2.2-0.8-2.2-2c0-0.6,0.2-2,2.1-2.2l2-0.2
			c0.3,0,0.6-0.1,0.6-0.8c0-0.7-0.5-1.1-1.7-1.1c-1.3,0-1.5,0.8-1.6,1.4H66.2z M70.5,104.5c-0.2,0.1-0.5,0.3-2,0.4
			c-0.6,0.1-1.5,0.3-1.5,1.1c0,0.8,0.4,1.2,1.3,1.2c1.1,0,2.2-0.7,2.2-1.7V104.5z"/>
		<path d="M73.6,108.1v-9.7h1.2v3.5h0c0.5-0.7,1.2-1.1,2-1.1c1.9,0,2.9,1.5,2.9,3.5c0,1.7-0.7,3.9-3.1,3.9c-1.2,0-1.7-0.7-1.9-1.1h0
			v0.9H73.6z M76.7,101.9c-1.7,0-1.9,1.8-1.9,3c0,1.9,1.2,2.4,1.9,2.4c1.3,0,1.9-1.2,1.9-2.7C78.6,103.7,78.5,101.9,76.7,101.9z"/>
		<path d="M82.4,108.1h-1.2v-9.7h1.2V108.1z"/>
		<path d="M90.2,105.9c0,0.3-0.4,1.3-1.3,1.9c-0.3,0.2-0.8,0.5-1.9,0.5c-2,0-3.1-1.5-3.1-3.5c0-2.2,1-3.9,3.4-3.9c2,0,3,1.6,3,4.1
			h-5.1c0,1.5,0.7,2.3,2,2.3c1.1,0,1.8-0.9,1.8-1.4H90.2z M89,104c-0.1-1.1-0.5-2.1-2-2.1c-1.1,0-2,1-2,2.1H89z"/>
	</g>
	<g>
		<g>
			<line fill="none" stroke="#5F6062" stroke-width="0.5" stroke-miterlimit="10" x1="107.7" y1="105.4" x2="158.3" y2="84.3"/>
			<g>
				<polygon fill="#5F6062" points="161.5,82.9 157.7,86.7 158,84.4 156.2,83 				"/>
			</g>
		</g>
	</g>
	<rect fill="#DBDCE0" width="107.7" height="54.6"/>
	<g>
		<rect x="7.6" y="20.4" fill="none" width="89.3" height="11.8"/>
		<path d="M16.5,20.4H18L14.4,30h-1.4l-3.5-9.7H11l2.8,8.2h0L16.5,20.4z"/>
		<path d="M25.1,27.8c0,0.3-0.4,1.3-1.3,1.9c-0.3,0.2-0.8,0.5-1.9,0.5c-2,0-3.1-1.5-3.1-3.5c0-2.2,1-3.9,3.4-3.9c2,0,3,1.6,3,4.1H20
			c0,1.5,0.7,2.3,2,2.3c1.1,0,1.8-0.9,1.8-1.4H25.1z M24,26c-0.1-1.1-0.5-2.1-2-2.1c-1.1,0-2,1-2,2.1H24z"/>
		<path d="M27.9,30h-1.2v-7h1.1v1.2h0c0.5-0.8,1.1-1.4,2-1.4c0.1,0,0.2,0,0.3,0v1.2h-0.4c-1.1,0-1.8,0.9-1.8,1.9V30z"/>
		<path d="M32.5,24v4.6c0,0.6,0.5,0.6,0.7,0.6h0.4V30c-0.4,0-0.8,0.1-0.9,0.1c-1.2,0-1.4-0.7-1.4-1.5V24h-1v-1h1v-2h1.2v2h1.1v1
			H32.5z"/>
		<path d="M34.9,21.7v-1.3H36v1.3H34.9z M36,30h-1.2v-7H36V30z"/>
		<path d="M42.2,25.4c-0.1-0.9-0.7-1.5-1.7-1.5c-1.5,0-1.9,1.4-1.9,2.7c0,1.2,0.3,2.7,1.9,2.7c0.8,0,1.5-0.6,1.7-1.7h1.1
			c-0.1,1.1-0.8,2.7-2.9,2.7c-2,0-3.1-1.5-3.1-3.5c0-2.2,1-3.9,3.4-3.9c1.8,0,2.5,1.3,2.6,2.6H42.2z"/>
		<path d="M50.5,27.8c0,0.3-0.4,1.3-1.3,1.9c-0.3,0.2-0.8,0.5-1.9,0.5c-2,0-3.1-1.5-3.1-3.5c0-2.2,1-3.9,3.4-3.9c2,0,3,1.6,3,4.1
			h-5.1c0,1.5,0.7,2.3,2,2.3c1.1,0,1.8-0.9,1.8-1.4H50.5z M49.4,26c-0.1-1.1-0.5-2.1-2-2.1c-1.1,0-2,1-2,2.1H49.4z"/>
		<path d="M56,25c0-0.4-0.2-1.2-1.7-1.2c-0.4,0-1.4,0.1-1.4,1c0,0.6,0.4,0.7,1.3,0.9l1.2,0.3c1.5,0.4,2,0.9,2,1.9
			c0,1.5-1.2,2.3-2.8,2.3c-2.8,0-3-1.6-3-2.5h1.1c0,0.6,0.2,1.4,1.9,1.4c0.8,0,1.6-0.3,1.6-1.1c0-0.6-0.4-0.8-1.4-1l-1.4-0.3
			c-1-0.2-1.6-0.7-1.6-1.7c0-1.5,1.3-2.2,2.7-2.2c2.5,0,2.7,1.9,2.7,2.2H56z"/>
		<path d="M61.8,20.4h7.8v1.2h-3.3V30h-1.3v-8.5h-3.3V20.4z"/>
		<path d="M70.7,25.1c0.1-1.7,1.2-2.3,2.9-2.3c0.6,0,2.6,0.2,2.6,2v4.1c0,0.3,0.1,0.4,0.4,0.4c0.1,0,0.3,0,0.4-0.1V30
			c-0.2,0.1-0.4,0.1-0.6,0.1c-1,0-1.2-0.5-1.3-1.1c-0.5,0.5-1.2,1.1-2.5,1.1c-1.3,0-2.2-0.8-2.2-2c0-0.6,0.2-2,2.1-2.2l2-0.2
			c0.3,0,0.6-0.1,0.6-0.8c0-0.7-0.5-1.1-1.7-1.1c-1.3,0-1.5,0.8-1.6,1.4H70.7z M75,26.4c-0.2,0.1-0.5,0.3-2,0.4
			c-0.6,0.1-1.5,0.3-1.5,1.1c0,0.8,0.4,1.2,1.3,1.2c1.1,0,2.2-0.7,2.2-1.7V26.4z"/>
		<path d="M78.1,30v-9.7h1.2v3.5h0c0.5-0.7,1.2-1.1,2-1.1c1.9,0,2.9,1.5,2.9,3.5c0,1.7-0.7,3.9-3.1,3.9c-1.2,0-1.7-0.7-1.9-1.1h0V30
			H78.1z M81.1,23.9c-1.7,0-1.9,1.8-1.9,3c0,1.9,1.2,2.4,1.9,2.4c1.3,0,1.9-1.2,1.9-2.7C83.1,25.6,83,23.9,81.1,23.9z"/>
		<path d="M86.9,30h-1.2v-9.7h1.2V30z"/>
		<path d="M94.7,27.8c0,0.3-0.4,1.3-1.3,1.9c-0.3,0.2-0.8,0.5-1.9,0.5c-2,0-3.1-1.5-3.1-3.5c0-2.2,1-3.9,3.4-3.9c2,0,3,1.6,3,4.1
			h-5.1c0,1.5,0.7,2.3,2,2.3c1.1,0,1.8-0.9,1.8-1.4H94.7z M93.5,26c-0.1-1.1-0.5-2.1-2-2.1c-1.1,0-2,1-2,2.1H93.5z"/>
	</g>
	<g>
		<g>
			<line fill="none" stroke="#5F6062" stroke-width="0.5" stroke-miterlimit="10" x1="107.7" y1="27.3" x2="158.3" y2="48.4"/>
			<g>
				<polygon fill="#5F6062" points="161.5,49.8 156.2,49.7 158,48.3 157.7,46 				"/>
			</g>
		</g>
	</g>
</g>
<g>
</g>
<g>
</g>
<g>
</g>
<g>
</g>
<g>
</g>
<g>
</g>
<g>
</g>
</svg>
