<?xml version="1.0" encoding="utf-8"?>
<!-- Generator: Adobe Illustrator 22.1.0, SVG Export Plug-In . SVG Version: 6.00 Build 0)  -->
<svg version="1.1" id="Layer_1" xmlns="http://www.w3.org/2000/svg" xmlns:xlink="http://www.w3.org/1999/xlink" x="0px" y="0px"
	 width="504px" height="157.7px" viewBox="0 0 504 157.7" enable-background="new 0 0 504 157.7" xml:space="preserve">
<rect x="183.6" y="51.6" fill="#EC881D" width="135" height="54"/>
<g>
	<path d="M207.7,74.9h2.1l-3.3,9.7h-1.9l-3.3-9.7h2.2l2.1,7.3h0L207.7,74.9z"/>
	<path d="M217.1,82.5c-0.5,1.7-1.9,2.3-3.2,2.3c-2,0-3.6-1-3.6-3.9c0-0.9,0.3-3.6,3.4-3.6c1.4,0,3.4,0.7,3.4,4v0.3h-4.9
		c0.1,0.5,0.2,1.8,1.7,1.8c0.5,0,1.1-0.3,1.2-0.8H217.1z M215.3,80.3c-0.1-1.2-0.9-1.5-1.5-1.5c-0.9,0-1.4,0.6-1.5,1.5H215.3z"/>
	<path d="M224.7,82c-0.1,0.7-0.6,2.8-3.3,2.8c-2.7,0-3.3-2.1-3.3-3.6c0-2.3,1-4,3.4-4c1.1,0,3,0.5,3.2,2.8h-1.9
		c-0.1-0.5-0.4-1.2-1.3-1.2c-1.2,0-1.5,1.2-1.5,2.1c0,0.8,0,2.3,1.5,2.3c1,0,1.3-0.9,1.3-1.3H224.7z"/>
	<path d="M228.1,77.4h1.2v1.4h-1.2v3.9c0,0.4,0,0.6,0.8,0.6c0.1,0,0.3,0,0.4,0v1.4c-0.3,0-0.6,0-0.9,0h-0.2c-1.6,0-1.9-0.6-1.9-1.6
		v-4.4h-1v-1.4h1v-1.9h1.9V77.4z"/>
	<path d="M233.7,84.8c-1.9,0-3.7-1.2-3.7-3.8s1.7-3.8,3.7-3.8s3.7,1.2,3.7,3.8S235.7,84.8,233.7,84.8z M233.7,78.8
		c-1.5,0-1.7,1.3-1.7,2.2c0,0.9,0.3,2.2,1.7,2.2s1.7-1.3,1.7-2.2C235.5,80.1,235.2,78.8,233.7,78.8z"/>
	<path d="M238.7,77.4h1.8v1.2h0c0.4-0.7,0.8-1.4,2-1.4c0.1,0,0.2,0,0.4,0v1.9c-0.2,0-0.4,0-0.5,0c-1.5,0-1.7,0.9-1.7,1.7v3.7h-1.9
		V77.4z"/>
	<path d="M244.1,74.9h4.3c3.3,0,3.9,2.8,3.9,4.6c0,2.1-0.8,5.1-4,5.1h-4.2V74.9z M246.1,82.9h2c1.6,0,2.2-1.7,2.2-3.3
		c0-2.9-1.4-3.1-2.2-3.1h-1.9V82.9z"/>
	<path d="M255.7,76.6h-1.9v-1.8h1.9V76.6z M255.7,77.4v7.2h-1.9v-7.2H255.7z"/>
	<path d="M261.5,79.6c-0.1-0.5-0.2-0.9-1.3-0.9s-1.2,0.4-1.2,0.7c0,1.1,4.5,0.3,4.5,3c0,2.1-2,2.5-3.1,2.5c-1.6,0-3.4-0.6-3.5-2.5
		h1.9c0,0.6,0.4,1.1,1.6,1.1c1,0,1.2-0.5,1.2-0.7c0-1.2-4.5-0.3-4.5-3c0-1.1,0.7-2.4,2.9-2.4c1.4,0,3.1,0.4,3.2,2.4H261.5z"/>
	<path d="M267.1,77.4h1.2v1.4h-1.2v3.9c0,0.4,0,0.6,0.8,0.6c0.1,0,0.3,0,0.4,0v1.4c-0.3,0-0.6,0-0.9,0h-0.2c-1.6,0-1.9-0.6-1.9-1.6
		v-4.4h-1v-1.4h1v-1.9h1.9V77.4z"/>
	<path d="M275.3,83.2c0,0.9,0.2,1,0.4,1.1v0.3h-2c-0.1-0.3-0.1-0.4-0.2-0.9c-0.4,0.4-1,1-2.3,1c-1.1,0-2.2-0.6-2.2-2.1
		c0-1.4,0.9-2.1,2.1-2.3l1.7-0.3c0.3,0,0.7-0.2,0.7-0.6c0-0.8-0.8-0.8-1.2-0.8c-0.9,0-1.1,0.6-1.2,1h-1.8c0.2-2.2,1.7-2.5,3.2-2.5
		c1,0,2.9,0.3,2.9,2.1V83.2z M273.5,81.1c-0.2,0.1-0.5,0.3-1.3,0.4c-0.7,0.1-1.3,0.3-1.3,1.1c0,0.7,0.5,0.9,0.9,0.9
		c0.8,0,1.7-0.5,1.7-1.4V81.1z"/>
	<path d="M283.5,84.6h-1.9v-4.4c0-0.5,0-1.4-1.2-1.4c-0.8,0-1.5,0.6-1.5,1.7v4.1H277v-7.2h1.8v1.1h0c0.3-0.4,0.8-1.2,2.2-1.2
		c1.4,0,2.5,0.8,2.5,2.4V84.6z"/>
	<path d="M291.4,82c-0.1,0.7-0.6,2.8-3.3,2.8c-2.7,0-3.3-2.1-3.3-3.6c0-2.3,1-4,3.4-4c1.1,0,3,0.5,3.2,2.8h-1.9
		c-0.1-0.5-0.4-1.2-1.3-1.2c-1.2,0-1.5,1.2-1.5,2.1c0,0.8,0,2.3,1.5,2.3c1,0,1.3-0.9,1.3-1.3H291.4z"/>
	<path d="M298.9,82.5c-0.5,1.7-1.9,2.3-3.2,2.3c-2,0-3.6-1-3.6-3.9c0-0.9,0.3-3.6,3.4-3.6c1.4,0,3.4,0.7,3.4,4v0.3h-4.9
		c0.1,0.5,0.2,1.8,1.7,1.8c0.5,0,1.1-0.3,1.2-0.8H298.9z M297.1,80.3c-0.1-1.2-0.9-1.5-1.5-1.5c-0.9,0-1.4,0.6-1.5,1.5H297.1z"/>
</g>
<g>
	<g>
		<line fill="none" stroke="#5F6062" stroke-width="0.5" stroke-miterlimit="10" x1="318.3" y1="78.8" x2="368.8" y2="78.8"/>
		<g>
			<polygon fill="#5F6062" points="372.3,78.8 367.3,80.8 368.5,78.8 367.3,76.8 			"/>
		</g>
	</g>
</g>
<rect x="372.3" y="51.6" fill="#BADBF3" width="131.7" height="54.8"/>
<g>
	<rect x="380.6" y="73" fill="none" width="115" height="13.5"/>
	<path d="M405.2,83c-3.6,0-4.7-3-4.7-5.1c0-2.1,1.1-5.1,4.7-5.1s4.7,3,4.7,5.1C410,79.9,408.9,83,405.2,83z M405.2,73.9
		c-2.1,0-3.4,1.7-3.4,3.9s1.3,3.9,3.4,3.9s3.4-1.7,3.4-3.9S407.3,73.9,405.2,73.9z"/>
	<path d="M416,82.7v-1l0,0c-0.5,0.8-1.1,1.3-2.2,1.3c-1,0-2.3-0.5-2.3-2.2v-5.1h1.2v4.7c0,1.2,0.6,1.6,1.4,1.6
		c1.5,0,1.9-1.3,1.9-2.3v-3.9h1.2v7.1H416z"/>
	<path d="M420.3,76.6v4.6c0,0.6,0.5,0.6,0.7,0.6h0.4v0.9c-0.4,0-0.8,0.1-0.9,0.1c-1.2,0-1.4-0.7-1.4-1.5v-4.7h-1v-1h1v-2h1.2v2h1.1
		v1H420.3z"/>
	<path d="M422.5,75.6h1.1v1h0c0.3-0.4,0.8-1.2,2.1-1.2c1.9,0,2.9,1.5,2.9,3.5c0,1.7-0.7,3.9-3.1,3.9c-0.9,0-1.6-0.4-1.9-0.9h0v3.5
		h-1.2V75.6z M425.6,81.9c1.3,0,1.9-1.2,1.9-2.7c0-0.9-0.1-2.6-1.9-2.6c-1.7,0-1.9,1.9-1.9,3C423.7,81.4,424.8,81.9,425.6,81.9z"/>
	<path d="M434.7,82.7v-1l0,0c-0.5,0.8-1.1,1.3-2.2,1.3c-1,0-2.3-0.5-2.3-2.2v-5.1h1.2v4.7c0,1.2,0.6,1.6,1.4,1.6
		c1.5,0,1.9-1.3,1.9-2.3v-3.9h1.2v7.1H434.7z"/>
	<path d="M439.1,76.6v4.6c0,0.6,0.5,0.6,0.7,0.6h0.4v0.9c-0.4,0-0.8,0.1-0.9,0.1c-1.2,0-1.4-0.7-1.4-1.5v-4.7h-1v-1h1v-2h1.2v2h1.1
		v1H439.1z"/>
	<path d="M444.2,73h7.9v1.2h-3.3v8.5h-1.3v-8.5h-3.3V73z"/>
	<path d="M451.6,77.8c0.1-1.7,1.2-2.3,2.9-2.3c0.6,0,2.6,0.2,2.6,2v4.1c0,0.3,0.1,0.4,0.4,0.4c0.1,0,0.3,0,0.4-0.1v0.9
		c-0.2,0.1-0.4,0.1-0.6,0.1c-1.1,0-1.2-0.5-1.3-1.1c-0.5,0.5-1.2,1.1-2.6,1.1c-1.3,0-2.2-0.8-2.2-2c0-0.6,0.2-2,2.1-2.2l2-0.2
		c0.3,0,0.6-0.1,0.6-0.8c0-0.7-0.5-1.1-1.7-1.1c-1.4,0-1.5,0.8-1.6,1.4H451.6z M456,79.1c-0.2,0.1-0.5,0.3-2,0.4
		c-0.6,0.1-1.5,0.3-1.5,1.1c0,0.8,0.4,1.2,1.3,1.2c1.1,0,2.2-0.7,2.2-1.7V79.1z"/>
	<path d="M459.1,82.7V73h1.2v3.5h0c0.5-0.7,1.2-1.1,2-1.1c1.9,0,2.9,1.5,2.9,3.5c0,1.7-0.7,3.9-3.1,3.9c-1.2,0-1.7-0.7-1.9-1.1h0
		v0.9H459.1z M462.1,76.5c-1.7,0-1.9,1.9-1.9,3c0,1.9,1.2,2.4,1.9,2.4c1.3,0,1.9-1.2,1.9-2.7C464,78.2,463.9,76.5,462.1,76.5z"/>
	<path d="M467.9,82.7h-1.2V73h1.2V82.7z"/>
	<path d="M475.7,80.5c0,0.3-0.4,1.3-1.3,1.9c-0.3,0.2-0.8,0.5-1.9,0.5c-2,0-3.2-1.5-3.2-3.5c0-2.2,1.1-3.9,3.4-3.9c2,0,3,1.6,3,4.1
		h-5.2c0,1.5,0.7,2.3,2.1,2.3c1.1,0,1.8-0.9,1.8-1.4H475.7z M474.5,78.6c-0.1-1.1-0.5-2.1-2-2.1c-1.1,0-2,1-2,2.1H474.5z"/>
</g>
<rect fill="#DBDCE0" width="129" height="53.8"/>
<g>
	<rect x="7.7" y="21.6" fill="none" width="115" height="28.5"/>
	<path d="M21.1,21.6H29v1.2h-3.3v8.5h-1.3v-8.5h-3.3V21.6z"/>
	<path d="M30,26.4c0.1-1.7,1.2-2.3,2.9-2.3c0.6,0,2.6,0.2,2.6,2v4.1c0,0.3,0.1,0.4,0.4,0.4c0.1,0,0.3,0,0.4-0.1v0.9
		c-0.2,0.1-0.4,0.1-0.6,0.1c-1.1,0-1.2-0.5-1.3-1.1c-0.5,0.5-1.2,1.1-2.6,1.1c-1.3,0-2.2-0.8-2.2-2c0-0.6,0.2-2,2.1-2.2l2-0.2
		c0.3,0,0.6-0.1,0.6-0.8c0-0.7-0.5-1.1-1.7-1.1c-1.4,0-1.5,0.8-1.6,1.4H30z M34.3,27.7c-0.2,0.1-0.5,0.3-2,0.4
		c-0.6,0.1-1.5,0.3-1.5,1.1c0,0.8,0.4,1.2,1.3,1.2c1.1,0,2.2-0.7,2.2-1.7V27.7z"/>
	<path d="M38.9,31.3h-1.2v-7.1h1.1v1.2h0c0.5-0.8,1.1-1.4,2-1.4c0.1,0,0.2,0,0.3,0v1.2h-0.4c-1.1,0-1.8,0.9-1.8,1.9V31.3z"/>
	<path d="M47.9,30.8c0,1,0,3.6-3.3,3.6c-0.8,0-2.5-0.2-2.7-2.1h1.2c0.2,1.1,1.3,1.1,1.6,1.1c2.1,0,2-1.6,2-2.5v-0.3h0v0.1
		c-0.3,0.5-0.9,0.9-1.9,0.9c-2.4,0-3.1-2.3-3.1-3.9c0-2,1.1-3.5,2.9-3.5c1.3,0,1.8,0.8,2.1,1.2h0v-1h1.1V30.8z M44.8,30.5
		c0.8,0,1.9-0.5,1.9-2.4c0-1.1-0.2-3-1.9-3c-1.8,0-1.9,1.7-1.9,2.6C42.9,29.3,43.5,30.5,44.8,30.5z"/>
	<path d="M55.5,29.1c0,0.3-0.4,1.3-1.3,1.9c-0.3,0.2-0.8,0.5-1.9,0.5c-2,0-3.2-1.5-3.2-3.5c0-2.2,1.1-3.9,3.4-3.9c2,0,3,1.6,3,4.1
		h-5.2c0,1.5,0.7,2.3,2.1,2.3c1.1,0,1.8-0.9,1.8-1.4H55.5z M54.4,27.3c-0.1-1.1-0.5-2.1-2-2.1c-1.1,0-2,1-2,2.1H54.4z"/>
	<path d="M58.5,25.3v4.6c0,0.6,0.5,0.6,0.7,0.6h0.4v0.9c-0.4,0-0.8,0.1-0.9,0.1c-1.2,0-1.4-0.7-1.4-1.5v-4.7h-1v-1h1v-2h1.2v2h1.1v1
		H58.5z"/>
	<path d="M70.9,21.6h1.5l-3.5,9.7h-1.4l-3.5-9.7h1.5l2.8,8.3h0L70.9,21.6z"/>
	<path d="M79.6,29.1c0,0.3-0.4,1.3-1.3,1.9c-0.3,0.2-0.8,0.5-1.9,0.5c-2,0-3.2-1.5-3.2-3.5c0-2.2,1.1-3.9,3.4-3.9c2,0,3,1.6,3,4.1
		h-5.2c0,1.5,0.7,2.3,2.1,2.3c1.1,0,1.8-0.9,1.8-1.4H79.6z M78.4,27.3c-0.1-1.1-0.5-2.1-2-2.1c-1.1,0-2,1-2,2.1H78.4z"/>
	<path d="M85.5,26.7c-0.1-0.9-0.7-1.5-1.7-1.5c-1.5,0-1.9,1.4-1.9,2.7c0,1.2,0.3,2.7,1.9,2.7c0.8,0,1.5-0.6,1.7-1.7h1.1
		c-0.1,1.1-0.8,2.7-2.9,2.7c-2,0-3.2-1.5-3.2-3.5c0-2.2,1.1-3.9,3.4-3.9c1.9,0,2.6,1.4,2.6,2.6H85.5z"/>
	<path d="M89.3,25.3v4.6c0,0.6,0.5,0.6,0.7,0.6h0.4v0.9c-0.4,0-0.8,0.1-0.9,0.1c-1.2,0-1.4-0.7-1.4-1.5v-4.7h-1v-1h1v-2h1.2v2h1.1v1
		H89.3z"/>
	<path d="M94.4,24.1c2.3,0,3.3,1.9,3.3,3.7s-1,3.7-3.3,3.7c-2.3,0-3.3-1.9-3.3-3.7S92.2,24.1,94.4,24.1z M94.4,30.5
		c1.7,0,2.1-1.8,2.1-2.7s-0.4-2.7-2.1-2.7c-1.7,0-2.1,1.8-2.1,2.7S92.7,30.5,94.4,30.5z"/>
	<path d="M100.4,31.3h-1.2v-7.1h1.1v1.2h0c0.5-0.8,1.1-1.4,2-1.4c0.1,0,0.2,0,0.3,0v1.2h-0.4c-1.1,0-1.8,0.9-1.8,1.9V31.3z"/>
	<path d="M107.6,26.3c0-0.4-0.2-1.2-1.7-1.2c-0.4,0-1.4,0.1-1.4,1c0,0.6,0.4,0.7,1.3,0.9l1.2,0.3c1.5,0.4,2,0.9,2,1.9
		c0,1.5-1.2,2.3-2.8,2.3c-2.8,0-3-1.6-3-2.5h1.1c0,0.6,0.2,1.4,1.9,1.4c0.9,0,1.6-0.3,1.6-1.1c0-0.6-0.4-0.8-1.4-1L105,28
		c-1-0.2-1.6-0.7-1.6-1.7c0-1.6,1.3-2.3,2.7-2.3c2.5,0,2.7,1.9,2.7,2.2H107.6z"/>
	<path d="M48.5,37.8h7.9V39h-3.3v8.5h-1.3V39h-3.3V37.8z"/>
	<path d="M57.4,42.6c0.1-1.7,1.2-2.3,2.9-2.3c0.6,0,2.6,0.2,2.6,2v4.1c0,0.3,0.1,0.4,0.4,0.4c0.1,0,0.3,0,0.4-0.1v0.9
		c-0.2,0.1-0.4,0.1-0.6,0.1c-1.1,0-1.2-0.5-1.3-1.1c-0.5,0.5-1.2,1.1-2.6,1.1c-1.3,0-2.2-0.8-2.2-2c0-0.6,0.2-2,2.1-2.2l2-0.2
		c0.3,0,0.6-0.1,0.6-0.8c0-0.7-0.5-1.1-1.7-1.1c-1.4,0-1.5,0.8-1.6,1.4H57.4z M61.7,43.9c-0.2,0.1-0.5,0.3-2,0.4
		c-0.6,0.1-1.5,0.3-1.5,1.1c0,0.8,0.4,1.2,1.3,1.2c1.1,0,2.2-0.7,2.2-1.7V43.9z"/>
	<path d="M64.8,47.5v-9.7H66v3.5h0c0.5-0.7,1.2-1.1,2-1.1c1.9,0,2.9,1.5,2.9,3.5c0,1.7-0.7,3.9-3.1,3.9c-1.2,0-1.7-0.7-1.9-1.1h0
		v0.9H64.8z M67.9,41.3c-1.7,0-1.9,1.9-1.9,3c0,1.9,1.2,2.4,1.9,2.4c1.3,0,1.9-1.2,1.9-2.7C69.8,43.1,69.7,41.3,67.9,41.3z"/>
	<path d="M73.6,47.5h-1.2v-9.7h1.2V47.5z"/>
	<path d="M81.4,45.3c0,0.3-0.4,1.3-1.3,1.9c-0.3,0.2-0.8,0.5-1.9,0.5c-2,0-3.2-1.5-3.2-3.5c0-2.2,1.1-3.9,3.4-3.9c2,0,3,1.6,3,4.1
		h-5.2c0,1.5,0.7,2.3,2.1,2.3c1.1,0,1.8-0.9,1.8-1.4H81.4z M80.3,43.5c-0.1-1.1-0.5-2.1-2-2.1c-1.1,0-2,1-2,2.1H80.3z"/>
</g>
<rect y="103.9" fill="#DBDCE0" width="129" height="53.8"/>
<g>
	<g>
		<polyline fill="none" stroke="#5F6062" stroke-width="0.5" stroke-miterlimit="10" points="128.6,26.9 199.9,26.9 199.9,47.4 		
			"/>
		<g>
			<polygon fill="#5F6062" points="199.9,50.9 197.8,45.9 199.9,47.1 201.9,45.9 			"/>
		</g>
	</g>
</g>
<g>
	<g>
		<polyline fill="none" stroke="#5F6062" stroke-width="0.5" stroke-miterlimit="10" points="128.6,129.8 199.9,129.8 199.9,109.4 
					"/>
		<g>
			<polygon fill="#5F6062" points="199.9,105.8 201.9,110.8 199.9,109.6 197.8,110.8 			"/>
		</g>
	</g>
</g>
<g>
	<rect x="7" y="122.5" fill="none" width="115" height="28.5"/>
	<path d="M11.1,132.2H9.8v-9.7h4.5c1.6,0,3.2,0.6,3.2,2.6c0,1.4-0.7,2-1.4,2.3c0.6,0.2,1.1,0.5,1.2,1.8l0.1,1.8c0,0.5,0.1,0.7,0.5,1
		v0.2h-1.6c-0.2-0.6-0.2-2.1-0.2-2.4c0-0.8-0.2-1.7-1.7-1.7h-3.2V132.2z M11.1,126.9h3c1,0,2-0.2,2-1.7c0-1.5-1.1-1.6-1.7-1.6h-3.3
		V126.9z"/>
	<path d="M25.2,130c0,0.3-0.4,1.3-1.3,1.9c-0.3,0.2-0.8,0.5-1.9,0.5c-2,0-3.2-1.5-3.2-3.5c0-2.2,1.1-3.9,3.4-3.9c2,0,3,1.6,3,4.1
		h-5.2c0,1.5,0.7,2.3,2.1,2.3c1.1,0,1.8-0.9,1.8-1.4H25.2z M24.1,128.1c-0.1-1.1-0.5-2.1-2-2.1c-1.1,0-2,1-2,2.1H24.1z"/>
	<path d="M28.2,126.1v6.1H27v-6.1h-1v-1h1v-1.2c0-1.1,0.7-1.6,1.8-1.6c0.2,0,0.4,0,0.5,0v1.1c-0.1,0-0.3,0-0.5,0
		c-0.5,0-0.7,0.3-0.7,0.8v0.9h1.2v1H28.2z"/>
	<path d="M36.5,130c0,0.3-0.4,1.3-1.3,1.9c-0.3,0.2-0.8,0.5-1.9,0.5c-2,0-3.2-1.5-3.2-3.5c0-2.2,1.1-3.9,3.4-3.9c2,0,3,1.6,3,4.1
		h-5.2c0,1.5,0.7,2.3,2.1,2.3c1.1,0,1.8-0.9,1.8-1.4H36.5z M35.3,128.1c-0.1-1.1-0.5-2.1-2-2.1c-1.1,0-2,1-2,2.1H35.3z"/>
	<path d="M39.3,132.2h-1.2v-7.1h1.1v1.2h0c0.5-0.8,1.1-1.4,2-1.4c0.1,0,0.2,0,0.3,0v1.2h-0.4c-1.1,0-1.8,0.9-1.8,1.9V132.2z"/>
	<path d="M48.5,130c0,0.3-0.4,1.3-1.3,1.9c-0.3,0.2-0.8,0.5-1.9,0.5c-2,0-3.2-1.5-3.2-3.5c0-2.2,1.1-3.9,3.4-3.9c2,0,3,1.6,3,4.1
		h-5.2c0,1.5,0.7,2.3,2.1,2.3c1.1,0,1.8-0.9,1.8-1.4H48.5z M47.4,128.1c-0.1-1.1-0.5-2.1-2-2.1c-1.1,0-2,1-2,2.1H47.4z"/>
	<path d="M55.7,132.2h-1.2v-4.3c0-1.2-0.4-1.8-1.5-1.8c-0.7,0-1.9,0.4-1.9,2.3v3.8H50v-7.1h1.1v1h0c0.3-0.4,0.9-1.2,2.1-1.2
		c1.1,0,2.5,0.4,2.5,2.5V132.2z"/>
	<path d="M61.9,127.5c-0.1-0.9-0.7-1.5-1.7-1.5c-1.5,0-1.9,1.4-1.9,2.7c0,1.2,0.3,2.7,1.9,2.7c0.8,0,1.5-0.6,1.7-1.7h1.1
		c-0.1,1.1-0.8,2.7-2.9,2.7c-2,0-3.2-1.5-3.2-3.5c0-2.2,1.1-3.9,3.4-3.9c1.9,0,2.6,1.4,2.6,2.6H61.9z"/>
	<path d="M70.2,130c0,0.3-0.4,1.3-1.3,1.9c-0.3,0.2-0.8,0.5-1.9,0.5c-2,0-3.2-1.5-3.2-3.5c0-2.2,1.1-3.9,3.4-3.9c2,0,3,1.6,3,4.1
		h-5.2c0,1.5,0.7,2.3,2.1,2.3c1.1,0,1.8-0.9,1.8-1.4H70.2z M69.1,128.1c-0.1-1.1-0.5-2.1-2-2.1c-1.1,0-2,1-2,2.1H69.1z"/>
	<path d="M81.9,122.5h1.5l-3.5,9.7h-1.4l-3.5-9.7h1.5l2.8,8.3h0L81.9,122.5z"/>
	<path d="M90.5,130c0,0.3-0.4,1.3-1.3,1.9c-0.3,0.2-0.8,0.5-1.9,0.5c-2,0-3.2-1.5-3.2-3.5c0-2.2,1.1-3.9,3.4-3.9c2,0,3,1.6,3,4.1
		h-5.2c0,1.5,0.7,2.3,2.1,2.3c1.1,0,1.8-0.9,1.8-1.4H90.5z M89.4,128.1c-0.1-1.1-0.5-2.1-2-2.1c-1.1,0-2,1-2,2.1H89.4z"/>
	<path d="M96.4,127.5c-0.1-0.9-0.7-1.5-1.7-1.5c-1.5,0-1.9,1.4-1.9,2.7c0,1.2,0.3,2.7,1.9,2.7c0.8,0,1.5-0.6,1.7-1.7h1.1
		c-0.1,1.1-0.8,2.7-2.9,2.7c-2,0-3.2-1.5-3.2-3.5c0-2.2,1.1-3.9,3.4-3.9c1.9,0,2.6,1.4,2.6,2.6H96.4z"/>
	<path d="M100.2,126.1v4.6c0,0.6,0.5,0.6,0.7,0.6h0.4v0.9c-0.4,0-0.8,0.1-0.9,0.1c-1.2,0-1.4-0.7-1.4-1.5v-4.7h-1v-1h1v-2h1.2v2h1.1
		v1H100.2z"/>
	<path d="M105.4,124.9c2.3,0,3.3,1.9,3.3,3.7s-1,3.7-3.3,3.7c-2.3,0-3.3-1.9-3.3-3.7S103.1,124.9,105.4,124.9z M105.4,131.4
		c1.7,0,2.1-1.8,2.1-2.7s-0.4-2.7-2.1-2.7c-1.7,0-2.1,1.8-2.1,2.7S103.7,131.4,105.4,131.4z"/>
	<path d="M111.4,132.2h-1.2v-7.1h1.1v1.2h0c0.5-0.8,1.1-1.4,2-1.4c0.1,0,0.2,0,0.3,0v1.2h-0.4c-1.1,0-1.8,0.9-1.8,1.9V132.2z"/>
	<path d="M118.5,127.2c0-0.4-0.2-1.2-1.7-1.2c-0.4,0-1.4,0.1-1.4,1c0,0.6,0.4,0.7,1.3,0.9l1.2,0.3c1.5,0.4,2,0.9,2,1.9
		c0,1.5-1.2,2.3-2.8,2.3c-2.8,0-3-1.6-3-2.5h1.1c0,0.6,0.2,1.4,1.9,1.4c0.9,0,1.6-0.3,1.6-1.1c0-0.6-0.4-0.8-1.4-1l-1.4-0.3
		c-1-0.2-1.6-0.7-1.6-1.7c0-1.6,1.3-2.3,2.7-2.3c2.5,0,2.7,1.9,2.7,2.2H118.5z"/>
	<path d="M47.8,138.7h7.9v1.2h-3.3v8.5h-1.3v-8.5h-3.3V138.7z"/>
	<path d="M56.7,143.5c0.1-1.7,1.2-2.4,2.9-2.4c0.6,0,2.6,0.2,2.6,2v4.1c0,0.3,0.1,0.4,0.4,0.4c0.1,0,0.3,0,0.4-0.1v0.9
		c-0.2,0.1-0.4,0.1-0.6,0.1c-1.1,0-1.2-0.5-1.3-1.1c-0.5,0.5-1.2,1.1-2.6,1.1c-1.3,0-2.2-0.8-2.2-2c0-0.6,0.2-2,2.1-2.2l2-0.2
		c0.3,0,0.6-0.1,0.6-0.8c0-0.7-0.5-1.1-1.7-1.1c-1.4,0-1.5,0.8-1.6,1.4H56.7z M61.1,144.8c-0.2,0.1-0.5,0.3-2,0.4
		c-0.6,0.1-1.5,0.3-1.5,1.1c0,0.8,0.4,1.2,1.3,1.2c1.1,0,2.2-0.7,2.2-1.7V144.8z"/>
	<path d="M64.2,148.4v-9.7h1.2v3.5h0c0.5-0.7,1.2-1.1,2-1.1c1.9,0,2.9,1.5,2.9,3.5c0,1.7-0.7,3.9-3.1,3.9c-1.2,0-1.7-0.7-1.9-1.1h0
		v0.9H64.2z M67.2,142.2c-1.7,0-1.9,1.8-1.9,3c0,1.9,1.2,2.4,1.9,2.4c1.3,0,1.9-1.2,1.9-2.7C69.1,144,69,142.2,67.2,142.2z"/>
	<path d="M73,148.4h-1.2v-9.7H73V148.4z"/>
	<path d="M80.7,146.2c0,0.3-0.4,1.3-1.3,1.9c-0.3,0.2-0.8,0.5-1.9,0.5c-2,0-3.2-1.5-3.2-3.5c0-2.2,1.1-3.9,3.4-3.9c2,0,3,1.6,3,4.1
		h-5.2c0,1.5,0.7,2.3,2.1,2.3c1.1,0,1.8-0.9,1.8-1.4H80.7z M79.6,144.3c-0.1-1.1-0.5-2.1-2-2.1c-1.1,0-2,1-2,2.1H79.6z"/>
</g>
<g>
</g>
<g>
</g>
<g>
</g>
<g>
</g>
<g>
</g>
<g>
</g>
<g>
</g>
</svg>
