<?xml version="1.0" encoding="utf-8"?>
<!-- Generator: Adobe Illustrator 22.1.0, SVG Export Plug-In . SVG Version: 6.00 Build 0)  -->
<svg version="1.1" id="Layer_1" xmlns="http://www.w3.org/2000/svg" xmlns:xlink="http://www.w3.org/1999/xlink" x="0px" y="0px"
	 width="505.1px" height="225.5px" viewBox="0 0 505.1 225.5" enable-background="new 0 0 505.1 225.5" xml:space="preserve">
<rect x="193.9" y="83" fill="#EC881D" width="142.5" height="57"/>
<g>
	<path d="M261.4,115.6h-2v-1h0c-0.5,0.9-1.4,1.2-2.2,1.2c-2.3,0-3.2-2-3.2-4.1c0-2.6,1.5-3.9,3.1-3.9c1.3,0,1.9,0.7,2.2,1.2h0v-3.6
		h2V115.6z M257.7,114.2c1.3,0,1.8-1.1,1.8-2.2c0-1.2-0.3-2.4-1.7-2.4c-1.3,0-1.7,1.1-1.7,2.3C256.1,112.8,256.4,114.2,257.7,114.2z
		"/>
	<path d="M265.4,108h1.2v1.4h-1.2v4.1c0,0.4,0,0.6,0.8,0.6c0.1,0,0.3,0,0.4,0v1.5c-0.3,0-0.6,0-0.9,0h-0.3c-1.7,0-2-0.7-2-1.6v-4.6
		h-1V108h1V106h2V108z"/>
	<path d="M275.8,115.6h-2.1l-1.2-5.5h0l-1.2,5.5h-2.1l-2.1-7.6h2.1l1.2,5.4h0l1.1-5.4h2l1.1,5.4h0l1.2-5.4h2.1L275.8,115.6z"/>
</g>
<rect x="393" y="83.1" fill="#BADBF3" width="112.1" height="56.8"/>
<g>
	<rect x="408" y="105.1" fill="none" width="89.7" height="14.2"/>
	<path d="M418.2,115.6c-3.8,0-5-3.2-5-5.4s1.2-5.4,5-5.4s5,3.2,5,5.4S422,115.6,418.2,115.6z M418.2,106c-2.2,0-3.6,1.8-3.6,4.2
		c0,2.4,1.3,4.2,3.6,4.2s3.6-1.8,3.6-4.2C421.7,107.8,420.4,106,418.2,106z"/>
	<path d="M429.5,115.3v-1.1l0,0c-0.5,0.9-1.2,1.3-2.4,1.3c-1.1,0-2.4-0.5-2.4-2.3v-5.4h1.3v4.9c0,1.2,0.6,1.6,1.4,1.6
		c1.6,0,2.1-1.4,2.1-2.5v-4.1h1.3v7.5H429.5z"/>
	<path d="M434.1,108.9v4.8c0,0.6,0.5,0.6,0.8,0.6h0.4v1c-0.5,0-0.8,0.1-0.9,0.1c-1.2,0-1.5-0.7-1.5-1.6v-4.9h-1v-1h1v-2.1h1.3v2.1
		h1.2v1H434.1z"/>
	<path d="M436.4,107.9h1.2v1.1h0c0.3-0.4,0.9-1.3,2.2-1.3c2,0,3.1,1.6,3.1,3.7c0,1.8-0.7,4.2-3.3,4.2c-1,0-1.7-0.5-2-1h0v3.7h-1.3
		V107.9z M439.7,114.5c1.4,0,2-1.2,2-2.9c0-1-0.1-2.8-2-2.8c-1.8,0-2,2-2,3.2C437.6,113.9,438.9,114.5,439.7,114.5z"/>
	<path d="M449.3,115.3v-1.1l0,0c-0.5,0.9-1.2,1.3-2.4,1.3c-1.1,0-2.4-0.5-2.4-2.3v-5.4h1.3v4.9c0,1.2,0.6,1.6,1.4,1.6
		c1.6,0,2.1-1.4,2.1-2.5v-4.1h1.3v7.5H449.3z"/>
	<path d="M453.9,108.9v4.8c0,0.6,0.5,0.6,0.8,0.6h0.4v1c-0.5,0-0.8,0.1-0.9,0.1c-1.2,0-1.5-0.7-1.5-1.6v-4.9h-1v-1h1v-2.1h1.3v2.1
		h1.2v1H453.9z"/>
	<path d="M459.3,105.1h8.3v1.2h-3.5v9h-1.4v-9h-3.5V105.1z"/>
	<path d="M467.1,110.1c0.1-1.8,1.2-2.5,3.1-2.5c0.6,0,2.8,0.2,2.8,2.1v4.3c0,0.3,0.2,0.4,0.4,0.4c0.1,0,0.3,0,0.4-0.1v0.9
		c-0.2,0.1-0.4,0.1-0.7,0.1c-1.1,0-1.3-0.6-1.3-1.1c-0.5,0.5-1.2,1.2-2.7,1.2c-1.4,0-2.3-0.9-2.3-2.2c0-0.6,0.2-2.1,2.3-2.3l2.1-0.3
		c0.3,0,0.7-0.1,0.7-0.9c0-0.8-0.6-1.2-1.8-1.2c-1.4,0-1.6,0.9-1.7,1.4H467.1z M471.7,111.5c-0.2,0.2-0.5,0.3-2.1,0.5
		c-0.6,0.1-1.6,0.3-1.6,1.2c0,0.8,0.4,1.3,1.4,1.3c1.2,0,2.3-0.8,2.3-1.8V111.5z"/>
	<path d="M475,115.3v-10.2h1.3v3.7h0c0.5-0.8,1.3-1.1,2.2-1.2c2,0,3.1,1.6,3.1,3.7c0,1.8-0.7,4.2-3.3,4.2c-1.3,0-1.8-0.7-2.1-1.1h0
		v0.9H475z M478.2,108.8c-1.8,0-2,2-2,3.2c0,2,1.2,2.5,2,2.5c1.4,0,2-1.2,2-2.9C480.2,110.6,480.1,108.8,478.2,108.8z"/>
	<path d="M484.3,115.3H483v-10.2h1.3V115.3z"/>
	<path d="M492.5,113c0,0.4-0.4,1.4-1.3,2c-0.3,0.2-0.8,0.5-2,0.5c-2.1,0-3.3-1.6-3.3-3.7c0-2.3,1.1-4.1,3.6-4.1
		c2.2,0,3.2,1.7,3.2,4.3h-5.4c0,1.6,0.7,2.5,2.2,2.5c1.2,0,1.9-0.9,1.9-1.5H492.5z M491.3,111c-0.1-1.2-0.6-2.2-2.1-2.2
		c-1.2,0-2.1,1.1-2.1,2.2H491.3z"/>
</g>
<g>
	<g>
		<polyline fill="none" stroke="#5F6062" stroke-width="0.5" stroke-miterlimit="10" points="136.1,28.4 211.3,28.4 211.3,78.7 		
			"/>
		<g>
			<polygon fill="#5F6062" points="211.3,82.2 209.3,77.2 211.3,78.4 213.3,77.2 			"/>
		</g>
	</g>
</g>
<g>
	<g>
		<polyline fill="none" stroke="#5F6062" stroke-width="0.5" stroke-miterlimit="10" points="136.1,197.1 211.3,197.1 211.3,143.7 
					"/>
		<g>
			<polygon fill="#5F6062" points="211.3,140.2 213.3,145.1 211.3,144 209.3,145.1 			"/>
		</g>
	</g>
</g>
<g>
	<g>
		<line fill="none" stroke="#5F6062" stroke-width="0.5" stroke-miterlimit="10" x1="336.4" y1="115.4" x2="387.5" y2="115.4"/>
		<g>
			<polygon fill="#5F6062" points="391.1,115.4 386.1,117.4 387.3,115.4 386.1,113.4 			"/>
		</g>
	</g>
</g>
<g>
	<g>
		<line fill="none" stroke="#5F6062" stroke-width="0.5" stroke-miterlimit="10" x1="137.2" y1="112.2" x2="188.3" y2="112.2"/>
		<g>
			<polygon fill="#5F6062" points="191.8,112.2 186.9,114.2 188,112.2 186.9,110.2 			"/>
		</g>
	</g>
</g>
<rect fill="#DBDCE0" width="136.1" height="56.8"/>
<g>
	<rect x="8.1" y="14.9" fill="none" width="121.4" height="30.1"/>
	<path d="M31,14.9h8.3v1.2h-3.5v9h-1.4v-9H31V14.9z"/>
	<path d="M40.4,16.4v-1.4h1.3v1.4H40.4z M41.7,25.2h-1.3v-7.5h1.3V25.2z"/>
	<path d="M43.6,17.7h1.2v1.1h0c0.3-0.4,0.9-1.3,2.3-1.3c1.3,0,1.8,0.8,2,1.2c0.6-0.7,1.1-1.2,2.3-1.2c0.8,0,2.3,0.4,2.3,2.5v5.2
		h-1.3v-4.8c0-1-0.3-1.7-1.4-1.7c-1.1,0-1.8,1-1.8,2v4.5H48V20c0-0.6-0.2-1.4-1.2-1.4c-0.7,0-2,0.5-2,2.5v4.1h-1.3V17.7z"/>
	<path d="M61.8,22.8c0,0.4-0.4,1.4-1.3,2c-0.3,0.2-0.8,0.5-2,0.5c-2.1,0-3.3-1.6-3.3-3.7c0-2.3,1.1-4.1,3.6-4.1
		c2.2,0,3.2,1.7,3.2,4.3h-5.4c0,1.6,0.7,2.5,2.2,2.5c1.2,0,1.9-0.9,1.9-1.5H61.8z M60.6,20.8c-0.1-1.2-0.6-2.2-2.1-2.2
		c-1.2,0-2.1,1.1-2.1,2.2H60.6z"/>
	<path d="M73.7,17.9c-0.1-1.6-1.4-2.1-2.5-2.1c-0.9,0-2.3,0.2-2.3,1.8c0,0.9,0.6,1.2,1.2,1.3l2.9,0.7c1.3,0.3,2.3,1.1,2.3,2.7
		c0,2.4-2.3,3.1-4,3.1c-1.9,0-2.6-0.6-3.1-1c-0.9-0.8-1-1.6-1-2.6h1.3c0,1.9,1.5,2.4,2.8,2.4c1,0,2.7-0.3,2.7-1.7
		c0-1.1-0.5-1.4-2.2-1.8l-2.1-0.5c-0.7-0.2-2.2-0.6-2.2-2.4c0-1.6,1-3.2,3.5-3.2c3.6,0,3.9,2.1,4,3.3H73.7z"/>
	<path d="M83.2,22.8c0,0.4-0.4,1.4-1.3,2c-0.3,0.2-0.8,0.5-2,0.5c-2.1,0-3.3-1.6-3.3-3.7c0-2.3,1.1-4.1,3.6-4.1
		c2.2,0,3.2,1.7,3.2,4.3h-5.4c0,1.6,0.7,2.5,2.2,2.5c1.2,0,1.9-0.9,1.9-1.5H83.2z M82,20.8c-0.1-1.2-0.6-2.2-2.1-2.2
		c-1.2,0-2.1,1.1-2.1,2.2H82z"/>
	<path d="M86.2,25.2h-1.3v-7.5h1.2v1.2h0c0.5-0.9,1.2-1.5,2.1-1.5c0.2,0,0.2,0,0.3,0v1.3h-0.5c-1.2,0-1.9,0.9-1.9,2V25.2z"/>
	<path d="M89.5,16.4v-1.4h1.3v1.4H89.5z M90.8,25.2h-1.3v-7.5h1.3V25.2z"/>
	<path d="M99,22.8c0,0.4-0.4,1.4-1.3,2c-0.3,0.2-0.8,0.5-2,0.5c-2.1,0-3.3-1.6-3.3-3.7c0-2.3,1.1-4.1,3.6-4.1c2.2,0,3.2,1.7,3.2,4.3
		h-5.4c0,1.6,0.7,2.5,2.2,2.5c1.2,0,1.9-0.9,1.9-1.5H99z M97.8,20.8c-0.1-1.2-0.6-2.2-2.1-2.2c-1.2,0-2.1,1.1-2.1,2.2H97.8z"/>
	<path d="M104.8,19.8c0-0.5-0.2-1.3-1.8-1.3c-0.4,0-1.5,0.1-1.5,1.1c0,0.6,0.4,0.8,1.4,1l1.3,0.3c1.6,0.4,2.1,1,2.1,2
		c0,1.5-1.3,2.5-3,2.5c-3,0-3.2-1.7-3.2-2.6h1.2c0,0.6,0.2,1.5,2,1.5c0.9,0,1.7-0.4,1.7-1.2c0-0.6-0.4-0.8-1.5-1.1l-1.5-0.4
		c-1-0.3-1.7-0.8-1.7-1.8c0-1.6,1.4-2.4,2.8-2.4c2.7,0,2.9,2,2.9,2.3H104.8z"/>
	<path d="M51.2,32h8.3v1.2H56v9h-1.4v-9h-3.5V32z"/>
	<path d="M60.5,37.1c0.1-1.8,1.2-2.5,3.1-2.5c0.6,0,2.8,0.2,2.8,2.1V41c0,0.3,0.2,0.4,0.4,0.4c0.1,0,0.3,0,0.4-0.1v0.9
		c-0.2,0.1-0.4,0.1-0.7,0.1c-1.1,0-1.3-0.6-1.3-1.1c-0.5,0.5-1.2,1.2-2.7,1.2c-1.4,0-2.3-0.9-2.3-2.2c0-0.6,0.2-2.1,2.3-2.3l2.1-0.3
		c0.3,0,0.7-0.1,0.7-0.9c0-0.8-0.6-1.2-1.8-1.2c-1.4,0-1.6,0.9-1.7,1.4H60.5z M65.1,38.4c-0.2,0.2-0.5,0.3-2.1,0.5
		c-0.6,0.1-1.6,0.3-1.6,1.2c0,0.8,0.4,1.3,1.4,1.3c1.2,0,2.3-0.8,2.3-1.8V38.4z"/>
	<path d="M68.4,42.3V32h1.3v3.7h0c0.5-0.8,1.3-1.1,2.2-1.2c2,0,3.1,1.6,3.1,3.7c0,1.8-0.7,4.2-3.3,4.2c-1.3,0-1.8-0.7-2.1-1.1h0v0.9
		H68.4z M71.6,35.7c-1.8,0-2,2-2,3.2c0,2,1.2,2.5,2,2.5c1.4,0,2-1.2,2-2.9C73.7,37.6,73.6,35.7,71.6,35.7z"/>
	<path d="M77.7,42.3h-1.3V32h1.3V42.3z"/>
	<path d="M85.9,39.9c0,0.4-0.4,1.4-1.3,2c-0.3,0.2-0.8,0.5-2,0.5c-2.1,0-3.3-1.6-3.3-3.7c0-2.3,1.1-4.1,3.6-4.1
		c2.2,0,3.2,1.7,3.2,4.3h-5.4c0,1.6,0.7,2.5,2.2,2.5c1.2,0,1.9-0.9,1.9-1.5H85.9z M84.7,37.9c-0.1-1.2-0.6-2.2-2.1-2.2
		c-1.2,0-2.1,1.1-2.1,2.2H84.7z"/>
</g>
<rect x="0.7" y="83.1" fill="#DBDCE0" width="136.1" height="56.8"/>
<g>
	<rect x="8.8" y="98" fill="none" width="121.4" height="30.1"/>
	<path d="M40,98h8.3v1.2h-3.5v9h-1.4v-9H40V98z"/>
	<path d="M55.8,105.9c0,0.4-0.4,1.4-1.3,2c-0.3,0.2-0.8,0.5-2,0.5c-2.1,0-3.3-1.6-3.3-3.7c0-2.3,1.1-4.1,3.6-4.1
		c2.2,0,3.2,1.7,3.2,4.3h-5.4c0,1.6,0.7,2.5,2.2,2.5c1.2,0,1.9-0.9,1.9-1.5H55.8z M54.6,103.9c-0.1-1.2-0.6-2.2-2.1-2.2
		c-1.2,0-2.1,1.1-2.1,2.2H54.6z"/>
	<path d="M57.4,100.8h1.2v1.1h0c0.3-0.4,0.9-1.3,2.3-1.3c1.3,0,1.8,0.8,2,1.2c0.6-0.7,1.1-1.2,2.3-1.2c0.8,0,2.3,0.4,2.3,2.5v5.2
		h-1.3v-4.8c0-1-0.3-1.7-1.4-1.7c-1.1,0-1.8,1-1.8,2v4.5h-1.3v-5.2c0-0.6-0.2-1.4-1.2-1.4c-0.7,0-2,0.5-2,2.5v4.1h-1.3V100.8z"/>
	<path d="M69.1,100.8h1.2v1.1h0c0.3-0.4,0.9-1.3,2.2-1.3c2,0,3.1,1.6,3.1,3.7c0,1.8-0.7,4.2-3.3,4.2c-1,0-1.7-0.5-2-1h0v3.7h-1.3
		V100.8z M72.4,107.4c1.4,0,2-1.2,2-2.9c0-1-0.1-2.8-2-2.8c-1.8,0-2,2-2,3.2C70.3,106.8,71.6,107.4,72.4,107.4z"/>
	<path d="M78.4,108.2h-1.3V98h1.3V108.2z"/>
	<path d="M80.3,103c0.1-1.8,1.2-2.5,3.1-2.5c0.6,0,2.8,0.2,2.8,2.1v4.3c0,0.3,0.2,0.4,0.4,0.4c0.1,0,0.3,0,0.4-0.1v0.9
		c-0.2,0.1-0.4,0.1-0.7,0.1c-1.1,0-1.3-0.6-1.3-1.1c-0.5,0.5-1.2,1.2-2.7,1.2c-1.4,0-2.3-0.9-2.3-2.2c0-0.6,0.2-2.1,2.3-2.3l2.1-0.3
		c0.3,0,0.7-0.1,0.7-0.9c0-0.8-0.6-1.2-1.8-1.2c-1.4,0-1.6,0.9-1.7,1.4H80.3z M84.8,104.4c-0.2,0.2-0.5,0.3-2.1,0.5
		c-0.6,0.1-1.6,0.3-1.6,1.2c0,0.8,0.4,1.3,1.4,1.3c1.2,0,2.3-0.8,2.3-1.8V104.4z"/>
	<path d="M89.8,101.8v4.8c0,0.6,0.5,0.6,0.8,0.6H91v1c-0.5,0-0.8,0.1-0.9,0.1c-1.2,0-1.5-0.7-1.5-1.6v-4.9h-1v-1h1v-2.1h1.3v2.1H91
		v1H89.8z"/>
	<path d="M98.5,105.9c0,0.4-0.4,1.4-1.3,2c-0.3,0.2-0.8,0.5-2,0.5c-2.1,0-3.3-1.6-3.3-3.7c0-2.3,1.1-4.1,3.6-4.1
		c2.2,0,3.2,1.7,3.2,4.3h-5.4c0,1.6,0.7,2.5,2.2,2.5c1.2,0,1.9-0.9,1.9-1.5H98.5z M97.3,103.9c-0.1-1.2-0.6-2.2-2.1-2.2
		c-1.2,0-2.1,1.1-2.1,2.2H97.3z"/>
	<path d="M51.9,115.1h8.3v1.2h-3.5v9h-1.4v-9h-3.5V115.1z"/>
	<path d="M61.3,120.1c0.1-1.8,1.2-2.5,3.1-2.5c0.6,0,2.8,0.2,2.8,2.1v4.3c0,0.3,0.2,0.4,0.4,0.4c0.1,0,0.3,0,0.4-0.1v0.9
		c-0.2,0.1-0.4,0.1-0.7,0.1c-1.1,0-1.3-0.6-1.3-1.1c-0.5,0.5-1.2,1.2-2.7,1.2c-1.4,0-2.3-0.9-2.3-2.2c0-0.6,0.2-2.1,2.3-2.3l2.1-0.3
		c0.3,0,0.7-0.1,0.7-0.9c0-0.8-0.6-1.2-1.8-1.2c-1.4,0-1.6,0.9-1.7,1.4H61.3z M65.9,121.5c-0.2,0.2-0.5,0.3-2.1,0.5
		c-0.6,0.1-1.6,0.3-1.6,1.2c0,0.8,0.4,1.3,1.4,1.3c1.2,0,2.3-0.8,2.3-1.8V121.5z"/>
	<path d="M69.1,125.3v-10.2h1.3v3.7h0c0.5-0.8,1.3-1.1,2.2-1.2c2,0,3.1,1.6,3.1,3.7c0,1.8-0.7,4.2-3.3,4.2c-1.3,0-1.8-0.7-2.1-1.1h0
		v0.9H69.1z M72.3,118.8c-1.8,0-2,2-2,3.2c0,2,1.2,2.5,2,2.5c1.4,0,2-1.2,2-2.9C74.4,120.6,74.3,118.8,72.3,118.8z"/>
	<path d="M78.4,125.3h-1.3v-10.2h1.3V125.3z"/>
	<path d="M86.6,123c0,0.4-0.4,1.4-1.3,2c-0.3,0.2-0.8,0.5-2,0.5c-2.1,0-3.3-1.6-3.3-3.7c0-2.3,1.1-4.1,3.6-4.1
		c2.2,0,3.2,1.7,3.2,4.3h-5.4c0,1.6,0.7,2.5,2.2,2.5c1.2,0,1.9-0.9,1.9-1.5H86.6z M85.4,121c-0.1-1.2-0.6-2.2-2.1-2.2
		c-1.2,0-2.1,1.1-2.1,2.2H85.4z"/>
</g>
<rect x="1.4" y="168.8" fill="#DBDCE0" width="136.1" height="56.8"/>
<g>
	<rect x="9.5" y="183.7" fill="none" width="121.4" height="30.1"/>
	<path d="M52.4,193.9v-6c0-0.3,0-1.6,0-2.6h0l-2.9,8.6h-1.4l-2.9-8.6h0c0,0.9,0,2.2,0,2.5v6h-1.3v-10.2h2l2.9,8.7h0l2.9-8.7h2v10.2
		H52.4z"/>
	<path d="M55.6,188.7c0.1-1.8,1.2-2.5,3.1-2.5c0.6,0,2.8,0.2,2.8,2.1v4.3c0,0.3,0.2,0.4,0.4,0.4c0.1,0,0.3,0,0.4-0.1v0.9
		c-0.2,0.1-0.4,0.1-0.7,0.1c-1.1,0-1.3-0.6-1.3-1.1c-0.5,0.5-1.2,1.2-2.7,1.2c-1.4,0-2.3-0.9-2.3-2.2c0-0.6,0.2-2.1,2.3-2.3l2.1-0.3
		c0.3,0,0.7-0.1,0.7-0.9c0-0.8-0.6-1.2-1.8-1.2c-1.4,0-1.6,0.9-1.7,1.4H55.6z M60.2,190.1c-0.2,0.2-0.5,0.3-2.1,0.5
		c-0.6,0.1-1.6,0.3-1.6,1.2c0,0.8,0.4,1.3,1.4,1.3c1.2,0,2.3-0.8,2.3-1.8V190.1z"/>
	<path d="M63.5,186.5h1.2v1.1h0c0.3-0.4,0.9-1.3,2.2-1.3c2,0,3.1,1.6,3.1,3.7c0,1.8-0.7,4.2-3.3,4.2c-1,0-1.7-0.5-2-1h0v3.7h-1.3
		V186.5z M66.7,193c1.4,0,2-1.2,2-2.9c0-1-0.1-2.8-2-2.8c-1.8,0-2,2-2,3.2C64.7,192.5,65.9,193,66.7,193z"/>
	<path d="M71.4,186.5h1.2v1.1h0c0.3-0.4,0.9-1.3,2.2-1.3c2,0,3.1,1.6,3.1,3.7c0,1.8-0.7,4.2-3.3,4.2c-1,0-1.7-0.5-2-1h0v3.7h-1.3
		V186.5z M74.7,193c1.4,0,2-1.2,2-2.9c0-1-0.1-2.8-2-2.8c-1.8,0-2,2-2,3.2C72.6,192.5,73.9,193,74.7,193z"/>
	<path d="M79.5,185.1v-1.4h1.3v1.4H79.5z M80.7,193.9h-1.3v-7.5h1.3V193.9z"/>
	<path d="M88.7,193.9h-1.3v-4.6c0-1.3-0.4-2-1.6-2c-0.7,0-2,0.5-2,2.5v4.1h-1.3v-7.5h1.2v1.1h0c0.3-0.4,1-1.3,2.3-1.3
		c1.2,0,2.6,0.5,2.6,2.6V193.9z"/>
	<path d="M96.7,193.3c0,1.1,0,3.7-3.5,3.7c-0.9,0-2.6-0.2-2.9-2.2h1.3c0.2,1.2,1.4,1.2,1.7,1.2c2.2,0,2.1-1.7,2.1-2.6v-0.3h0v0.1
		c-0.3,0.5-1,1-2,1c-2.5,0-3.3-2.4-3.3-4.2c0-2.1,1.1-3.7,3.1-3.7c1.4,0,1.9,0.8,2.2,1.3h0v-1.1h1.2V193.3z M93.5,193
		c0.8,0,2-0.5,2-2.5c0-1.2-0.2-3.2-2-3.2c-1.9,0-2,1.8-2,2.8C91.5,191.8,92.1,193,93.5,193z"/>
	<path d="M52.6,200.8h8.3v1.2h-3.5v9H56v-9h-3.5V200.8z"/>
	<path d="M62,205.8c0.1-1.8,1.2-2.5,3.1-2.5c0.6,0,2.8,0.2,2.8,2.1v4.3c0,0.3,0.2,0.4,0.4,0.4c0.1,0,0.3,0,0.4-0.1v0.9
		c-0.2,0.1-0.4,0.1-0.7,0.1c-1.1,0-1.3-0.6-1.3-1.1c-0.5,0.5-1.2,1.2-2.7,1.2c-1.4,0-2.3-0.9-2.3-2.2c0-0.6,0.2-2.1,2.3-2.3l2.1-0.3
		c0.3,0,0.7-0.1,0.7-0.9c0-0.8-0.6-1.2-1.8-1.2c-1.4,0-1.6,0.9-1.7,1.4H62z M66.6,207.2c-0.2,0.2-0.5,0.3-2.1,0.5
		c-0.6,0.1-1.6,0.3-1.6,1.2c0,0.8,0.4,1.3,1.4,1.3c1.2,0,2.3-0.8,2.3-1.8V207.2z"/>
	<path d="M69.8,211v-10.2h1.3v3.7h0c0.5-0.8,1.3-1.1,2.2-1.2c2,0,3.1,1.6,3.1,3.7c0,1.8-0.7,4.2-3.3,4.2c-1.3,0-1.8-0.7-2.1-1.1h0
		v0.9H69.8z M73,204.5c-1.8,0-2,2-2,3.2c0,2,1.2,2.5,2,2.5c1.4,0,2-1.2,2-2.9C75.1,206.3,75,204.5,73,204.5z"/>
	<path d="M79.1,211h-1.3v-10.2h1.3V211z"/>
	<path d="M87.3,208.7c0,0.4-0.4,1.4-1.3,2c-0.3,0.2-0.8,0.5-2,0.5c-2.1,0-3.3-1.6-3.3-3.7c0-2.3,1.1-4.1,3.6-4.1
		c2.2,0,3.2,1.7,3.2,4.3H82c0,1.6,0.7,2.5,2.2,2.5c1.2,0,1.9-0.9,1.9-1.5H87.3z M86.2,206.7c-0.1-1.2-0.6-2.2-2.1-2.2
		c-1.2,0-2.1,1.1-2.1,2.2H86.2z"/>
</g>
<g>
</g>
<g>
</g>
<g>
</g>
<g>
</g>
<g>
</g>
<g>
</g>
<g>
</g>
</svg>
