<?xml version="1.0" encoding="utf-8"?>
<!-- Generator: Adobe Illustrator 22.1.0, SVG Export Plug-In . SVG Version: 6.00 Build 0)  -->
<svg version="1.1" id="Layer_1" xmlns="http://www.w3.org/2000/svg" xmlns:xlink="http://www.w3.org/1999/xlink" x="0px" y="0px"
	 width="501px" height="157.7px" viewBox="0 0 501 157.7" enable-background="new 0 0 501 157.7" xml:space="preserve">
<rect x="182.1" y="51.8" fill="#EC881D" width="135" height="54"/>
<g>
	<path d="M192.7,75.2h2.2c1.2,5.3,1.4,6,1.5,7.1h0c0.2-1,0.3-2,1.4-7.1h2.1c1.1,5.3,1.2,5.8,1.4,7.1h0c0.2-0.9,0.3-1.8,1.6-7.1h2.1
		l-2.7,9.7h-1.9c-1-4.8-1.2-5.7-1.5-7.6h0c-0.3,1.9-0.5,2.6-1.5,7.6h-1.9L192.7,75.2z"/>
	<path d="M207.7,81.9c0,0.5,0.3,1.6,2.1,1.6c1,0,2-0.2,2-1.3c0-0.8-0.7-1-1.8-1.2l-1-0.2c-1.6-0.4-3.1-0.7-3.1-2.8
		c0-1.1,0.6-3,3.7-3c3,0,3.8,1.9,3.8,3.1h-1.9c-0.1-0.4-0.2-1.5-2-1.5c-0.8,0-1.7,0.3-1.7,1.2c0,0.8,0.6,0.9,1,1l2.4,0.6
		c1.3,0.3,2.5,0.9,2.5,2.6c0,2.9-3,3.2-3.8,3.2c-3.5,0-4.1-2-4.1-3.2H207.7z"/>
	<path d="M215.2,75.2h4.9c2.6,0,3.1,1.9,3.1,2.7c0,1.1-0.5,2-1.5,2.3c0.8,0.4,1.2,0.6,1.2,2.5c0,1.4,0,1.8,0.4,1.9v0.3h-2.2
		c-0.1-0.5-0.2-1-0.2-2c0-1.3-0.1-1.8-1.6-1.8h-2.1v3.8h-2V75.2z M219.6,79.4c1.1,0,1.6-0.4,1.6-1.3c0-0.5-0.2-1.3-1.4-1.3h-2.5v2.6
		H219.6z"/>
	<path d="M231,82.8c-0.5,1.7-1.9,2.3-3.2,2.3c-2,0-3.6-1-3.6-3.9c0-0.9,0.3-3.6,3.4-3.6c1.4,0,3.4,0.7,3.4,4v0.3h-4.9
		c0.1,0.5,0.2,1.8,1.7,1.8c0.5,0,1.1-0.3,1.2-0.8H231z M229.2,80.6c-0.1-1.2-0.9-1.5-1.5-1.5c-0.9,0-1.4,0.6-1.5,1.5H229.2z"/>
	<path d="M238.5,82.3c-0.1,0.7-0.6,2.8-3.3,2.8c-2.7,0-3.3-2.1-3.3-3.6c0-2.3,1-4,3.4-4c1.1,0,3,0.5,3.2,2.8h-1.9
		c-0.1-0.5-0.4-1.2-1.3-1.2c-1.2,0-1.5,1.2-1.5,2.1c0,0.8,0,2.3,1.5,2.3c1,0,1.3-0.9,1.3-1.3H238.5z"/>
	<path d="M243.1,85.1c-1.9,0-3.7-1.2-3.7-3.8s1.7-3.8,3.7-3.8c1.9,0,3.7,1.2,3.7,3.8S245,85.1,243.1,85.1z M243.1,79.1
		c-1.5,0-1.7,1.3-1.7,2.2c0,0.9,0.3,2.2,1.7,2.2c1.5,0,1.7-1.3,1.7-2.2C244.8,80.4,244.6,79.1,243.1,79.1z"/>
	<path d="M258.4,84.9h-1.9v-4.4c0-1.1-0.5-1.4-1-1.4c-0.9,0-1.3,0.6-1.3,1.5v4.3h-1.9v-4.3c0-0.6,0-1.5-1.1-1.5
		c-0.9,0-1.2,0.6-1.2,1.4v4.4h-1.9v-7.2h1.8v1.1h0c0.2-0.5,0.8-1.2,2-1.2c1,0,1.5,0.4,2,1.1c0.2-0.4,0.8-1.1,1.9-1.1
		c1.4,0,2.5,0.8,2.5,2.4V84.9z"/>
	<path d="M270.4,84.9h-1.9v-4.4c0-1.1-0.5-1.4-1-1.4c-0.9,0-1.3,0.6-1.3,1.5v4.3h-1.9v-4.3c0-0.6,0-1.5-1.1-1.5
		c-0.9,0-1.2,0.6-1.2,1.4v4.4h-1.9v-7.2h1.8v1.1h0c0.2-0.5,0.8-1.2,2-1.2c1,0,1.5,0.4,2,1.1c0.2-0.4,0.8-1.1,1.9-1.1
		c1.4,0,2.5,0.8,2.5,2.4V84.9z"/>
	<path d="M278.3,82.8c-0.5,1.7-1.9,2.3-3.2,2.3c-2,0-3.6-1-3.6-3.9c0-0.9,0.3-3.6,3.4-3.6c1.4,0,3.4,0.7,3.4,4v0.3h-4.9
		c0.1,0.5,0.2,1.8,1.7,1.8c0.5,0,1.1-0.3,1.2-0.8H278.3z M276.4,80.6c-0.1-1.2-0.9-1.5-1.5-1.5c-0.9,0-1.4,0.6-1.5,1.5H276.4z"/>
	<path d="M286.1,84.9h-1.9v-4.4c0-0.5,0-1.4-1.2-1.4c-0.8,0-1.5,0.6-1.5,1.7v4.1h-1.9v-7.2h1.8v1.1h0c0.3-0.4,0.8-1.2,2.2-1.2
		c1.4,0,2.5,0.8,2.5,2.4V84.9z"/>
	<path d="M294.4,84.9h-1.8V84h0c-0.5,0.8-1.3,1.1-2.1,1.1c-2.1,0-3-1.9-3-3.9c0-2.5,1.4-3.7,3-3.7c1.2,0,1.8,0.7,2.1,1.1h0v-3.4h1.9
		V84.9z M290.9,83.5c1.2,0,1.7-1,1.7-2.1c0-1.1-0.3-2.3-1.6-2.3c-1.2,0-1.6,1.1-1.6,2.2C289.4,82.2,289.7,83.5,290.9,83.5z"/>
	<path d="M302.3,82.8c-0.5,1.7-1.9,2.3-3.2,2.3c-2,0-3.6-1-3.6-3.9c0-0.9,0.3-3.6,3.4-3.6c1.4,0,3.4,0.7,3.4,4v0.3h-4.9
		c0.1,0.5,0.2,1.8,1.7,1.8c0.5,0,1.1-0.3,1.2-0.8H302.3z M300.4,80.6c-0.1-1.2-0.9-1.5-1.5-1.5c-0.9,0-1.4,0.6-1.5,1.5H300.4z"/>
	<path d="M303.6,77.7h1.8v1.2h0c0.4-0.7,0.8-1.4,2-1.4c0.1,0,0.2,0,0.4,0v1.9c-0.2,0-0.4,0-0.5,0c-1.5,0-1.7,0.9-1.7,1.7v3.7h-1.9
		V77.7z"/>
</g>
<rect x="369.3" y="50.5" fill="#BADBF3" width="131.7" height="54.8"/>
<g>
	<rect x="377.6" y="71.9" fill="none" width="115" height="13.5"/>
	<path d="M402.2,81.9c-3.6,0-4.7-3-4.7-5.1c0-2.1,1.1-5.1,4.7-5.1s4.7,3,4.7,5.1C407,78.9,405.9,81.9,402.2,81.9z M402.2,72.8
		c-2.1,0-3.4,1.7-3.4,3.9s1.3,3.9,3.4,3.9s3.4-1.7,3.4-3.9S404.3,72.8,402.2,72.8z"/>
	<path d="M413,81.6v-1l0,0c-0.5,0.8-1.1,1.3-2.2,1.3c-1,0-2.3-0.5-2.3-2.2v-5.1h1.2v4.7c0,1.2,0.6,1.6,1.4,1.6
		c1.5,0,1.9-1.3,1.9-2.3v-3.9h1.2v7.1H413z"/>
	<path d="M417.3,75.6v4.6c0,0.6,0.5,0.6,0.7,0.6h0.4v0.9c-0.4,0-0.8,0.1-0.9,0.1c-1.2,0-1.4-0.7-1.4-1.5v-4.7h-1v-1h1v-2h1.2v2h1.1
		v1H417.3z"/>
	<path d="M419.5,74.6h1.1v1h0c0.3-0.4,0.8-1.2,2.1-1.2c1.9,0,2.9,1.5,2.9,3.5c0,1.7-0.7,3.9-3.1,3.9c-0.9,0-1.6-0.4-1.9-0.9h0v3.5
		h-1.2V74.6z M422.6,80.8c1.3,0,1.9-1.2,1.9-2.7c0-0.9-0.1-2.6-1.9-2.6c-1.7,0-1.9,1.9-1.9,3C420.7,80.3,421.8,80.8,422.6,80.8z"/>
	<path d="M431.7,81.6v-1l0,0c-0.5,0.8-1.1,1.3-2.2,1.3c-1,0-2.3-0.5-2.3-2.2v-5.1h1.2v4.7c0,1.2,0.6,1.6,1.4,1.6
		c1.5,0,1.9-1.3,1.9-2.3v-3.9h1.2v7.1H431.7z"/>
	<path d="M436.1,75.6v4.6c0,0.6,0.5,0.6,0.7,0.6h0.4v0.9c-0.4,0-0.8,0.1-0.9,0.1c-1.2,0-1.4-0.7-1.4-1.5v-4.7h-1v-1h1v-2h1.2v2h1.1
		v1H436.1z"/>
	<path d="M441.2,71.9h7.9v1.2h-3.3v8.5h-1.3v-8.5h-3.3V71.9z"/>
	<path d="M448.6,76.7c0.1-1.7,1.2-2.3,2.9-2.3c0.6,0,2.6,0.2,2.6,2v4.1c0,0.3,0.1,0.4,0.4,0.4c0.1,0,0.3,0,0.4-0.1v0.9
		c-0.2,0.1-0.4,0.1-0.6,0.1c-1.1,0-1.2-0.5-1.3-1.1c-0.5,0.5-1.2,1.1-2.6,1.1c-1.3,0-2.2-0.8-2.2-2c0-0.6,0.2-2,2.1-2.2l2-0.2
		c0.3,0,0.6-0.1,0.6-0.8c0-0.7-0.5-1.1-1.7-1.1c-1.4,0-1.5,0.8-1.6,1.4H448.6z M453,78c-0.2,0.1-0.5,0.3-2,0.4
		c-0.6,0.1-1.5,0.3-1.5,1.1c0,0.8,0.4,1.2,1.3,1.2c1.1,0,2.2-0.7,2.2-1.7V78z"/>
	<path d="M456.1,81.6v-9.7h1.2v3.5h0c0.5-0.7,1.2-1.1,2-1.1c1.9,0,2.9,1.5,2.9,3.5c0,1.7-0.7,3.9-3.1,3.9c-1.2,0-1.7-0.7-1.9-1.1h0
		v0.9H456.1z M459.1,75.4c-1.7,0-1.9,1.9-1.9,3c0,1.9,1.2,2.4,1.9,2.4c1.3,0,1.9-1.2,1.9-2.7C461,77.2,460.9,75.4,459.1,75.4z"/>
	<path d="M464.9,81.6h-1.2v-9.7h1.2V81.6z"/>
	<path d="M472.7,79.4c0,0.3-0.4,1.3-1.3,1.9c-0.3,0.2-0.8,0.5-1.9,0.5c-2,0-3.2-1.5-3.2-3.5c0-2.2,1.1-3.9,3.4-3.9c2,0,3,1.6,3,4.1
		h-5.2c0,1.5,0.7,2.3,2.1,2.3c1.1,0,1.8-0.9,1.8-1.4H472.7z M471.5,77.5c-0.1-1.1-0.5-2.1-2-2.1c-1.1,0-2,1-2,2.1H471.5z"/>
</g>
<g>
	<g>
		<line fill="none" stroke="#5F6062" stroke-width="0.5" stroke-miterlimit="10" x1="365.1" y1="78" x2="316.9" y2="78"/>
		<g>
			<polygon fill="#5F6062" points="368.6,78 363.7,76 364.8,78 363.7,80.1 			"/>
		</g>
	</g>
</g>
<rect fill="#DBDCE0" width="129" height="53.8"/>
<g>
	<rect x="7.7" y="21.6" fill="none" width="115" height="28.5"/>
	<path d="M36.8,31.3h-1.3v-9.7h1.3V31.3z"/>
	<path d="M40.3,25.3v4.6c0,0.6,0.5,0.6,0.7,0.6h0.4v0.9c-0.4,0-0.8,0.1-0.9,0.1c-1.2,0-1.4-0.7-1.4-1.5v-4.7h-1v-1h1v-2h1.2v2h1.1v1
		H40.3z"/>
	<path d="M48.6,29.1c0,0.3-0.4,1.3-1.3,1.9c-0.3,0.2-0.8,0.5-1.9,0.5c-2,0-3.2-1.5-3.2-3.5c0-2.2,1.1-3.9,3.4-3.9c2,0,3,1.6,3,4.1
		h-5.2c0,1.5,0.7,2.3,2.1,2.3c1.1,0,1.8-0.9,1.8-1.4H48.6z M47.5,27.3c-0.1-1.1-0.5-2.1-2-2.1c-1.1,0-2,1-2,2.1H47.5z"/>
	<path d="M50.1,24.3h1.1v1h0c0.3-0.4,0.9-1.2,2.1-1.2s1.7,0.8,1.9,1.1c0.6-0.7,1.1-1.1,2.2-1.1c0.8,0,2.2,0.4,2.2,2.4v4.9h-1.2v-4.6
		c0-1-0.3-1.6-1.3-1.6c-1,0-1.7,0.9-1.7,1.9v4.3h-1.2v-4.9c0-0.6-0.2-1.3-1.1-1.3c-0.7,0-1.9,0.4-1.9,2.3v3.8h-1.2V24.3z"/>
	<path d="M64.4,21.6h7.9v1.2H69v8.5h-1.3v-8.5h-3.3V21.6z"/>
	<path d="M71.7,26.4c0.1-1.7,1.2-2.3,2.9-2.3c0.6,0,2.6,0.2,2.6,2v4.1c0,0.3,0.1,0.4,0.4,0.4c0.1,0,0.3,0,0.4-0.1v0.9
		c-0.2,0.1-0.4,0.1-0.6,0.1c-1.1,0-1.2-0.5-1.3-1.1c-0.5,0.5-1.2,1.1-2.6,1.1c-1.3,0-2.2-0.8-2.2-2c0-0.6,0.2-2,2.1-2.2l2-0.2
		c0.3,0,0.6-0.1,0.6-0.8c0-0.7-0.5-1.1-1.7-1.1c-1.4,0-1.5,0.8-1.6,1.4H71.7z M76.1,27.7c-0.2,0.1-0.5,0.3-2,0.4
		c-0.6,0.1-1.5,0.3-1.5,1.1c0,0.8,0.4,1.2,1.3,1.2c1.1,0,2.2-0.7,2.2-1.7V27.7z"/>
	<path d="M79.2,31.3v-9.7h1.2v3.5h0c0.5-0.7,1.2-1.1,2-1.1c1.9,0,2.9,1.5,2.9,3.5c0,1.7-0.7,3.9-3.1,3.9c-1.2,0-1.7-0.7-1.9-1.1h0
		v0.9H79.2z M82.2,25.1c-1.7,0-1.9,1.9-1.9,3c0,1.9,1.2,2.4,1.9,2.4c1.3,0,1.9-1.2,1.9-2.7C84.1,26.9,84,25.1,82.2,25.1z"/>
	<path d="M87.7,31.3h-1.2v-9.7h1.2V31.3z"/>
	<path d="M95.5,29.1c0,0.3-0.4,1.3-1.3,1.9c-0.3,0.2-0.8,0.5-1.9,0.5c-2,0-3.2-1.5-3.2-3.5c0-2.2,1.1-3.9,3.4-3.9c2,0,3,1.6,3,4.1
		h-5.2c0,1.5,0.7,2.3,2.1,2.3c1.1,0,1.8-0.9,1.8-1.4H95.5z M94.3,27.3c-0.1-1.1-0.5-2.1-2-2.1c-1.1,0-2,1-2,2.1H94.3z"/>
</g>
<rect y="103.9" fill="#DBDCE0" width="129" height="53.8"/>
<g>
	<g>
		<polyline fill="none" stroke="#5F6062" stroke-width="0.5" stroke-miterlimit="10" points="128.6,26.9 199.9,26.9 199.9,47.4 		
			"/>
		<g>
			<polygon fill="#5F6062" points="199.9,50.9 197.8,45.9 199.9,47.1 201.9,45.9 			"/>
		</g>
	</g>
</g>
<g>
	<g>
		<polyline fill="none" stroke="#5F6062" stroke-width="0.5" stroke-miterlimit="10" points="128.6,129.8 199.9,129.8 199.9,109.4 
					"/>
		<g>
			<polygon fill="#5F6062" points="199.9,105.8 201.9,110.8 199.9,109.6 197.8,110.8 			"/>
		</g>
	</g>
</g>
<g>
	<rect x="7" y="121" fill="none" width="115" height="28.5"/>
	<path d="M40.2,121v6.3c0,2-1.2,3.7-3.9,3.7c-2.6,0-3.7-1.7-3.7-3.5V121h1.3v6.1c0,2.1,1.3,2.7,2.5,2.7c1.2,0,2.6-0.6,2.6-2.7V121
		H40.2z"/>
	<path d="M46.1,125.7c0-0.4-0.2-1.2-1.7-1.2c-0.4,0-1.4,0.1-1.4,1c0,0.6,0.4,0.7,1.3,0.9l1.2,0.3c1.5,0.4,2,0.9,2,1.9
		c0,1.5-1.2,2.3-2.8,2.3c-2.8,0-3-1.6-3-2.5h1.1c0,0.6,0.2,1.4,1.9,1.4c0.9,0,1.6-0.3,1.6-1.1c0-0.6-0.4-0.8-1.4-1l-1.4-0.3
		c-1-0.2-1.6-0.7-1.6-1.7c0-1.6,1.3-2.3,2.7-2.3c2.5,0,2.7,1.9,2.7,2.2H46.1z"/>
	<path d="M54.9,128.5c0,0.3-0.4,1.3-1.3,1.9c-0.3,0.2-0.8,0.5-1.9,0.5c-2,0-3.2-1.5-3.2-3.5c0-2.2,1.1-3.9,3.4-3.9c2,0,3,1.6,3,4.1
		h-5.2c0,1.5,0.7,2.3,2.1,2.3c1.1,0,1.8-0.9,1.8-1.4H54.9z M53.7,126.6c-0.1-1.1-0.5-2.1-2-2.1c-1.1,0-2,1-2,2.1H53.7z"/>
	<path d="M57.7,130.7h-1.2v-7.1h1.1v1.2h0c0.5-0.8,1.1-1.4,2-1.4c0.1,0,0.2,0,0.3,0v1.2h-0.4c-1.1,0-1.8,0.9-1.8,1.9V130.7z"/>
	<path d="M63.9,121h7.9v1.2h-3.3v8.5h-1.3v-8.5h-3.3V121z"/>
	<path d="M72.8,125.8c0.1-1.7,1.2-2.4,2.9-2.4c0.6,0,2.6,0.2,2.6,2v4.1c0,0.3,0.1,0.4,0.4,0.4c0.1,0,0.3,0,0.4-0.1v0.9
		c-0.2,0.1-0.4,0.1-0.6,0.1c-1.1,0-1.2-0.5-1.3-1.1c-0.5,0.5-1.2,1.1-2.6,1.1c-1.3,0-2.2-0.8-2.2-2c0-0.6,0.2-2,2.1-2.2l2-0.2
		c0.3,0,0.6-0.1,0.6-0.8c0-0.7-0.5-1.1-1.7-1.1c-1.4,0-1.5,0.8-1.6,1.4H72.8z M77.2,127.1c-0.2,0.1-0.5,0.3-2,0.4
		c-0.6,0.1-1.5,0.3-1.5,1.1c0,0.8,0.4,1.2,1.3,1.2c1.1,0,2.2-0.7,2.2-1.7V127.1z"/>
	<path d="M80.3,130.7V121h1.2v3.5h0c0.5-0.7,1.2-1.1,2-1.1c1.9,0,2.9,1.5,2.9,3.5c0,1.7-0.7,3.9-3.1,3.9c-1.2,0-1.7-0.7-1.9-1.1h0
		v0.9H80.3z M83.3,124.5c-1.7,0-1.9,1.8-1.9,3c0,1.9,1.2,2.4,1.9,2.4c1.3,0,1.9-1.2,1.9-2.7C85.3,126.3,85.2,124.5,83.3,124.5z"/>
	<path d="M89.1,130.7h-1.2V121h1.2V130.7z"/>
	<path d="M96.9,128.5c0,0.3-0.4,1.3-1.3,1.9c-0.3,0.2-0.8,0.5-1.9,0.5c-2,0-3.2-1.5-3.2-3.5c0-2.2,1.1-3.9,3.4-3.9c2,0,3,1.6,3,4.1
		h-5.2c0,1.5,0.7,2.3,2.1,2.3c1.1,0,1.8-0.9,1.8-1.4H96.9z M95.7,126.6c-0.1-1.1-0.5-2.1-2-2.1c-1.1,0-2,1-2,2.1H95.7z"/>
</g>
<g>
</g>
<g>
</g>
<g>
</g>
<g>
</g>
<g>
</g>
<g>
</g>
<g>
</g>
</svg>
