<?xml version="1.0" encoding="utf-8"?>
<!-- Generator: Adobe Illustrator 22.1.0, SVG Export Plug-In . SVG Version: 6.00 Build 0)  -->
<svg version="1.1" id="Layer_1" xmlns="http://www.w3.org/2000/svg" xmlns:xlink="http://www.w3.org/1999/xlink" x="0px" y="0px"
	 width="503.9px" height="176.9px" viewBox="0 0 503.9 176.9" enable-background="new 0 0 503.9 176.9" xml:space="preserve">
<rect x="178.9" y="58.3" fill="#EC881D" width="148.7" height="59.5"/>
<g>
	<path d="M243.9,92.4h-2.1V81.8h2.1v5.8l2.6-3h2.6l-2.8,3.1l2.9,4.9h-2.5l-1.9-3.4l-0.9,0.9V92.4z"/>
	<path d="M257.2,92.4h-2.1v-4.8c0-0.6,0-1.6-1.4-1.6c-0.9,0-1.6,0.6-1.6,1.8v4.5H250v-7.9h2v1.2h0c0.3-0.5,0.9-1.4,2.4-1.4
		c1.5,0,2.8,0.9,2.8,2.6V92.4z"/>
	<path d="M266.3,92.4h-2.1v-4.8c0-0.6,0-1.6-1.4-1.6c-0.9,0-1.6,0.6-1.6,1.8v4.5h-2.1v-7.9h2v1.2h0c0.3-0.5,0.9-1.4,2.4-1.4
		c1.5,0,2.8,0.9,2.8,2.6V92.4z"/>
</g>
<rect fill="#DBDCE0" width="119" height="59.3"/>
<g>
	<rect x="13.4" y="14.8" fill="none" width="90.4" height="29.7"/>
	<path d="M31.9,14.8h8.7V16H37v9.4h-1.4V16h-3.6V14.8z"/>
	<path d="M43.3,25.4H42v-7.8h1.2V19h0c0.5-0.9,1.2-1.5,2.2-1.5c0.2,0,0.2,0,0.3,0v1.4h-0.5c-1.2,0-2,1-2,2.1V25.4z"/>
	<path d="M46.7,20c0.1-1.9,1.3-2.6,3.2-2.6c0.6,0,2.9,0.2,2.9,2.2v4.5c0,0.3,0.2,0.5,0.4,0.5c0.1,0,0.3,0,0.4-0.1v1
		c-0.2,0.1-0.4,0.1-0.7,0.1c-1.2,0-1.3-0.6-1.4-1.2c-0.5,0.6-1.3,1.3-2.8,1.3c-1.4,0-2.4-0.9-2.4-2.2c0-0.7,0.2-2.2,2.4-2.4l2.2-0.3
		c0.3,0,0.7-0.1,0.7-0.9c0-0.8-0.6-1.3-1.8-1.3c-1.5,0-1.7,0.9-1.8,1.5H46.7z M51.5,21.5c-0.2,0.2-0.5,0.3-2.2,0.5
		c-0.6,0.1-1.7,0.3-1.7,1.3c0,0.8,0.4,1.4,1.4,1.4c1.2,0,2.4-0.8,2.4-1.8V21.5z"/>
	<path d="M55,16.2v-1.5h1.3v1.5H55z M56.3,25.4H55v-7.8h1.3V25.4z"/>
	<path d="M64.6,25.4h-1.3v-4.8c0-1.4-0.4-2-1.7-2c-0.7,0-2.1,0.5-2.1,2.6v4.2h-1.3v-7.8h1.2v1.1h0c0.3-0.4,1-1.3,2.4-1.3
		c1.2,0,2.7,0.5,2.7,2.7V25.4z"/>
	<path d="M66.6,16.2v-1.5h1.3v1.5H66.6z M67.9,25.4h-1.3v-7.8h1.3V25.4z"/>
	<path d="M76.2,25.4h-1.3v-4.8c0-1.4-0.4-2-1.7-2c-0.7,0-2.1,0.5-2.1,2.6v4.2h-1.3v-7.8h1.2v1.1h0c0.3-0.4,1-1.3,2.4-1.3
		c1.2,0,2.7,0.5,2.7,2.7V25.4z"/>
	<path d="M84.6,24.8c0,1.1,0,3.9-3.6,3.9c-0.9,0-2.7-0.3-3-2.3h1.3c0.2,1.2,1.4,1.2,1.8,1.2c2.3,0,2.2-1.8,2.2-2.7v-0.3h0v0.1
		c-0.3,0.6-1,1-2.1,1c-2.6,0-3.4-2.5-3.4-4.3c0-2.2,1.2-3.9,3.2-3.9c1.4,0,2,0.9,2.3,1.3h0v-1.1h1.2V24.8z M81.2,24.5
		c0.8,0,2.1-0.6,2.1-2.6c0-1.3-0.2-3.3-2.1-3.3c-2,0-2.1,1.9-2.1,2.9C79.1,23.2,79.8,24.5,81.2,24.5z"/>
	<path d="M41.2,32.6h8.7v1.3h-3.6v9.4h-1.4v-9.4h-3.6V32.6z"/>
	<path d="M49.3,37.9c0.1-1.9,1.3-2.6,3.2-2.6c0.6,0,2.9,0.2,2.9,2.2v4.5c0,0.3,0.2,0.5,0.4,0.5c0.1,0,0.3,0,0.4-0.1v1
		c-0.2,0.1-0.4,0.1-0.7,0.1c-1.2,0-1.3-0.6-1.4-1.2c-0.5,0.6-1.3,1.3-2.8,1.3c-1.4,0-2.4-0.9-2.4-2.2c0-0.7,0.2-2.2,2.4-2.4l2.2-0.3
		c0.3,0,0.7-0.1,0.7-0.9c0-0.8-0.6-1.3-1.8-1.3c-1.5,0-1.7,0.9-1.8,1.5H49.3z M54,39.3c-0.2,0.2-0.5,0.3-2.2,0.5
		c-0.6,0.1-1.7,0.3-1.7,1.3c0,0.8,0.4,1.4,1.4,1.4c1.2,0,2.4-0.8,2.4-1.8V39.3z"/>
	<path d="M57.5,43.3V32.6h1.3v3.9h0c0.6-0.8,1.3-1.2,2.2-1.2c2.1,0,3.2,1.7,3.2,3.9c0,1.9-0.8,4.3-3.4,4.3c-1.3,0-1.9-0.8-2.1-1.2h0
		v1H57.5z M60.8,36.5c-1.9,0-2.1,2-2.1,3.3c0,2.1,1.3,2.6,2.1,2.6c1.4,0,2.1-1.3,2.1-3C62.9,38.4,62.8,36.5,60.8,36.5z"/>
	<path d="M66.9,43.3h-1.3V32.6h1.3V43.3z"/>
	<path d="M75.5,40.9c0,0.4-0.4,1.5-1.4,2.1c-0.4,0.2-0.9,0.5-2.1,0.5c-2.2,0-3.5-1.7-3.5-3.9c0-2.4,1.2-4.3,3.7-4.3
		c2.2,0,3.3,1.8,3.3,4.5h-5.7c0,1.6,0.8,2.6,2.3,2.6c1.2,0,2-1,2-1.5H75.5z M74.2,38.8c-0.1-1.2-0.6-2.3-2.2-2.3
		c-1.2,0-2.2,1.1-2.2,2.3H74.2z"/>
</g>
<rect x="386.8" y="58.4" fill="#BADBF3" width="117" height="59.3"/>
<g>
	<rect x="402.5" y="81.4" fill="none" width="93.7" height="14.9"/>
	<path d="M413.1,92.4c-4,0-5.2-3.3-5.2-5.6c0-2.3,1.2-5.6,5.2-5.6s5.2,3.3,5.2,5.6C418.3,89.1,417.1,92.4,413.1,92.4z M413.1,82.4
		c-2.3,0-3.7,1.8-3.7,4.3c0,2.5,1.4,4.3,3.7,4.3c2.3,0,3.7-1.8,3.7-4.3C416.8,84.3,415.4,82.4,413.1,82.4z"/>
	<path d="M424.9,92.1V91l0,0c-0.6,0.9-1.2,1.4-2.5,1.4c-1.1,0-2.5-0.6-2.5-2.4v-5.6h1.3v5.2c0,1.3,0.7,1.7,1.5,1.7
		c1.7,0,2.1-1.5,2.1-2.6v-4.3h1.3v7.8H424.9z"/>
	<path d="M429.7,85.4v5.1c0,0.6,0.5,0.6,0.8,0.6h0.5v1c-0.5,0-0.8,0.1-1,0.1c-1.3,0-1.6-0.7-1.6-1.7v-5.1h-1.1v-1.1h1.1v-2.2h1.3
		v2.2h1.2v1.1H429.7z"/>
	<path d="M432.1,84.3h1.2v1.1h0c0.3-0.4,0.9-1.3,2.3-1.3c2.1,0,3.2,1.7,3.2,3.9c0,1.9-0.8,4.3-3.4,4.3c-1,0-1.7-0.5-2.1-1h0v3.9
		h-1.3V84.3z M435.5,91.2c1.4,0,2.1-1.3,2.1-3c0-1-0.1-2.9-2.1-2.9c-1.9,0-2.1,2-2.1,3.3C433.4,90.7,434.7,91.2,435.5,91.2z"/>
	<path d="M445.6,92.1V91l0,0c-0.6,0.9-1.2,1.4-2.5,1.4c-1.1,0-2.5-0.6-2.5-2.4v-5.6h1.3v5.2c0,1.3,0.7,1.7,1.5,1.7
		c1.7,0,2.1-1.5,2.1-2.6v-4.3h1.3v7.8H445.6z"/>
	<path d="M450.4,85.4v5.1c0,0.6,0.5,0.6,0.8,0.6h0.5v1c-0.5,0-0.8,0.1-1,0.1c-1.3,0-1.6-0.7-1.6-1.7v-5.1H448v-1.1h1.1v-2.2h1.3v2.2
		h1.2v1.1H450.4z"/>
	<path d="M456,81.4h8.7v1.3h-3.6v9.4h-1.4v-9.4H456V81.4z"/>
	<path d="M464.2,86.7c0.1-1.9,1.3-2.6,3.2-2.6c0.6,0,2.9,0.2,2.9,2.2v4.5c0,0.3,0.2,0.5,0.4,0.5c0.1,0,0.3,0,0.4-0.1v1
		c-0.2,0.1-0.4,0.1-0.7,0.1c-1.2,0-1.3-0.6-1.4-1.2c-0.5,0.6-1.3,1.3-2.8,1.3c-1.4,0-2.4-0.9-2.4-2.2c0-0.7,0.2-2.2,2.4-2.4l2.2-0.3
		c0.3,0,0.7-0.1,0.7-0.9c0-0.8-0.6-1.3-1.8-1.3c-1.5,0-1.7,0.9-1.8,1.5H464.2z M469,88.1c-0.2,0.2-0.5,0.3-2.2,0.5
		c-0.6,0.1-1.7,0.3-1.7,1.3c0,0.8,0.4,1.4,1.4,1.4c1.2,0,2.4-0.8,2.4-1.8V88.1z"/>
	<path d="M472.4,92.1V81.4h1.3v3.9h0c0.6-0.8,1.3-1.2,2.2-1.2c2.1,0,3.2,1.7,3.2,3.9c0,1.9-0.8,4.3-3.4,4.3c-1.3,0-1.9-0.8-2.1-1.2
		h0v1H472.4z M475.7,85.3c-1.9,0-2.1,2-2.1,3.3c0,2.1,1.3,2.6,2.1,2.6c1.4,0,2.1-1.3,2.1-3C477.9,87.2,477.8,85.3,475.7,85.3z"/>
	<path d="M482.1,92.1h-1.3V81.4h1.3V92.1z"/>
	<path d="M490.7,89.7c0,0.4-0.4,1.5-1.4,2.1c-0.4,0.2-0.9,0.5-2.1,0.5c-2.2,0-3.5-1.7-3.5-3.9c0-2.4,1.2-4.3,3.7-4.3
		c2.2,0,3.3,1.8,3.3,4.5h-5.7c0,1.6,0.8,2.6,2.3,2.6c1.2,0,2-1,2-1.5H490.7z M489.4,87.6c-0.1-1.2-0.6-2.3-2.2-2.3
		c-1.2,0-2.2,1.1-2.2,2.3H489.4z"/>
</g>
<g>
	<g>
		<polyline fill="none" stroke="#5F6062" stroke-width="0.5" stroke-miterlimit="10" points="118.6,29.6 197.1,29.6 197.1,52.5 		
			"/>
		<g>
			<polygon fill="#5F6062" points="197.1,56.1 195.1,51.1 197.1,52.3 199.1,51.1 			"/>
		</g>
	</g>
</g>
<g>
	<g>
		<polyline fill="none" stroke="#5F6062" stroke-width="0.5" stroke-miterlimit="10" points="118.6,149.6 197.1,149.6 197.1,126.7 
					"/>
		<g>
			<polygon fill="#5F6062" points="197.1,123.2 199.1,128.1 197.1,126.9 195.1,128.1 			"/>
		</g>
	</g>
</g>
<g>
	<g>
		<line fill="none" stroke="#5F6062" stroke-width="0.5" stroke-miterlimit="10" x1="327.8" y1="92.2" x2="381.2" y2="92.2"/>
		<g>
			<polygon fill="#5F6062" points="384.8,92.2 379.8,94.2 381,92.2 379.8,90.2 			"/>
		</g>
	</g>
</g>
<rect y="117.7" fill="#DBDCE0" width="119" height="59.3"/>
<g>
	<rect x="13.4" y="132.4" fill="none" width="90.4" height="29.7"/>
	<path d="M34.4,132.4h8.7v1.3h-3.6v9.4H38v-9.4h-3.6V132.4z"/>
	<path d="M50.9,140.7c0,0.4-0.4,1.5-1.4,2.1c-0.4,0.2-0.9,0.5-2.1,0.5c-2.2,0-3.5-1.7-3.5-3.9c0-2.4,1.2-4.3,3.7-4.3
		c2.2,0,3.3,1.8,3.3,4.5h-5.7c0,1.6,0.8,2.6,2.3,2.6c1.2,0,2-1,2-1.5H50.9z M49.6,138.6c-0.1-1.2-0.6-2.3-2.2-2.3
		c-1.2,0-2.2,1.1-2.2,2.3H49.6z"/>
	<path d="M56.9,137.5c0-0.5-0.2-1.3-1.8-1.3c-0.4,0-1.5,0.1-1.5,1.1c0,0.6,0.4,0.8,1.4,1l1.3,0.3c1.6,0.4,2.2,1,2.2,2.1
		c0,1.6-1.3,2.6-3.1,2.6c-3.1,0-3.3-1.8-3.3-2.7h1.3c0,0.6,0.2,1.6,2.1,1.6c0.9,0,1.8-0.4,1.8-1.2c0-0.6-0.4-0.8-1.5-1.1l-1.5-0.4
		c-1.1-0.3-1.8-0.8-1.8-1.9c0-1.7,1.4-2.5,2.9-2.5c2.8,0,3,2.1,3,2.4H56.9z"/>
	<path d="M61.6,136.4v5.1c0,0.6,0.5,0.6,0.8,0.6h0.5v1c-0.5,0-0.8,0.1-1,0.1c-1.3,0-1.6-0.7-1.6-1.7v-5.1h-1.1v-1.1h1.1v-2.2h1.3
		v2.2h1.2v1.1H61.6z"/>
	<path d="M64.1,133.9v-1.5h1.3v1.5H64.1z M65.4,143.1h-1.3v-7.8h1.3V143.1z"/>
	<path d="M73.7,143.1h-1.3v-4.8c0-1.4-0.4-2-1.7-2c-0.7,0-2.1,0.5-2.1,2.6v4.2h-1.3v-7.8h1.2v1.1h0c0.3-0.4,1-1.3,2.4-1.3
		c1.2,0,2.7,0.5,2.7,2.7V143.1z"/>
	<path d="M82.1,142.5c0,1.1,0,3.9-3.6,3.9c-0.9,0-2.7-0.3-3-2.3h1.3c0.2,1.2,1.4,1.2,1.8,1.2c2.3,0,2.2-1.8,2.2-2.7v-0.3h0v0.1
		c-0.3,0.6-1,1-2.1,1c-2.6,0-3.4-2.5-3.4-4.3c0-2.2,1.2-3.9,3.2-3.9c1.4,0,2,0.9,2.3,1.3h0v-1.1h1.2V142.5z M78.8,142.2
		c0.8,0,2.1-0.6,2.1-2.6c0-1.3-0.2-3.3-2.1-3.3c-2,0-2.1,1.9-2.1,2.9C76.7,140.9,77.3,142.2,78.8,142.2z"/>
	<path d="M41.2,150.3h8.7v1.3h-3.6v9.4h-1.4v-9.4h-3.6V150.3z"/>
	<path d="M49.3,155.5c0.1-1.9,1.3-2.6,3.2-2.6c0.6,0,2.9,0.2,2.9,2.2v4.5c0,0.3,0.2,0.5,0.4,0.5c0.1,0,0.3,0,0.4-0.1v1
		c-0.2,0.1-0.4,0.1-0.7,0.1c-1.2,0-1.3-0.6-1.4-1.2c-0.5,0.5-1.3,1.3-2.8,1.3c-1.4,0-2.4-0.9-2.4-2.2c0-0.7,0.2-2.2,2.4-2.4l2.2-0.3
		c0.3,0,0.7-0.1,0.7-0.9c0-0.8-0.6-1.3-1.8-1.3c-1.5,0-1.7,0.9-1.8,1.5H49.3z M54,157c-0.2,0.2-0.5,0.3-2.2,0.5
		c-0.6,0.1-1.7,0.3-1.7,1.3c0,0.8,0.4,1.4,1.4,1.4c1.2,0,2.4-0.8,2.4-1.8V157z"/>
	<path d="M57.5,161v-10.7h1.3v3.9h0c0.6-0.8,1.3-1.2,2.2-1.2c2.1,0,3.2,1.7,3.2,3.9c0,1.9-0.8,4.3-3.4,4.3c-1.3,0-1.9-0.8-2.1-1.2h0
		v1H57.5z M60.8,154.1c-1.9,0-2.1,2-2.1,3.3c0,2.1,1.3,2.6,2.1,2.6c1.4,0,2.1-1.3,2.1-3C62.9,156.1,62.8,154.1,60.8,154.1z"/>
	<path d="M66.9,161h-1.3v-10.7h1.3V161z"/>
	<path d="M75.5,158.5c0,0.4-0.4,1.5-1.4,2.1c-0.4,0.2-0.9,0.5-2.1,0.5c-2.2,0-3.5-1.7-3.5-3.9c0-2.4,1.2-4.3,3.7-4.3
		c2.2,0,3.3,1.8,3.3,4.5h-5.7c0,1.6,0.8,2.6,2.3,2.6c1.2,0,2-1,2-1.5H75.5z M74.2,156.5c-0.1-1.2-0.6-2.3-2.2-2.3
		c-1.2,0-2.2,1.1-2.2,2.3H74.2z"/>
</g>
<g>
</g>
<g>
</g>
<g>
</g>
<g>
</g>
<g>
</g>
<g>
</g>
<g>
</g>
</svg>
