<?xml version="1.0" encoding="utf-8"?>
<!-- Generator: Adobe Illustrator 22.1.0, SVG Export Plug-In . SVG Version: 6.00 Build 0)  -->
<svg version="1.1" id="Layer_1" xmlns="http://www.w3.org/2000/svg" xmlns:xlink="http://www.w3.org/1999/xlink" x="0px" y="0px"
	 width="504px" height="157.7px" viewBox="0 0 504 157.7" enable-background="new 0 0 504 157.7" xml:space="preserve">
<rect x="183.6" y="51.6" fill="#EC881D" width="135" height="54"/>
<g>
	<path d="M203.8,84.6h-2v-9.7h4.4c1.9,0,3,1.2,3,3.1c0,0.9-0.5,3.1-3.1,3.1h-2.3V84.6z M205.7,79.4c1.5,0,1.5-1.1,1.5-1.5
		c0-0.9-0.5-1.3-1.8-1.3h-1.6v2.8H205.7z"/>
	<path d="M213.9,84.8c-1.9,0-3.7-1.2-3.7-3.8s1.7-3.8,3.7-3.8s3.7,1.2,3.7,3.8S215.8,84.8,213.9,84.8z M213.9,78.8
		c-1.5,0-1.7,1.3-1.7,2.2c0,0.9,0.3,2.2,1.7,2.2s1.7-1.3,1.7-2.2C215.6,80.1,215.3,78.8,213.9,78.8z"/>
	<path d="M220.8,76.6h-1.9v-1.8h1.9V76.6z M220.8,77.4v7.2h-1.9v-7.2H220.8z"/>
	<path d="M229.1,84.6h-1.9v-4.4c0-0.5,0-1.4-1.2-1.4c-0.8,0-1.5,0.6-1.5,1.7v4.1h-1.9v-7.2h1.8v1.1h0c0.3-0.4,0.8-1.2,2.2-1.2
		c1.4,0,2.5,0.8,2.5,2.4V84.6z"/>
	<path d="M233,77.4h1.2v1.4H233v3.9c0,0.4,0,0.6,0.8,0.6c0.1,0,0.3,0,0.4,0v1.4c-0.3,0-0.6,0-0.9,0H233c-1.6,0-1.9-0.6-1.9-1.6v-4.4
		h-1v-1.4h1v-1.9h1.9V77.4z"/>
	<path d="M237.4,84.6h-2v-9.7h2V84.6z"/>
	<path d="M245.6,84.6h-1.9v-4.4c0-0.5,0-1.4-1.2-1.4c-0.8,0-1.5,0.6-1.5,1.7v4.1h-1.9v-7.2h1.8v1.1h0c0.3-0.4,0.8-1.2,2.2-1.2
		c1.4,0,2.5,0.8,2.5,2.4V84.6z"/>
	<path d="M249.5,84.6h-2v-9.7h4.4c1.9,0,3,1.2,3,3.1c0,0.9-0.5,3.1-3.1,3.1h-2.3V84.6z M251.4,79.4c1.5,0,1.5-1.1,1.5-1.5
		c0-0.9-0.5-1.3-1.8-1.3h-1.6v2.8H251.4z"/>
	<path d="M259.6,84.8c-1.9,0-3.7-1.2-3.7-3.8s1.7-3.8,3.7-3.8c1.9,0,3.7,1.2,3.7,3.8S261.6,84.8,259.6,84.8z M259.6,78.8
		c-1.5,0-1.7,1.3-1.7,2.2c0,0.9,0.3,2.2,1.7,2.2c1.5,0,1.7-1.3,1.7-2.2C261.3,80.1,261.1,78.8,259.6,78.8z"/>
	<path d="M266.6,84.6h-1.9v-9.7h1.9V84.6z"/>
	<path d="M272.3,84.5c-0.9,2.7-1.1,3-2.8,3c-0.3,0-0.6,0-0.9,0V86c0.1,0,0.2,0,0.4,0c0.7,0,1.1-0.1,1.2-1.1l-2.6-7.5h2.1l1.5,5.3h0
		l1.5-5.3h2L272.3,84.5z"/>
	<path d="M282.5,77.4v6.8c0,1.2-0.1,3.3-3.6,3.3c-1.5,0-3.1-0.6-3.1-2.2h2.1c0.1,0.4,0.2,0.7,1.3,0.7c1,0,1.5-0.5,1.5-1.6v-0.9l0,0
		c-0.3,0.6-0.8,1.1-1.9,1.1c-1.7,0-3.1-1.2-3.1-3.7c0-2.5,1.4-3.7,3-3.7c1.3,0,1.9,0.8,2.1,1.3h0v-1.1H282.5z M279,83.1
		c1.3,0,1.6-1.1,1.6-2.1c0-1.2-0.6-2.1-1.6-2.1c-0.7,0-1.5,0.5-1.5,2.2C277.5,82,277.9,83.1,279,83.1z"/>
	<path d="M287.4,84.8c-1.9,0-3.7-1.2-3.7-3.8s1.7-3.8,3.7-3.8c1.9,0,3.7,1.2,3.7,3.8S289.3,84.8,287.4,84.8z M287.4,78.8
		c-1.5,0-1.7,1.3-1.7,2.2c0,0.9,0.3,2.2,1.7,2.2c1.5,0,1.7-1.3,1.7-2.2C289.1,80.1,288.8,78.8,287.4,78.8z"/>
	<path d="M298.9,84.6H297v-4.4c0-0.5,0-1.4-1.2-1.4c-0.8,0-1.5,0.6-1.5,1.7v4.1h-1.9v-7.2h1.8v1.1h0c0.3-0.4,0.8-1.2,2.2-1.2
		c1.4,0,2.5,0.8,2.5,2.4V84.6z"/>
</g>
<g>
	<g>
		<line fill="none" stroke="#5F6062" stroke-width="0.5" stroke-miterlimit="10" x1="318.3" y1="78.8" x2="368.8" y2="78.8"/>
		<g>
			<polygon fill="#5F6062" points="372.3,78.8 367.3,80.8 368.5,78.8 367.3,76.8 			"/>
		</g>
	</g>
</g>
<rect x="372.3" y="51.6" fill="#BADBF3" width="131.7" height="54.8"/>
<g>
	<rect x="380.6" y="73" fill="none" width="115" height="13.5"/>
	<path d="M405.2,83c-3.6,0-4.7-3-4.7-5.1c0-2.1,1.1-5.1,4.7-5.1s4.7,3,4.7,5.1C410,79.9,408.9,83,405.2,83z M405.2,73.9
		c-2.1,0-3.4,1.7-3.4,3.9s1.3,3.9,3.4,3.9s3.4-1.7,3.4-3.9S407.3,73.9,405.2,73.9z"/>
	<path d="M416,82.7v-1l0,0c-0.5,0.8-1.1,1.3-2.2,1.3c-1,0-2.3-0.5-2.3-2.2v-5.1h1.2v4.7c0,1.2,0.6,1.6,1.4,1.6
		c1.5,0,1.9-1.3,1.9-2.3v-3.9h1.2v7.1H416z"/>
	<path d="M420.3,76.6v4.6c0,0.6,0.5,0.6,0.7,0.6h0.4v0.9c-0.4,0-0.8,0.1-0.9,0.1c-1.2,0-1.4-0.7-1.4-1.5v-4.7h-1v-1h1v-2h1.2v2h1.1
		v1H420.3z"/>
	<path d="M422.5,75.6h1.1v1h0c0.3-0.4,0.8-1.2,2.1-1.2c1.9,0,2.9,1.5,2.9,3.5c0,1.7-0.7,3.9-3.1,3.9c-0.9,0-1.6-0.4-1.9-0.9h0v3.5
		h-1.2V75.6z M425.6,81.9c1.3,0,1.9-1.2,1.9-2.7c0-0.9-0.1-2.6-1.9-2.6c-1.7,0-1.9,1.9-1.9,3C423.7,81.4,424.8,81.9,425.6,81.9z"/>
	<path d="M434.7,82.7v-1l0,0c-0.5,0.8-1.1,1.3-2.2,1.3c-1,0-2.3-0.5-2.3-2.2v-5.1h1.2v4.7c0,1.2,0.6,1.6,1.4,1.6
		c1.5,0,1.9-1.3,1.9-2.3v-3.9h1.2v7.1H434.7z"/>
	<path d="M439.1,76.6v4.6c0,0.6,0.5,0.6,0.7,0.6h0.4v0.9c-0.4,0-0.8,0.1-0.9,0.1c-1.2,0-1.4-0.7-1.4-1.5v-4.7h-1v-1h1v-2h1.2v2h1.1
		v1H439.1z"/>
	<path d="M444.2,73h7.9v1.2h-3.3v8.5h-1.3v-8.5h-3.3V73z"/>
	<path d="M451.6,77.8c0.1-1.7,1.2-2.3,2.9-2.3c0.6,0,2.6,0.2,2.6,2v4.1c0,0.3,0.1,0.4,0.4,0.4c0.1,0,0.3,0,0.4-0.1v0.9
		c-0.2,0.1-0.4,0.1-0.6,0.1c-1.1,0-1.2-0.5-1.3-1.1c-0.5,0.5-1.2,1.1-2.6,1.1c-1.3,0-2.2-0.8-2.2-2c0-0.6,0.2-2,2.1-2.2l2-0.2
		c0.3,0,0.6-0.1,0.6-0.8c0-0.7-0.5-1.1-1.7-1.1c-1.4,0-1.5,0.8-1.6,1.4H451.6z M456,79.1c-0.2,0.1-0.5,0.3-2,0.4
		c-0.6,0.1-1.5,0.3-1.5,1.1c0,0.8,0.4,1.2,1.3,1.2c1.1,0,2.2-0.7,2.2-1.7V79.1z"/>
	<path d="M459.1,82.7V73h1.2v3.5h0c0.5-0.7,1.2-1.1,2-1.1c1.9,0,2.9,1.5,2.9,3.5c0,1.7-0.7,3.9-3.1,3.9c-1.2,0-1.7-0.7-1.9-1.1h0
		v0.9H459.1z M462.1,76.5c-1.7,0-1.9,1.9-1.9,3c0,1.9,1.2,2.4,1.9,2.4c1.3,0,1.9-1.2,1.9-2.7C464,78.2,463.9,76.5,462.1,76.5z"/>
	<path d="M467.9,82.7h-1.2V73h1.2V82.7z"/>
	<path d="M475.7,80.5c0,0.3-0.4,1.3-1.3,1.9c-0.3,0.2-0.8,0.5-1.9,0.5c-2,0-3.2-1.5-3.2-3.5c0-2.2,1.1-3.9,3.4-3.9c2,0,3,1.6,3,4.1
		h-5.2c0,1.5,0.7,2.3,2.1,2.3c1.1,0,1.8-0.9,1.8-1.4H475.7z M474.5,78.6c-0.1-1.1-0.5-2.1-2-2.1c-1.1,0-2,1-2,2.1H474.5z"/>
</g>
<rect fill="#DBDCE0" width="129" height="53.8"/>
<g>
	<rect x="7.7" y="21.6" fill="none" width="115" height="28.5"/>
	<path d="M31.9,24.5c-0.1-1.5-1.3-2-2.4-2c-0.8,0-2.2,0.2-2.2,1.7c0,0.8,0.6,1.1,1.1,1.2l2.8,0.6c1.3,0.3,2.2,1.1,2.2,2.6
		c0,2.3-2.1,2.9-3.8,2.9c-1.8,0-2.5-0.5-2.9-0.9c-0.8-0.7-1-1.6-1-2.5h1.2c0,1.8,1.4,2.3,2.7,2.3c0.9,0,2.5-0.2,2.5-1.6
		c0-1-0.5-1.3-2.1-1.7l-2-0.5c-0.6-0.1-2.1-0.6-2.1-2.3c0-1.5,1-3,3.3-3c3.4,0,3.7,2,3.8,3.1H31.9z"/>
	<path d="M37.8,24.1c2.3,0,3.3,1.9,3.3,3.7s-1,3.7-3.3,3.7c-2.3,0-3.3-1.9-3.3-3.7S35.5,24.1,37.8,24.1z M37.8,30.5
		c1.7,0,2.1-1.8,2.1-2.7s-0.4-2.7-2.1-2.7c-1.7,0-2.1,1.8-2.1,2.7S36.1,30.5,37.8,30.5z"/>
	<path d="M47,31.3v-1l0,0c-0.5,0.8-1.1,1.3-2.2,1.3c-1,0-2.3-0.5-2.3-2.2v-5.1h1.2V29c0,1.2,0.6,1.6,1.4,1.6c1.5,0,1.9-1.3,1.9-2.3
		v-3.9h1.2v7.1H47z"/>
	<path d="M51.3,31.3h-1.2v-7.1h1.1v1.2h0c0.5-0.8,1.1-1.4,2-1.4c0.1,0,0.2,0,0.3,0v1.2h-0.4c-1.1,0-1.8,0.9-1.8,1.9V31.3z"/>
	<path d="M58.8,26.7c-0.1-0.9-0.7-1.5-1.7-1.5c-1.5,0-1.9,1.4-1.9,2.7c0,1.2,0.3,2.7,1.9,2.7c0.8,0,1.5-0.6,1.7-1.7H60
		c-0.1,1.1-0.8,2.7-2.9,2.7c-2,0-3.2-1.5-3.2-3.5c0-2.2,1.1-3.9,3.4-3.9c1.9,0,2.6,1.4,2.6,2.6H58.8z"/>
	<path d="M67.2,29.1c0,0.3-0.4,1.3-1.3,1.9c-0.3,0.2-0.8,0.5-1.9,0.5c-2,0-3.2-1.5-3.2-3.5c0-2.2,1.1-3.9,3.4-3.9c2,0,3,1.6,3,4.1
		h-5.2c0,1.5,0.7,2.3,2.1,2.3c1.1,0,1.8-0.9,1.8-1.4H67.2z M66,27.3c-0.1-1.1-0.5-2.1-2-2.1c-1.1,0-2,1-2,2.1H66z"/>
	<path d="M71.7,21.6h7.9v1.2h-3.3v8.5H75v-8.5h-3.3V21.6z"/>
	<path d="M80.6,26.4c0.1-1.7,1.2-2.3,2.9-2.3c0.6,0,2.6,0.2,2.6,2v4.1c0,0.3,0.1,0.4,0.4,0.4c0.1,0,0.3,0,0.4-0.1v0.9
		c-0.2,0.1-0.4,0.1-0.6,0.1c-1.1,0-1.2-0.5-1.3-1.1c-0.5,0.5-1.2,1.1-2.6,1.1c-1.3,0-2.2-0.8-2.2-2c0-0.6,0.2-2,2.1-2.2l2-0.2
		c0.3,0,0.6-0.1,0.6-0.8c0-0.7-0.5-1.1-1.7-1.1c-1.4,0-1.5,0.8-1.6,1.4H80.6z M85,27.7c-0.2,0.1-0.5,0.3-2,0.4
		c-0.6,0.1-1.5,0.3-1.5,1.1c0,0.8,0.4,1.2,1.3,1.2c1.1,0,2.2-0.7,2.2-1.7V27.7z"/>
	<path d="M88.1,31.3v-9.7h1.2v3.5h0c0.5-0.7,1.2-1.1,2-1.1c1.9,0,2.9,1.5,2.9,3.5c0,1.7-0.7,3.9-3.1,3.9c-1.2,0-1.7-0.7-1.9-1.1h0
		v0.9H88.1z M91.1,25.1c-1.7,0-1.9,1.9-1.9,3c0,1.9,1.2,2.4,1.9,2.4c1.3,0,1.9-1.2,1.9-2.7C93.1,26.9,93,25.1,91.1,25.1z"/>
	<path d="M96.9,31.3h-1.2v-9.7h1.2V31.3z"/>
	<path d="M104.7,29.1c0,0.3-0.4,1.3-1.3,1.9c-0.3,0.2-0.8,0.5-1.9,0.5c-2,0-3.2-1.5-3.2-3.5c0-2.2,1.1-3.9,3.4-3.9c2,0,3,1.6,3,4.1
		h-5.2c0,1.5,0.7,2.3,2.1,2.3c1.1,0,1.8-0.9,1.8-1.4H104.7z M103.5,27.3c-0.1-1.1-0.5-2.1-2-2.1c-1.1,0-2,1-2,2.1H103.5z"/>
</g>
<rect y="103.9" fill="#DBDCE0" width="129" height="53.8"/>
<g>
	<g>
		<polyline fill="none" stroke="#5F6062" stroke-width="0.5" stroke-miterlimit="10" points="128.6,26.9 199.9,26.9 199.9,47.4 		
			"/>
		<g>
			<polygon fill="#5F6062" points="199.9,50.9 197.8,45.9 199.9,47.1 201.9,45.9 			"/>
		</g>
	</g>
</g>
<g>
	<g>
		<polyline fill="none" stroke="#5F6062" stroke-width="0.5" stroke-miterlimit="10" points="128.6,129.8 199.9,129.8 199.9,109.4 
					"/>
		<g>
			<polygon fill="#5F6062" points="199.9,105.8 201.9,110.8 199.9,109.6 197.8,110.8 			"/>
		</g>
	</g>
</g>
<g>
	<rect x="7" y="122.5" fill="none" width="115" height="28.5"/>
	<path d="M17.1,132.2h-1.3v-9.7h4.5c1.6,0,3.2,0.6,3.2,2.6c0,1.4-0.7,2-1.4,2.3c0.6,0.2,1.1,0.5,1.2,1.8l0.1,1.8
		c0,0.5,0.1,0.7,0.5,1v0.2h-1.6c-0.2-0.6-0.2-2.1-0.2-2.4c0-0.8-0.2-1.7-1.7-1.7h-3.2V132.2z M17.1,126.9h3c1,0,2-0.2,2-1.7
		c0-1.5-1.1-1.6-1.7-1.6h-3.3V126.9z"/>
	<path d="M31.2,130c0,0.3-0.4,1.3-1.3,1.9c-0.3,0.2-0.8,0.5-1.9,0.5c-2,0-3.2-1.5-3.2-3.5c0-2.2,1.1-3.9,3.4-3.9c2,0,3,1.6,3,4.1
		h-5.2c0,1.5,0.7,2.3,2.1,2.3c1.1,0,1.8-0.9,1.8-1.4H31.2z M30.1,128.1c-0.1-1.1-0.5-2.1-2-2.1c-1.1,0-2,1-2,2.1H30.1z"/>
	<path d="M34.2,126.1v6.1H33v-6.1h-1v-1h1v-1.2c0-1.1,0.7-1.6,1.8-1.6c0.2,0,0.4,0,0.5,0v1.1c-0.1,0-0.3,0-0.5,0
		c-0.5,0-0.7,0.3-0.7,0.8v0.9h1.2v1H34.2z"/>
	<path d="M42.5,130c0,0.3-0.4,1.3-1.3,1.9c-0.3,0.2-0.8,0.5-1.9,0.5c-2,0-3.2-1.5-3.2-3.5c0-2.2,1.1-3.9,3.4-3.9c2,0,3,1.6,3,4.1
		h-5.2c0,1.5,0.7,2.3,2.1,2.3c1.1,0,1.8-0.9,1.8-1.4H42.5z M41.3,128.1c-0.1-1.1-0.5-2.1-2-2.1c-1.1,0-2,1-2,2.1H41.3z"/>
	<path d="M45.3,132.2h-1.2v-7.1h1.1v1.2h0c0.5-0.8,1.1-1.4,2-1.4c0.1,0,0.2,0,0.3,0v1.2h-0.4c-1.1,0-1.8,0.9-1.8,1.9V132.2z"/>
	<path d="M54.5,130c0,0.3-0.4,1.3-1.3,1.9c-0.3,0.2-0.8,0.5-1.9,0.5c-2,0-3.2-1.5-3.2-3.5c0-2.2,1.1-3.9,3.4-3.9c2,0,3,1.6,3,4.1
		h-5.2c0,1.5,0.7,2.3,2.1,2.3c1.1,0,1.8-0.9,1.8-1.4H54.5z M53.4,128.1c-0.1-1.1-0.5-2.1-2-2.1c-1.1,0-2,1-2,2.1H53.4z"/>
	<path d="M61.7,132.2h-1.2v-4.3c0-1.2-0.4-1.8-1.5-1.8c-0.7,0-1.9,0.4-1.9,2.3v3.8H56v-7.1h1.1v1h0c0.3-0.4,0.9-1.2,2.1-1.2
		c1.1,0,2.5,0.4,2.5,2.5V132.2z"/>
	<path d="M67.9,127.5c-0.1-0.9-0.7-1.5-1.7-1.5c-1.5,0-1.9,1.4-1.9,2.7c0,1.2,0.3,2.7,1.9,2.7c0.8,0,1.5-0.6,1.7-1.7h1.1
		c-0.1,1.1-0.8,2.7-2.9,2.7c-2,0-3.2-1.5-3.2-3.5c0-2.2,1.1-3.9,3.4-3.9c1.9,0,2.6,1.4,2.6,2.6H67.9z"/>
	<path d="M76.2,130c0,0.3-0.4,1.3-1.3,1.9c-0.3,0.2-0.8,0.5-1.9,0.5c-2,0-3.2-1.5-3.2-3.5c0-2.2,1.1-3.9,3.4-3.9c2,0,3,1.6,3,4.1
		h-5.2c0,1.5,0.7,2.3,2.1,2.3c1.1,0,1.8-0.9,1.8-1.4H76.2z M75.1,128.1c-0.1-1.1-0.5-2.1-2-2.1c-1.1,0-2,1-2,2.1H75.1z"/>
	<path d="M80.8,122.5h7.9v1.2h-3.3v8.5h-1.3v-8.5h-3.3V122.5z"/>
	<path d="M89.7,127.3c0.1-1.7,1.2-2.4,2.9-2.4c0.6,0,2.6,0.2,2.6,2v4.1c0,0.3,0.1,0.4,0.4,0.4c0.1,0,0.3,0,0.4-0.1v0.9
		c-0.2,0.1-0.4,0.1-0.6,0.1c-1.1,0-1.2-0.5-1.3-1.1c-0.5,0.5-1.2,1.1-2.6,1.1c-1.3,0-2.2-0.8-2.2-2c0-0.6,0.2-2,2.1-2.2l2-0.2
		c0.3,0,0.6-0.1,0.6-0.8c0-0.7-0.5-1.1-1.7-1.1c-1.4,0-1.5,0.8-1.6,1.4H89.7z M94.1,128.6c-0.2,0.1-0.5,0.3-2,0.4
		c-0.6,0.1-1.5,0.3-1.5,1.1c0,0.8,0.4,1.2,1.3,1.2c1.1,0,2.2-0.7,2.2-1.7V128.6z"/>
	<path d="M97.2,132.2v-9.7h1.2v3.5h0c0.5-0.7,1.2-1.1,2-1.1c1.9,0,2.9,1.5,2.9,3.5c0,1.7-0.7,3.9-3.1,3.9c-1.2,0-1.7-0.7-1.9-1.1h0
		v0.9H97.2z M100.2,126c-1.7,0-1.9,1.8-1.9,3c0,1.9,1.2,2.4,1.9,2.4c1.3,0,1.9-1.2,1.9-2.7C102.1,127.8,102,126,100.2,126z"/>
	<path d="M106,132.2h-1.2v-9.7h1.2V132.2z"/>
	<path d="M113.8,130c0,0.3-0.4,1.3-1.3,1.9c-0.3,0.2-0.8,0.5-1.9,0.5c-2,0-3.2-1.5-3.2-3.5c0-2.2,1.1-3.9,3.4-3.9c2,0,3,1.6,3,4.1
		h-5.2c0,1.5,0.7,2.3,2.1,2.3c1.1,0,1.8-0.9,1.8-1.4H113.8z M112.6,128.1c-0.1-1.1-0.5-2.1-2-2.1c-1.1,0-2,1-2,2.1H112.6z"/>
</g>
<g>
</g>
<g>
</g>
<g>
</g>
<g>
</g>
<g>
</g>
<g>
</g>
<g>
</g>
</svg>
