<?xml version="1.0" encoding="utf-8"?>
<!-- Generator: Adobe Illustrator 22.1.0, SVG Export Plug-In . SVG Version: 6.00 Build 0)  -->
<svg version="1.1" id="Layer_1" xmlns="http://www.w3.org/2000/svg" xmlns:xlink="http://www.w3.org/1999/xlink" x="0px" y="0px"
	 width="505px" height="326.6px" viewBox="0 0 505 326.6" enable-background="new 0 0 505 326.6" xml:space="preserve">
<rect x="183.1" y="131.1" fill="#EC881D" width="152.2" height="60.9"/>
<g>
	<path d="M214.6,164.4h-2.3v-9H209v-1.9h8.9v1.9h-3.3V164.4z"/>
	<path d="M226,162c-0.6,1.9-2.2,2.6-3.6,2.6c-2.3,0-4-1.1-4-4.4c0-1,0.3-4.1,3.9-4.1c1.6,0,3.8,0.8,3.8,4.5v0.4h-5.6
		c0.1,0.6,0.2,2,1.9,2c0.6,0,1.2-0.3,1.4-0.9H226z M223.9,159.5c-0.1-1.3-1-1.7-1.6-1.7c-1,0-1.5,0.6-1.7,1.7H223.9z"/>
	<path d="M234.8,164.4h-2.6l-1.4-2.4l-1.4,2.4h-2.6l2.8-4.1l-2.6-4h2.6l1.4,2.4l1.3-2.4h2.5l-2.7,4L234.8,164.4z"/>
	<path d="M238.4,156.3h1.3v1.5h-1.3v4.4c0,0.5,0,0.7,0.9,0.7c0.1,0,0.3,0,0.4,0v1.6c-0.3,0-0.7,0-1,0h-0.3c-1.8,0-2.2-0.7-2.2-1.8
		v-4.9h-1.1v-1.5h1.1v-2.2h2.1V156.3z"/>
	<path d="M245.9,164.4h-2.3v-9h-3.3v-1.9h8.9v1.9h-3.3V164.4z"/>
	<path d="M254,164.6c-2.2,0-4.1-1.3-4.1-4.3s2-4.3,4.1-4.3s4.1,1.3,4.1,4.3S256.2,164.6,254,164.6z M254,157.9
		c-1.6,0-1.9,1.4-1.9,2.5s0.3,2.5,1.9,2.5s1.9-1.4,1.9-2.5S255.7,157.9,254,157.9z"/>
	<path d="M261.9,164.4h-2.1v-10.9h2.1v5.9l2.7-3.1h2.6l-2.9,3.1l2.9,5h-2.6l-1.9-3.5l-0.9,0.9V164.4z"/>
	<path d="M275.1,162c-0.6,1.9-2.2,2.6-3.6,2.6c-2.3,0-4-1.1-4-4.4c0-1,0.3-4.1,3.9-4.1c1.6,0,3.8,0.8,3.8,4.5v0.4h-5.6
		c0.1,0.6,0.2,2,1.9,2c0.6,0,1.2-0.3,1.4-0.9H275.1z M273,159.5c-0.1-1.3-1-1.7-1.6-1.7c-1,0-1.5,0.6-1.7,1.7H273z"/>
	<path d="M283.9,164.4h-2.1v-4.9c0-0.6,0-1.6-1.4-1.6c-0.9,0-1.7,0.6-1.7,1.9v4.6h-2.1v-8.1h2v1.2h0c0.3-0.5,0.9-1.4,2.4-1.4
		c1.6,0,2.8,0.9,2.8,2.7V164.4z"/>
	<path d="M288.1,155.3H286v-2h2.1V155.3z M288.1,156.3v8.1H286v-8.1H288.1z"/>
	<path d="M292.2,162.6h4.2v1.8h-7v-1.7l4.2-4.7h-3.9v-1.7h6.6v1.8L292.2,162.6z"/>
	<path d="M304.7,162c-0.6,1.9-2.2,2.6-3.6,2.6c-2.3,0-4-1.1-4-4.4c0-1,0.3-4.1,3.9-4.1c1.6,0,3.8,0.8,3.8,4.5v0.4h-5.6
		c0.1,0.6,0.2,2,1.9,2c0.6,0,1.2-0.3,1.4-0.9H304.7z M302.6,159.5c-0.1-1.3-1-1.7-1.6-1.7c-1,0-1.5,0.6-1.7,1.7H302.6z"/>
	<path d="M306.2,156.3h2v1.4h0c0.4-0.8,0.9-1.6,2.2-1.6c0.1,0,0.3,0,0.4,0v2.2c-0.2,0-0.4,0-0.6,0c-1.7,0-2,1-2,1.9v4.2h-2.1V156.3z
		"/>
</g>
<g>
	<g>
		<line fill="none" stroke="#5F6062" stroke-width="0.5" stroke-miterlimit="10" x1="335" y1="161.5" x2="392.4" y2="161.5"/>
		<g>
			<polygon fill="#5F6062" points="395.9,161.5 390.9,163.5 392.1,161.5 390.9,159.5 			"/>
		</g>
	</g>
</g>
<rect x="395.9" y="130.6" fill="#BADBF3" width="107.9" height="61.7"/>
<g>
	<rect x="405.3" y="154.8" fill="none" width="90.7" height="25.4"/>
	<path d="M413.6,166c-4.1,0-5.3-3.4-5.3-5.8s1.2-5.8,5.3-5.8s5.3,3.4,5.3,5.8S417.7,166,413.6,166z M413.6,155.8
		c-2.4,0-3.8,1.9-3.8,4.4c0,2.6,1.4,4.4,3.8,4.4s3.8-1.9,3.8-4.4C417.4,157.6,416,155.8,413.6,155.8z"/>
	<path d="M425.7,165.7v-1.2l0,0c-0.6,0.9-1.2,1.4-2.5,1.4c-1.2,0-2.6-0.6-2.6-2.5v-5.7h1.3v5.3c0,1.3,0.7,1.8,1.5,1.8
		c1.7,0,2.2-1.5,2.2-2.7v-4.4h1.3v8H425.7z"/>
	<path d="M430.6,158.8v5.2c0,0.6,0.5,0.6,0.8,0.6h0.5v1.1c-0.5,0-0.9,0.1-1,0.1c-1.3,0-1.6-0.7-1.6-1.7v-5.3h-1.1v-1.1h1.1v-2.2h1.3
		v2.2h1.3v1.1H430.6z"/>
	<path d="M433.1,157.7h1.3v1.1h0c0.3-0.5,0.9-1.4,2.4-1.4c2.1,0,3.3,1.7,3.3,4c0,1.9-0.8,4.4-3.5,4.4c-1.1,0-1.8-0.5-2.1-1.1h0v4
		h-1.3V157.7z M436.6,164.8c1.5,0,2.1-1.3,2.1-3.1c0-1-0.1-3-2.2-3c-1.9,0-2.1,2.1-2.1,3.4C434.4,164.2,435.7,164.8,436.6,164.8z"/>
	<path d="M446.9,165.7v-1.2l0,0c-0.6,0.9-1.2,1.4-2.5,1.4c-1.2,0-2.6-0.6-2.6-2.5v-5.7h1.3v5.3c0,1.3,0.7,1.8,1.5,1.8
		c1.7,0,2.2-1.5,2.2-2.7v-4.4h1.3v8H446.9z"/>
	<path d="M451.8,158.8v5.2c0,0.6,0.5,0.6,0.8,0.6h0.5v1.1c-0.5,0-0.9,0.1-1,0.1c-1.3,0-1.6-0.7-1.6-1.7v-5.3h-1.1v-1.1h1.1v-2.2h1.3
		v2.2h1.3v1.1H451.8z"/>
	<path d="M457.6,154.8h8.9v1.3h-3.7v9.6h-1.5v-9.6h-3.7V154.8z"/>
	<path d="M465.9,160.1c0.1-1.9,1.3-2.6,3.3-2.6c0.6,0,3,0.2,3,2.2v4.6c0,0.3,0.2,0.5,0.4,0.5c0.1,0,0.3,0,0.4-0.1v1
		c-0.2,0.1-0.4,0.2-0.7,0.2c-1.2,0-1.4-0.6-1.4-1.2c-0.5,0.6-1.3,1.3-2.9,1.3c-1.5,0-2.5-0.9-2.5-2.3c0-0.7,0.2-2.2,2.4-2.5l2.2-0.3
		c0.3,0,0.7-0.2,0.7-0.9c0-0.8-0.6-1.3-1.9-1.3c-1.5,0-1.7,0.9-1.8,1.5H465.9z M470.8,161.6c-0.2,0.2-0.5,0.3-2.2,0.5
		c-0.7,0.1-1.7,0.3-1.7,1.3c0,0.9,0.4,1.4,1.4,1.4c1.2,0,2.5-0.8,2.5-1.9V161.6z"/>
	<path d="M474.3,165.7v-10.9h1.3v4h0c0.6-0.8,1.4-1.2,2.3-1.2c2.1,0,3.3,1.7,3.3,4c0,1.9-0.8,4.4-3.5,4.4c-1.4,0-1.9-0.8-2.2-1.2h0
		v1H474.3z M477.7,158.7c-1.9,0-2.1,2.1-2.1,3.4c0,2.1,1.3,2.7,2.2,2.7c1.5,0,2.1-1.3,2.1-3.1C479.9,160.7,479.8,158.7,477.7,158.7z
		"/>
	<path d="M484.2,165.7h-1.3v-10.9h1.3V165.7z"/>
	<path d="M493,163.2c0,0.4-0.4,1.5-1.4,2.2c-0.4,0.2-0.9,0.5-2.2,0.5c-2.2,0-3.6-1.7-3.6-4c0-2.5,1.2-4.4,3.8-4.4
		c2.3,0,3.4,1.8,3.4,4.6h-5.8c0,1.7,0.8,2.6,2.3,2.6c1.3,0,2-1,2.1-1.6H493z M491.7,161.1c-0.1-1.2-0.6-2.4-2.2-2.4
		c-1.2,0-2.2,1.1-2.2,2.4H491.7z"/>
</g>
<g>
	<rect y="88.3" fill="#DBDCE0" width="121.8" height="61.7"/>
	<g>
		<rect x="13.7" y="111.3" fill="none" width="92.5" height="16.7"/>
		<path d="M24.7,122.3h-1.5v-10.9h1.5V122.3z"/>
		<path d="M33.6,122.3h-1.3v-4.9c0-1.4-0.4-2.1-1.7-2.1c-0.8,0-2.1,0.5-2.1,2.7v4.3h-1.3v-8h1.3v1.1h0c0.3-0.4,1-1.4,2.4-1.4
			c1.2,0,2.8,0.5,2.8,2.8V122.3z"/>
		<path d="M35.5,114.3h1.3v1.1h0c0.3-0.5,0.9-1.4,2.4-1.4c2.1,0,3.3,1.7,3.3,4c0,1.9-0.8,4.4-3.5,4.4c-1.1,0-1.8-0.5-2.1-1.1h0v4
			h-1.3V114.3z M38.9,121.4c1.5,0,2.1-1.3,2.1-3.1c0-1-0.1-3-2.2-3c-1.9,0-2.1,2.1-2.1,3.4C36.7,120.8,38.1,121.4,38.9,121.4z"/>
		<path d="M49.2,122.3v-1.2l0,0c-0.6,0.9-1.2,1.4-2.5,1.4c-1.2,0-2.6-0.6-2.6-2.5v-5.7h1.3v5.3c0,1.3,0.7,1.8,1.5,1.8
			c1.7,0,2.2-1.5,2.2-2.7v-4.4h1.3v8H49.2z"/>
		<path d="M54.1,115.4v5.2c0,0.6,0.5,0.6,0.8,0.6h0.5v1.1c-0.5,0-0.9,0.1-1,0.1c-1.3,0-1.6-0.7-1.6-1.7v-5.3h-1.1v-1.1h1.1v-2.2h1.3
			v2.2h1.3v1.1H54.1z"/>
		<path d="M60.2,111.3h8.9v1.3h-3.7v9.6h-1.5v-9.6h-3.7V111.3z"/>
		<path d="M70.2,116.7c0.1-1.9,1.3-2.6,3.3-2.6c0.6,0,3,0.2,3,2.2v4.6c0,0.3,0.2,0.5,0.4,0.5c0.1,0,0.3,0,0.4-0.1v1
			c-0.2,0.1-0.4,0.2-0.7,0.2c-1.2,0-1.4-0.6-1.4-1.2c-0.5,0.6-1.3,1.3-2.9,1.3c-1.5,0-2.5-0.9-2.5-2.3c0-0.7,0.2-2.2,2.4-2.5
			l2.2-0.3c0.3,0,0.7-0.2,0.7-0.9c0-0.8-0.6-1.3-1.9-1.3c-1.5,0-1.7,0.9-1.8,1.5H70.2z M75.1,118.2c-0.2,0.2-0.5,0.3-2.2,0.5
			c-0.7,0.1-1.7,0.3-1.7,1.3c0,0.9,0.4,1.4,1.4,1.4c1.2,0,2.5-0.8,2.5-1.9V118.2z"/>
		<path d="M78.6,122.3v-10.9H80v4h0c0.6-0.8,1.4-1.2,2.3-1.2c2.1,0,3.3,1.7,3.3,4c0,1.9-0.8,4.4-3.5,4.4c-1.4,0-1.9-0.8-2.2-1.2h0v1
			H78.6z M82,115.3c-1.9,0-2.1,2.1-2.1,3.4c0,2.1,1.3,2.7,2.2,2.7c1.5,0,2.1-1.3,2.1-3.1C84.2,117.3,84.1,115.3,82,115.3z"/>
		<path d="M88.6,122.3h-1.3v-10.9h1.3V122.3z"/>
		<path d="M97.3,119.8c0,0.4-0.4,1.5-1.4,2.2c-0.4,0.2-0.9,0.5-2.2,0.5c-2.2,0-3.6-1.7-3.6-4c0-2.5,1.2-4.4,3.8-4.4
			c2.3,0,3.4,1.8,3.4,4.6h-5.8c0,1.7,0.8,2.6,2.3,2.6c1.3,0,2-1,2.1-1.6H97.3z M96.1,117.7c-0.1-1.2-0.6-2.4-2.2-2.4
			c-1.2,0-2.2,1.1-2.2,2.4H96.1z"/>
	</g>
	<g>
		<g>
			<line fill="none" stroke="#5F6062" stroke-width="0.5" stroke-miterlimit="10" x1="121.8" y1="119.2" x2="179.5" y2="148.5"/>
			<g>
				<polygon fill="#5F6062" points="182.7,150.1 177.3,149.6 179.3,148.3 179.2,146 				"/>
			</g>
		</g>
	</g>
	<rect fill="#DBDCE0" width="121.8" height="61.7"/>
	<g>
		<rect x="8.7" y="23" fill="none" width="100.9" height="13.3"/>
		<path d="M34.2,34v-6.5c0-0.3,0-1.7,0-2.7h0L31.1,34h-1.5l-3.1-9.2h0c0,1,0,2.4,0,2.7V34h-1.4V23h2.1l3.1,9.2h0l3.1-9.2h2.1V34
			H34.2z"/>
		<path d="M40.9,25.8c2.5,0,3.7,2.1,3.7,4.2s-1.2,4.2-3.7,4.2S37.2,32,37.2,30S38.4,25.8,40.9,25.8z M40.9,33c1.9,0,2.3-2,2.3-3
			s-0.4-3-2.3-3c-1.9,0-2.3,2-2.3,3S39,33,40.9,33z"/>
		<path d="M52.8,34h-1.3v-1.1h0c-0.6,1.1-1.5,1.3-2.3,1.3c-2.7,0-3.5-2.5-3.5-4.4c0-2.2,1.2-4,3.3-4c1.4,0,2.1,0.9,2.4,1.4l0-0.1v-4
			h1.3V34z M49.2,33c0.9,0,2.2-0.6,2.2-2.7c0-1.3-0.2-3.4-2.1-3.4c-2.1,0-2.2,2-2.2,3C47.1,31.7,47.8,33,49.2,33z"/>
		<path d="M61.4,31.5c0,0.4-0.4,1.5-1.4,2.2c-0.4,0.2-0.9,0.5-2.2,0.5c-2.2,0-3.6-1.7-3.6-4c0-2.5,1.2-4.4,3.8-4.4
			c2.3,0,3.4,1.8,3.4,4.6h-5.8c0,1.7,0.8,2.6,2.3,2.6c1.3,0,2-1,2.1-1.6H61.4z M60.1,29.3C60,28.1,59.5,27,57.9,27
			c-1.2,0-2.2,1.1-2.2,2.4H60.1z"/>
		<path d="M64.4,34h-1.3V23h1.3V34z"/>
		<path d="M72.5,34H71V23h7.6v1.3h-6.1v3.4h5.4V29h-5.4V34z"/>
		<path d="M80,24.5V23h1.3v1.5H80z M81.4,34H80v-8h1.3V34z"/>
		<path d="M84.7,34h-1.3V23h1.3V34z"/>
		<path d="M93.5,31.5c0,0.4-0.4,1.5-1.4,2.2c-0.4,0.2-0.9,0.5-2.2,0.5c-2.2,0-3.6-1.7-3.6-4c0-2.5,1.2-4.4,3.8-4.4
			c2.3,0,3.4,1.8,3.4,4.6h-5.8c0,1.7,0.8,2.6,2.3,2.6c1.3,0,2-1,2.1-1.6H93.5z M92.2,29.3C92.2,28.1,91.6,27,90,27
			c-1.2,0-2.2,1.1-2.2,2.4H92.2z"/>
	</g>
	<g>
		<g>
			<line fill="none" stroke="#5F6062" stroke-width="0.5" stroke-miterlimit="10" x1="121.8" y1="30.9" x2="122.3" y2="31.7"/>
			
				<line fill="none" stroke="#5F6062" stroke-width="0.5" stroke-miterlimit="10" stroke-dasharray="2.0287,2.0287" x1="123.4" y1="33.5" x2="179.8" y2="126.2"/>
			<line fill="none" stroke="#5F6062" stroke-width="0.5" stroke-miterlimit="10" x1="180.3" y1="127" x2="180.9" y2="127.9"/>
			<g>
				<polygon fill="#5F6062" points="182.7,130.9 178.4,127.7 180.7,127.7 181.8,125.6 				"/>
			</g>
		</g>
	</g>
</g>
<rect y="263.6" fill="#DBDCE0" width="121.8" height="61.7"/>
<g>
	<rect x="5.3" y="281.5" fill="none" width="111.1" height="33.6"/>
	<path d="M18.6,281.5v7.1c0,2.2-1.4,4.1-4.4,4.1c-2.9,0-4.2-1.9-4.2-3.9v-7.3h1.5v6.9c0,2.4,1.4,3,2.8,3c1.4,0,2.9-0.6,2.9-3v-6.9
		H18.6z"/>
	<path d="M25.3,286.8c0-0.5-0.2-1.3-1.9-1.3c-0.4,0-1.6,0.1-1.6,1.1c0,0.7,0.4,0.8,1.4,1.1l1.3,0.3c1.7,0.4,2.2,1,2.2,2.1
		c0,1.6-1.4,2.6-3.2,2.6c-3.2,0-3.4-1.8-3.4-2.8h1.3c0,0.6,0.2,1.6,2.1,1.6c1,0,1.8-0.4,1.8-1.3c0-0.6-0.4-0.9-1.6-1.1l-1.6-0.4
		c-1.1-0.3-1.8-0.8-1.8-1.9c0-1.8,1.4-2.5,3-2.5c2.8,0,3,2.1,3,2.5H25.3z"/>
	<path d="M35.1,290c0,0.4-0.4,1.5-1.4,2.2c-0.4,0.2-0.9,0.5-2.2,0.5c-2.2,0-3.6-1.7-3.6-4c0-2.5,1.2-4.4,3.8-4.4
		c2.3,0,3.4,1.8,3.4,4.6h-5.8c0,1.7,0.8,2.6,2.3,2.6c1.3,0,2-1,2.1-1.6H35.1z M33.9,287.9c-0.1-1.2-0.6-2.4-2.2-2.4
		c-1.2,0-2.2,1.1-2.2,2.4H33.9z"/>
	<path d="M38.4,292.5H37v-8h1.3v1.3h0c0.5-0.9,1.2-1.6,2.2-1.6c0.2,0,0.2,0,0.4,0v1.4h-0.5c-1.2,0-2,1-2,2.1V292.5z"/>
	<path d="M46.4,281.5h4.4c2.8,0,4.6,2.2,4.6,5.3c0,2.5-1.1,5.6-4.7,5.6h-4.4V281.5z M47.9,291.2h2.9c1.9,0,3.2-1.5,3.2-4.3
		c0-2.8-1.3-4.1-3.3-4.1h-2.8V291.2z"/>
	<path d="M57.2,283.1v-1.5h1.3v1.5H57.2z M58.5,292.5h-1.3v-8h1.3V292.5z"/>
	<path d="M65.5,287.2c-0.2-1.1-0.8-1.7-1.9-1.7c-1.7,0-2.2,1.6-2.2,3c0,1.4,0.3,3.1,2.2,3.1c0.9,0,1.7-0.7,1.9-1.9h1.3
		c-0.1,1.3-0.9,3-3.2,3c-2.2,0-3.6-1.7-3.6-4c0-2.5,1.2-4.4,3.8-4.4c2.1,0,2.9,1.5,3,2.9H65.5z"/>
	<path d="M69.8,285.6v5.2c0,0.6,0.5,0.6,0.8,0.6h0.5v1.1c-0.5,0-0.9,0.1-1,0.1c-1.3,0-1.6-0.7-1.6-1.7v-5.3h-1.1v-1.1h1.1v-2.2h1.3
		v2.2h1.3v1.1H69.8z"/>
	<path d="M72.4,283.1v-1.5h1.3v1.5H72.4z M73.7,292.5h-1.3v-8h1.3V292.5z"/>
	<path d="M79,284.3c2.5,0,3.7,2.1,3.7,4.2c0,2.1-1.2,4.2-3.7,4.2s-3.7-2.1-3.7-4.2C75.3,286.4,76.4,284.3,79,284.3z M79,291.5
		c1.9,0,2.3-2,2.3-3c0-1.1-0.4-3-2.3-3s-2.3,2-2.3,3C76.7,289.5,77.1,291.5,79,291.5z"/>
	<path d="M90.7,292.5h-1.3v-4.9c0-1.4-0.4-2.1-1.7-2.1c-0.8,0-2.1,0.5-2.1,2.7v4.3h-1.3v-8h1.3v1.1h0c0.3-0.4,1-1.4,2.4-1.4
		c1.2,0,2.8,0.5,2.8,2.8V292.5z"/>
	<path d="M92.6,286.9c0.1-1.9,1.3-2.6,3.3-2.6c0.6,0,3,0.2,3,2.2v4.6c0,0.3,0.2,0.5,0.4,0.5c0.1,0,0.3,0,0.4-0.1v1
		c-0.2,0.1-0.4,0.2-0.7,0.2c-1.2,0-1.4-0.6-1.4-1.2c-0.5,0.6-1.3,1.3-2.9,1.3c-1.5,0-2.5-0.9-2.5-2.3c0-0.7,0.2-2.2,2.4-2.5l2.2-0.3
		c0.3,0,0.7-0.2,0.7-0.9c0-0.8-0.6-1.3-1.9-1.3c-1.5,0-1.7,0.9-1.8,1.5H92.6z M97.5,288.4c-0.2,0.2-0.5,0.3-2.2,0.5
		c-0.7,0.1-1.7,0.3-1.7,1.3c0,0.9,0.4,1.4,1.4,1.4c1.2,0,2.5-0.8,2.5-1.9V288.4z"/>
	<path d="M102.7,292.5h-1.3v-8h1.3v1.3h0c0.5-0.9,1.2-1.6,2.2-1.6c0.2,0,0.2,0,0.4,0v1.4h-0.5c-1.2,0-2,1-2,2.1V292.5z"/>
	<path d="M111.2,284.5h1.5c-0.9,2.6-1.8,5.2-2.9,7.8c-1.3,3.2-1.4,3.4-3.1,3.4c-0.2,0-0.4-0.1-0.6-0.1v-1.2c0.2,0.1,0.4,0.1,0.8,0.1
		c0.7,0,0.8-0.2,1.4-1.8l-3-8.2h1.5l2.1,6.5h0L111.2,284.5z"/>
	<path d="M51.3,310.7h-1.5v-10.9h7.6v1.3h-6.1v3.3h5.4v1.3h-5.4V310.7z"/>
	<path d="M58.9,301.3v-1.5h1.3v1.5H58.9z M60.2,310.7h-1.3v-8h1.3V310.7z"/>
	<path d="M63.6,310.7h-1.3v-10.9h1.3V310.7z"/>
	<path d="M72.4,308.2c0,0.4-0.4,1.5-1.4,2.2c-0.4,0.2-0.9,0.5-2.2,0.5c-2.2,0-3.6-1.7-3.6-4c0-2.5,1.2-4.4,3.8-4.4
		c2.3,0,3.4,1.8,3.4,4.6h-5.8c0,1.7,0.8,2.6,2.3,2.6c1.3,0,2-1,2.1-1.6H72.4z M71.1,306.1c-0.1-1.2-0.6-2.4-2.2-2.4
		c-1.2,0-2.2,1.1-2.2,2.4H71.1z"/>
</g>
<g>
	<g>
		<line fill="none" stroke="#5F6062" stroke-width="0.5" stroke-miterlimit="10" x1="121.8" y1="294.5" x2="122.3" y2="293.6"/>
		
			<line fill="none" stroke="#5F6062" stroke-width="0.5" stroke-miterlimit="10" stroke-dasharray="1.981,1.981" x1="123.3" y1="291.9" x2="179.8" y2="197.6"/>
		<line fill="none" stroke="#5F6062" stroke-width="0.5" stroke-miterlimit="10" x1="180.4" y1="196.7" x2="180.9" y2="195.9"/>
		<g>
			<polygon fill="#5F6062" points="182.7,192.9 181.9,198.2 180.7,196.1 178.4,196.1 			"/>
		</g>
	</g>
</g>
<rect y="175.3" fill="#DBDCE0" width="121.8" height="61.7"/>
<g>
	<rect x="8.7" y="191.5" fill="none" width="100.9" height="33.6"/>
	<path d="M26.5,191.5H31c2.8,0,4.6,2.2,4.6,5.3c0,2.5-1.1,5.6-4.7,5.6h-4.4V191.5z M28,201.2h2.9c1.9,0,3.2-1.5,3.2-4.3
		c0-2.8-1.3-4.1-3.3-4.1H28V201.2z"/>
	<path d="M37.3,193v-1.5h1.3v1.5H37.3z M38.6,202.5h-1.3v-8h1.3V202.5z"/>
	<path d="M45.6,197.2c-0.2-1.1-0.8-1.7-1.9-1.7c-1.7,0-2.2,1.6-2.2,3c0,1.4,0.3,3.1,2.2,3.1c0.9,0,1.7-0.7,1.9-1.9h1.3
		c-0.1,1.3-0.9,3-3.2,3c-2.2,0-3.6-1.7-3.6-4c0-2.5,1.2-4.4,3.8-4.4c2.1,0,2.9,1.5,3,2.9H45.6z"/>
	<path d="M49.9,195.6v5.2c0,0.6,0.5,0.6,0.8,0.6h0.5v1.1c-0.5,0-0.9,0.1-1,0.1c-1.3,0-1.6-0.7-1.6-1.7v-5.3h-1.1v-1.1h1.1v-2.2h1.3
		v2.2h1.3v1.1H49.9z"/>
	<path d="M52.5,193v-1.5h1.3v1.5H52.5z M53.9,202.5h-1.3v-8h1.3V202.5z"/>
	<path d="M59.1,194.3c2.5,0,3.7,2.1,3.7,4.2c0,2.1-1.2,4.2-3.7,4.2s-3.7-2.1-3.7-4.2C55.4,196.4,56.6,194.3,59.1,194.3z M59.1,201.5
		c1.9,0,2.3-2,2.3-3c0-1.1-0.4-3-2.3-3c-1.9,0-2.3,2-2.3,3C56.8,199.5,57.2,201.5,59.1,201.5z"/>
	<path d="M70.8,202.5h-1.3v-4.9c0-1.4-0.4-2.1-1.7-2.1c-0.8,0-2.1,0.5-2.1,2.7v4.3h-1.3v-8h1.3v1.1h0c0.3-0.4,1-1.4,2.4-1.4
		c1.2,0,2.8,0.5,2.8,2.8V202.5z"/>
	<path d="M72.8,196.9c0.1-1.9,1.3-2.6,3.3-2.6c0.6,0,3,0.2,3,2.2v4.6c0,0.3,0.2,0.5,0.4,0.5c0.1,0,0.3,0,0.4-0.1v1
		c-0.2,0.1-0.4,0.2-0.7,0.2c-1.2,0-1.4-0.6-1.4-1.2c-0.5,0.6-1.3,1.3-2.9,1.3c-1.5,0-2.5-0.9-2.5-2.3c0-0.7,0.2-2.2,2.4-2.5l2.2-0.3
		c0.3,0,0.7-0.2,0.7-0.9c0-0.8-0.6-1.3-1.9-1.3c-1.5,0-1.7,0.9-1.8,1.5H72.8z M77.7,198.4c-0.2,0.2-0.5,0.3-2.2,0.5
		c-0.7,0.1-1.7,0.3-1.7,1.3c0,0.9,0.4,1.4,1.4,1.4c1.2,0,2.5-0.8,2.5-1.9V198.4z"/>
	<path d="M82.8,202.5h-1.3v-8h1.3v1.3h0c0.5-0.9,1.2-1.6,2.2-1.6c0.2,0,0.2,0,0.4,0v1.4h-0.5c-1.2,0-2,1-2,2.1V202.5z"/>
	<path d="M91.3,194.5h1.5c-0.9,2.6-1.8,5.2-2.9,7.8c-1.3,3.2-1.4,3.4-3.1,3.4c-0.2,0-0.4-0.1-0.6-0.1v-1.2c0.2,0.1,0.4,0.1,0.8,0.1
		c0.7,0,0.8-0.2,1.4-1.8l-3-8.2H87l2.1,6.5h0L91.3,194.5z"/>
	<path d="M40.3,209.8h8.9v1.3h-3.7v9.6H44v-9.6h-3.7V209.8z"/>
	<path d="M50.3,215.2c0.1-1.9,1.3-2.6,3.3-2.6c0.6,0,3,0.2,3,2.2v4.6c0,0.3,0.2,0.5,0.4,0.5c0.1,0,0.3,0,0.4-0.1v1
		c-0.2,0.1-0.4,0.2-0.7,0.2c-1.2,0-1.4-0.6-1.4-1.2c-0.5,0.6-1.3,1.3-2.9,1.3c-1.5,0-2.5-0.9-2.5-2.3c0-0.7,0.2-2.2,2.4-2.5l2.2-0.3
		c0.3,0,0.7-0.2,0.7-0.9c0-0.8-0.6-1.3-1.9-1.3c-1.5,0-1.7,0.9-1.8,1.5H50.3z M55.2,216.7c-0.2,0.2-0.5,0.3-2.2,0.5
		c-0.7,0.1-1.7,0.3-1.7,1.3c0,0.9,0.4,1.4,1.4,1.4c1.2,0,2.5-0.8,2.5-1.9V216.7z"/>
	<path d="M58.7,220.7v-10.9h1.3v4h0c0.6-0.8,1.4-1.2,2.3-1.2c2.1,0,3.3,1.7,3.3,4c0,1.9-0.8,4.4-3.5,4.4c-1.4,0-1.9-0.8-2.2-1.2h0v1
		H58.7z M62.2,213.7c-1.9,0-2.1,2.1-2.1,3.4c0,2.1,1.3,2.7,2.2,2.7c1.5,0,2.1-1.3,2.1-3.1C64.3,215.7,64.2,213.7,62.2,213.7z"/>
	<path d="M68.7,220.7h-1.3v-10.9h1.3V220.7z"/>
	<path d="M77.4,218.2c0,0.4-0.4,1.5-1.4,2.2c-0.4,0.2-0.9,0.5-2.2,0.5c-2.2,0-3.6-1.7-3.6-4c0-2.5,1.2-4.4,3.8-4.4
		c2.3,0,3.4,1.8,3.4,4.6h-5.8c0,1.7,0.8,2.6,2.3,2.6c1.3,0,2-1,2.1-1.6H77.4z M76.2,216.1c-0.1-1.2-0.6-2.4-2.2-2.4
		c-1.2,0-2.2,1.1-2.2,2.4H76.2z"/>
</g>
<g>
	<g>
		<line fill="none" stroke="#5F6062" stroke-width="0.5" stroke-miterlimit="10" x1="121.8" y1="206.1" x2="122.7" y2="205.7"/>
		
			<line fill="none" stroke="#5F6062" stroke-width="0.5" stroke-miterlimit="10" stroke-dasharray="2.0433,2.0433" x1="124.5" y1="204.7" x2="177.8" y2="176.6"/>
		<line fill="none" stroke="#5F6062" stroke-width="0.5" stroke-miterlimit="10" x1="178.7" y1="176.1" x2="179.6" y2="175.6"/>
		<g>
			<polygon fill="#5F6062" points="182.7,174 179.2,178.1 179.3,175.7 177.3,174.5 			"/>
		</g>
	</g>
</g>
<g>
</g>
<g>
</g>
<g>
</g>
<g>
</g>
<g>
</g>
<g>
</g>
<g>
</g>
</svg>
