<?xml version="1.0" encoding="utf-8"?>
<!-- Generator: Adobe Illustrator 22.1.0, SVG Export Plug-In . SVG Version: 6.00 Build 0)  -->
<svg version="1.1" id="Layer_1" xmlns="http://www.w3.org/2000/svg" xmlns:xlink="http://www.w3.org/1999/xlink" x="0px" y="0px"
	 width="365.1px" height="133.6px" viewBox="0 0 365.1 133.6" enable-background="new 0 0 365.1 133.6" xml:space="preserve">
<rect x="0.3" fill="#DADBDC" width="125.9" height="23.8"/>
<g>
	<path d="M147.5,9.2v1.1c0.3-0.4,0.7-0.7,1.1-0.9C149,9.1,149.5,9,150,9c0.6,0,1.1,0.1,1.6,0.4c0.5,0.3,0.9,0.6,1.1,1.1
		c0.3,0.5,0.4,1,0.4,1.5c0,0.8-0.3,1.5-0.9,2.1S150.9,15,150,15c-1,0-1.9-0.4-2.5-1.3v3.5h1.4c0.1,0,0.2,0,0.3,0.1s0.1,0.1,0.1,0.2
		c0,0.1,0,0.2-0.1,0.2c-0.1,0.1-0.2,0.1-0.3,0.1h-2.8c-0.1,0-0.2,0-0.3-0.1c-0.1-0.1-0.1-0.1-0.1-0.2c0-0.1,0-0.2,0.1-0.2
		c0.1-0.1,0.2-0.1,0.3-0.1h0.8V9.8h-0.8c-0.1,0-0.2,0-0.3-0.1c-0.1-0.1-0.1-0.1-0.1-0.2c0-0.1,0-0.2,0.1-0.2
		c0.1-0.1,0.2-0.1,0.3-0.1H147.5z M152.5,12c0-0.7-0.2-1.2-0.7-1.7c-0.5-0.5-1.1-0.7-1.8-0.7c-0.7,0-1.3,0.2-1.8,0.7s-0.7,1-0.7,1.7
		c0,0.7,0.2,1.2,0.7,1.7c0.5,0.5,1.1,0.7,1.8,0.7c0.7,0,1.3-0.2,1.8-0.7C152.3,13.2,152.5,12.6,152.5,12z"/>
	<path d="M159.8,15.1v-0.8c-0.8,0.7-1.7,1.1-2.7,1.1c-0.7,0-1.2-0.2-1.6-0.5c-0.4-0.4-0.6-0.8-0.6-1.3c0-0.6,0.3-1,0.8-1.5
		c0.5-0.4,1.3-0.6,2.2-0.6c0.3,0,0.6,0,0.9,0.1c0.3,0,0.6,0.1,1,0.2v-0.9c0-0.3-0.1-0.6-0.4-0.8c-0.3-0.2-0.7-0.4-1.3-0.4
		c-0.4,0-1.1,0.1-1.9,0.4c-0.1,0-0.2,0.1-0.3,0.1c-0.1,0-0.1,0-0.2-0.1c-0.1-0.1-0.1-0.1-0.1-0.2c0-0.1,0-0.1,0.1-0.2
		c0.1-0.1,0.3-0.2,0.8-0.3c0.7-0.2,1.3-0.3,1.6-0.3c0.7,0,1.3,0.2,1.7,0.5c0.4,0.4,0.6,0.8,0.6,1.2v3.8h0.8c0.1,0,0.2,0,0.3,0.1
		s0.1,0.1,0.1,0.2c0,0.1,0,0.2-0.1,0.2s-0.2,0.1-0.3,0.1H159.8z M159.8,12.2c-0.3-0.1-0.6-0.1-0.9-0.2c-0.3,0-0.6-0.1-1-0.1
		c-0.8,0-1.5,0.2-2,0.5c-0.4,0.3-0.5,0.6-0.5,1c0,0.3,0.1,0.6,0.4,0.9c0.3,0.2,0.7,0.4,1.2,0.4c0.5,0,1-0.1,1.4-0.3
		c0.4-0.2,0.9-0.5,1.3-1V12.2z"/>
	<path d="M165.4,9.2h3.1c0.1,0,0.2,0,0.3,0.1s0.1,0.1,0.1,0.2c0,0.1,0,0.2-0.1,0.2c-0.1,0.1-0.2,0.1-0.3,0.1h-3.1v3.8
		c0,0.3,0.1,0.6,0.4,0.8s0.7,0.3,1.2,0.3c0.4,0,0.8-0.1,1.3-0.2s0.8-0.2,1.1-0.4c0.1-0.1,0.2-0.1,0.2-0.1c0.1,0,0.1,0,0.2,0.1
		c0.1,0.1,0.1,0.1,0.1,0.2c0,0.1,0,0.1-0.1,0.2c-0.1,0.2-0.5,0.3-1.1,0.5c-0.6,0.2-1.1,0.3-1.6,0.3c-0.7,0-1.2-0.2-1.6-0.5
		c-0.4-0.3-0.6-0.7-0.6-1.3V9.8h-1.1c-0.1,0-0.2,0-0.3-0.1c-0.1-0.1-0.1-0.1-0.1-0.2c0-0.1,0-0.2,0.1-0.2s0.2-0.1,0.3-0.1h1.1V7.5
		c0-0.1,0-0.2,0.1-0.3c0.1-0.1,0.1-0.1,0.2-0.1c0.1,0,0.2,0,0.2,0.1c0.1,0.1,0.1,0.2,0.1,0.3V9.2z"/>
	<path d="M173.8,9.2h3.1c0.1,0,0.2,0,0.3,0.1s0.1,0.1,0.1,0.2c0,0.1,0,0.2-0.1,0.2c-0.1,0.1-0.2,0.1-0.3,0.1h-3.1v3.8
		c0,0.3,0.1,0.6,0.4,0.8s0.7,0.3,1.2,0.3c0.4,0,0.8-0.1,1.3-0.2s0.8-0.2,1.1-0.4c0.1-0.1,0.2-0.1,0.2-0.1c0.1,0,0.1,0,0.2,0.1
		c0.1,0.1,0.1,0.1,0.1,0.2c0,0.1,0,0.1-0.1,0.2c-0.1,0.2-0.5,0.3-1.1,0.5c-0.6,0.2-1.1,0.3-1.6,0.3c-0.7,0-1.2-0.2-1.6-0.5
		c-0.4-0.3-0.6-0.7-0.6-1.3V9.8h-1.1c-0.1,0-0.2,0-0.3-0.1c-0.1-0.1-0.1-0.1-0.1-0.2c0-0.1,0-0.2,0.1-0.2s0.2-0.1,0.3-0.1h1.1V7.5
		c0-0.1,0-0.2,0.1-0.3c0.1-0.1,0.1-0.1,0.2-0.1c0.1,0,0.2,0,0.2,0.1c0.1,0.1,0.1,0.2,0.1,0.3V9.2z"/>
	<path d="M186.6,12.3h-5.9c0.1,0.7,0.4,1.3,0.9,1.8s1.2,0.7,1.9,0.7c0.4,0,0.9-0.1,1.4-0.2c0.5-0.1,0.9-0.3,1.2-0.6
		c0.1-0.1,0.2-0.1,0.2-0.1c0.1,0,0.1,0,0.2,0.1c0.1,0.1,0.1,0.1,0.1,0.2c0,0.1,0,0.2-0.1,0.2c-0.2,0.2-0.6,0.4-1.2,0.6
		c-0.6,0.2-1.1,0.3-1.7,0.3c-1,0-1.8-0.3-2.5-1c-0.7-0.6-1-1.4-1-2.4c0-0.8,0.3-1.6,0.9-2.2c0.6-0.6,1.4-0.9,2.3-0.9
		c0.9,0,1.7,0.3,2.3,0.9C186.3,10.5,186.6,11.3,186.6,12.3z M186,11.7c-0.1-0.6-0.4-1.2-0.9-1.6c-0.5-0.4-1.1-0.6-1.7-0.6
		s-1.3,0.2-1.7,0.6c-0.5,0.4-0.8,0.9-0.9,1.6H186z"/>
	<path d="M191.2,9.2v1.5c0.8-0.7,1.3-1.1,1.7-1.3c0.4-0.2,0.7-0.3,1-0.3c0.3,0,0.7,0.1,1,0.3c0.3,0.2,0.4,0.4,0.4,0.5
		c0,0.1,0,0.2-0.1,0.2c-0.1,0.1-0.1,0.1-0.2,0.1c0,0-0.1,0-0.1,0c0,0-0.1-0.1-0.2-0.2c-0.2-0.2-0.3-0.3-0.4-0.3s-0.2-0.1-0.4-0.1
		c-0.3,0-0.6,0.1-0.9,0.3c-0.4,0.2-1,0.7-1.8,1.5v3.2h2.6c0.1,0,0.2,0,0.3,0.1s0.1,0.1,0.1,0.2c0,0.1,0,0.2-0.1,0.2
		s-0.2,0.1-0.3,0.1h-4.5c-0.1,0-0.2,0-0.3-0.1s-0.1-0.1-0.1-0.2c0-0.1,0-0.1,0.1-0.2c0.1-0.1,0.2-0.1,0.3-0.1h1.4V9.8h-1.1
		c-0.1,0-0.2,0-0.3-0.1c-0.1-0.1-0.1-0.1-0.1-0.2c0-0.1,0-0.2,0.1-0.2c0.1-0.1,0.2-0.1,0.3-0.1H191.2z"/>
	<path d="M198.5,9.2V10c0.4-0.4,0.8-0.7,1.1-0.8c0.3-0.2,0.7-0.2,1.1-0.2c0.4,0,0.8,0.1,1.2,0.3c0.3,0.1,0.5,0.4,0.7,0.7
		s0.3,0.6,0.3,1v3.6h0.5c0.1,0,0.2,0,0.3,0.1s0.1,0.1,0.1,0.2c0,0.1,0,0.2-0.1,0.2s-0.2,0.1-0.3,0.1h-1.5c-0.1,0-0.2,0-0.3-0.1
		c-0.1-0.1-0.1-0.1-0.1-0.2c0-0.1,0-0.2,0.1-0.2c0.1-0.1,0.2-0.1,0.3-0.1h0.5V11c0-0.4-0.1-0.8-0.4-1c-0.3-0.3-0.7-0.4-1.2-0.4
		c-0.4,0-0.7,0.1-1,0.2c-0.3,0.2-0.7,0.5-1.2,1.1v3.6h0.7c0.1,0,0.2,0,0.3,0.1s0.1,0.1,0.1,0.2c0,0.1,0,0.2-0.1,0.2
		s-0.2,0.1-0.3,0.1h-1.9c-0.1,0-0.2,0-0.3-0.1s-0.1-0.1-0.1-0.2c0-0.1,0-0.2,0.1-0.2s0.2-0.1,0.3-0.1h0.7V9.8h-0.5
		c-0.1,0-0.2,0-0.3-0.1c-0.1-0.1-0.1-0.1-0.1-0.2c0-0.1,0-0.2,0.1-0.2c0.1-0.1,0.2-0.1,0.3-0.1H198.5z"/>
	<path d="M208.8,11.7c0-0.5,0.1-1.1,0.2-1.7c0.1-0.6,0.4-1.3,0.8-2c0.4-0.8,0.7-1.2,0.9-1.4c0.1-0.1,0.1-0.1,0.2-0.1
		c0.1,0,0.2,0,0.2,0.1c0.1,0.1,0.1,0.1,0.1,0.2c0,0,0,0.1,0,0.2c-0.5,0.9-0.9,1.8-1.1,2.5c-0.2,0.8-0.3,1.5-0.3,2.3
		c0,0.8,0.1,1.5,0.3,2.3c0.2,0.8,0.6,1.6,1.1,2.5c0,0.1,0,0.1,0,0.2c0,0.1,0,0.1-0.1,0.2c-0.1,0.1-0.1,0.1-0.2,0.1
		c-0.1,0-0.1,0-0.2-0.1c-0.2-0.2-0.4-0.6-0.8-1.4s-0.7-1.4-0.8-2C208.8,12.9,208.8,12.3,208.8,11.7z"/>
	<path d="M216.3,6.5h1.8l-0.5,3.6c0,0.2-0.1,0.3-0.2,0.4c-0.1,0.1-0.2,0.1-0.3,0.1c-0.1,0-0.2,0-0.3-0.1c-0.1-0.1-0.1-0.2-0.2-0.4
		L216.3,6.5z"/>
	<path d="M228.3,7.9V7.5c0-0.1,0-0.2,0.1-0.3s0.1-0.1,0.2-0.1s0.2,0,0.2,0.1c0.1,0.1,0.1,0.2,0.1,0.3v1.6c0,0.1,0,0.2-0.1,0.3
		c-0.1,0.1-0.1,0.1-0.2,0.1c-0.1,0-0.1,0-0.2-0.1c-0.1-0.1-0.1-0.1-0.1-0.3c0-0.4-0.2-0.7-0.6-1c-0.5-0.4-1.1-0.6-1.8-0.6
		c-0.4,0-0.9,0.1-1.3,0.3c-0.3,0.1-0.5,0.3-0.7,0.5c-0.3,0.4-0.5,0.8-0.7,1.2c-0.1,0.3-0.2,0.7-0.2,1.1v1c0,0.9,0.3,1.6,0.9,2.2
		s1.3,1,2.2,1c0.5,0,0.9-0.1,1.3-0.3c0.4-0.2,0.8-0.5,1.1-1c0.1-0.1,0.2-0.1,0.3-0.1c0.1,0,0.1,0,0.2,0.1c0.1,0.1,0.1,0.1,0.1,0.2
		c0,0.1-0.1,0.3-0.3,0.5c-0.4,0.4-0.8,0.7-1.3,1c-0.5,0.2-0.9,0.3-1.4,0.3c-0.4,0-0.8-0.1-1.3-0.2c-0.3-0.1-0.6-0.3-0.8-0.4
		c-0.2-0.2-0.5-0.4-0.8-0.8c-0.3-0.4-0.5-0.8-0.6-1.1c-0.1-0.3-0.2-0.7-0.2-1.1v-1.2c0-0.6,0.2-1.1,0.5-1.7c0.3-0.6,0.7-1,1.3-1.4
		c0.5-0.3,1.1-0.5,1.7-0.5C226.7,6.9,227.6,7.2,228.3,7.9z"/>
	<path d="M232.3,11.2v3.3h4.4v-1.7c0-0.1,0-0.2,0.1-0.3s0.1-0.1,0.2-0.1s0.2,0,0.2,0.1s0.1,0.2,0.1,0.3v2.3h-6.4
		c-0.1,0-0.2,0-0.3-0.1s-0.1-0.1-0.1-0.2c0-0.1,0-0.2,0.1-0.2s0.2-0.1,0.3-0.1h0.8V7.7h-0.8c-0.1,0-0.2,0-0.3-0.1s-0.1-0.1-0.1-0.2
		c0-0.1,0-0.2,0.1-0.2s0.2-0.1,0.3-0.1h6.1v2c0,0.1,0,0.2-0.1,0.3s-0.1,0.1-0.2,0.1s-0.2,0-0.2-0.1c-0.1-0.1-0.1-0.2-0.1-0.3V7.7
		h-4.1v3h2.1V10c0-0.1,0-0.2,0.1-0.3s0.1-0.1,0.2-0.1c0.1,0,0.2,0,0.2,0.1c0.1,0.1,0.1,0.2,0.1,0.3v1.9c0,0.1,0,0.2-0.1,0.3
		c-0.1,0.1-0.1,0.1-0.2,0.1c-0.1,0-0.2,0-0.2-0.1s-0.1-0.2-0.1-0.3v-0.7H232.3z"/>
	<path d="M246.1,11.1c0,0.8-0.2,1.5-0.5,2.1c-0.3,0.7-0.7,1.2-1.3,1.5s-1.1,0.6-1.8,0.6c-0.9,0-1.8-0.4-2.5-1.2s-1.1-1.8-1.1-3
		c0-1.2,0.4-2.3,1.1-3c0.7-0.8,1.5-1.2,2.5-1.2c0.6,0,1.2,0.2,1.8,0.5c0.5,0.4,1,0.9,1.3,1.5C246,9.6,246.1,10.3,246.1,11.1z
		 M245.6,11.1c0-0.9-0.3-1.8-0.8-2.5c-0.5-0.7-1.3-1.1-2.1-1.1c-0.8,0-1.5,0.4-2.1,1.1c-0.6,0.7-0.9,1.6-0.9,2.6
		c0,1.1,0.3,1.9,0.9,2.6s1.3,1,2,1c0.9,0,1.6-0.4,2.1-1.1C245.3,12.9,245.6,12.1,245.6,11.1z"/>
	<path d="M250.9,13.5h0.2c0.3,0,0.5,0.1,0.7,0.3s0.3,0.4,0.3,0.7c0,0.3-0.1,0.5-0.3,0.7c-0.2,0.2-0.4,0.3-0.7,0.3h-0.2
		c-0.3,0-0.5-0.1-0.7-0.3c-0.2-0.2-0.3-0.4-0.3-0.7c0-0.3,0.1-0.5,0.3-0.7C250.5,13.6,250.7,13.5,250.9,13.5z"/>
	<path d="M257.6,11.2v3.3h4.4v-1.7c0-0.1,0-0.2,0.1-0.3s0.1-0.1,0.2-0.1s0.2,0,0.2,0.1s0.1,0.2,0.1,0.3v2.3h-6.4
		c-0.1,0-0.2,0-0.3-0.1c-0.1-0.1-0.1-0.1-0.1-0.2c0-0.1,0-0.2,0.1-0.2c0.1-0.1,0.2-0.1,0.3-0.1h0.8V7.7h-0.8c-0.1,0-0.2,0-0.3-0.1
		c-0.1-0.1-0.1-0.1-0.1-0.2c0-0.1,0-0.2,0.1-0.2c0.1-0.1,0.2-0.1,0.3-0.1h6.1v2c0,0.1,0,0.2-0.1,0.3s-0.1,0.1-0.2,0.1
		s-0.2,0-0.2-0.1c-0.1-0.1-0.1-0.2-0.1-0.3V7.7h-4.1v3h2.1V10c0-0.1,0-0.2,0.1-0.3s0.1-0.1,0.2-0.1c0.1,0,0.2,0,0.2,0.1
		c0.1,0.1,0.1,0.2,0.1,0.3v1.9c0,0.1,0,0.2-0.1,0.3c-0.1,0.1-0.1,0.1-0.2,0.1c-0.1,0-0.2,0-0.2-0.1s-0.1-0.2-0.1-0.3v-0.7H257.6z"/>
	<path d="M270.8,15.1H270l-4.3-7.2v6.6h1.1c0.1,0,0.2,0,0.3,0.1s0.1,0.1,0.1,0.2c0,0.1,0,0.2-0.1,0.2s-0.2,0.1-0.3,0.1h-2.1
		c-0.1,0-0.2,0-0.3-0.1s-0.1-0.1-0.1-0.2c0-0.1,0-0.2,0.1-0.2s0.2-0.1,0.3-0.1h0.5V7.7h-0.8c-0.1,0-0.2,0-0.3-0.1s-0.1-0.1-0.1-0.2
		c0-0.1,0-0.2,0.1-0.2s0.2-0.1,0.3-0.1h1.5l4.3,7.2V7.7h-1.1c-0.1,0-0.2,0-0.3-0.1s-0.1-0.1-0.1-0.2c0-0.1,0-0.2,0.1-0.2
		s0.2-0.1,0.3-0.1h2.1c0.1,0,0.2,0,0.3,0.1s0.1,0.1,0.1,0.2c0,0.1,0,0.2-0.1,0.2s-0.2,0.1-0.3,0.1h-0.5V15.1z"/>
	<path d="M279.6,12.1v2.5c-0.4,0.2-0.9,0.4-1.3,0.5c-0.4,0.1-0.9,0.2-1.3,0.2c-0.6,0-1.2-0.1-1.6-0.3c-0.5-0.2-0.9-0.4-1.2-0.8
		c-0.3-0.3-0.6-0.7-0.8-1.1c-0.2-0.4-0.3-0.9-0.3-1.6v-1.1c0-0.6,0.2-1.2,0.5-1.8c0.3-0.6,0.7-1.1,1.3-1.4c0.5-0.3,1.1-0.5,1.8-0.5
		c0.9,0,1.7,0.3,2.4,0.8c0-0.2,0-0.4,0-0.4c0,0,0-0.1,0.1-0.1c0.1,0,0.1-0.1,0.2-0.1c0.1,0,0.2,0,0.2,0.1s0.1,0.2,0.1,0.3v1.3
		c0,0.1,0,0.2-0.1,0.3s-0.1,0.1-0.2,0.1c-0.1,0-0.1,0-0.2-0.1S279,8.9,279,8.8c0-0.4-0.3-0.7-0.8-1c-0.5-0.2-1-0.4-1.6-0.4
		c-0.5,0-1,0.1-1.4,0.3s-0.8,0.7-1.2,1.3c-0.2,0.4-0.4,0.9-0.4,1.5v1.1c0,1,0.3,1.7,0.9,2.3c0.6,0.6,1.4,0.8,2.4,0.8
		c0.3,0,0.7,0,1-0.1s0.6-0.2,1-0.4v-2.1h-2c-0.1,0-0.2,0-0.3-0.1s-0.1-0.1-0.1-0.2s0-0.2,0.1-0.2c0.1-0.1,0.2-0.1,0.3-0.1l2.8,0
		c0.1,0,0.2,0,0.3,0.1s0.1,0.1,0.1,0.2c0,0.1,0,0.1-0.1,0.2c0,0.1-0.1,0.1-0.1,0.1S279.8,12.1,279.6,12.1z"/>
	<path d="M283,11.5v3h1.1c0.1,0,0.2,0,0.3,0.1c0.1,0.1,0.1,0.1,0.1,0.2c0,0.1,0,0.2-0.1,0.2c-0.1,0.1-0.2,0.1-0.3,0.1h-2.4
		c-0.1,0-0.2,0-0.3-0.1s-0.1-0.1-0.1-0.2c0-0.1,0-0.2,0.1-0.2s0.2-0.1,0.3-0.1h0.8V7.7h-0.8c-0.1,0-0.2,0-0.3-0.1s-0.1-0.1-0.1-0.2
		c0-0.1,0-0.2,0.1-0.2s0.2-0.1,0.3-0.1h3.5c0.7,0,1.3,0.2,1.8,0.7c0.5,0.5,0.7,1,0.7,1.5c0,0.4-0.2,0.8-0.5,1.2
		c-0.3,0.4-0.8,0.7-1.5,0.9c0.4,0.3,0.8,0.6,1.1,1c0.3,0.4,0.8,1.1,1.4,2.2h0.4c0.1,0,0.2,0,0.3,0.1s0.1,0.1,0.1,0.2
		c0,0.1,0,0.2-0.1,0.2s-0.2,0.1-0.3,0.1h-0.8c-0.7-1.3-1.3-2.1-1.7-2.6c-0.4-0.4-0.8-0.8-1.4-1H283z M283,11h1.6
		c0.5,0,1-0.1,1.4-0.3c0.4-0.2,0.7-0.4,0.9-0.6s0.3-0.5,0.3-0.8c0-0.4-0.2-0.8-0.6-1.1c-0.4-0.3-0.9-0.5-1.4-0.5H283V11z"/>
	<path d="M293.2,13.5h0.2c0.3,0,0.5,0.1,0.7,0.3s0.3,0.4,0.3,0.7c0,0.3-0.1,0.5-0.3,0.7c-0.2,0.2-0.4,0.3-0.7,0.3h-0.2
		c-0.3,0-0.5-0.1-0.7-0.3c-0.2-0.2-0.3-0.4-0.3-0.7c0-0.3,0.1-0.5,0.3-0.7C292.7,13.6,292.9,13.5,293.2,13.5z"/>
	<path d="M305.3,11.1c0,0.8-0.2,1.5-0.5,2.1c-0.3,0.7-0.7,1.2-1.3,1.5s-1.1,0.6-1.8,0.6c-0.9,0-1.8-0.4-2.5-1.2s-1.1-1.8-1.1-3
		c0-1.2,0.4-2.3,1.1-3c0.7-0.8,1.5-1.2,2.5-1.2c0.6,0,1.2,0.2,1.8,0.5c0.5,0.4,1,0.9,1.3,1.5C305.1,9.6,305.3,10.3,305.3,11.1z
		 M304.7,11.1c0-0.9-0.3-1.8-0.8-2.5c-0.5-0.7-1.3-1.1-2.1-1.1c-0.8,0-1.5,0.4-2.1,1.1c-0.6,0.7-0.9,1.6-0.9,2.6
		c0,1.1,0.3,1.9,0.9,2.6s1.3,1,2,1c0.9,0,1.6-0.4,2.1-1.1C304.4,12.9,304.7,12.1,304.7,11.1z"/>
	<path d="M310.5,7.7v6.9h1.5c0.1,0,0.2,0,0.3,0.1c0.1,0.1,0.1,0.1,0.1,0.2c0,0.1,0,0.2-0.1,0.2c-0.1,0.1-0.2,0.1-0.3,0.1h-3.6
		c-0.1,0-0.2,0-0.3-0.1s-0.1-0.1-0.1-0.2c0-0.1,0-0.2,0.1-0.2s0.2-0.1,0.3-0.1h1.5V7.7h-2.4v2c0,0.1,0,0.2-0.1,0.3s-0.1,0.1-0.2,0.1
		c-0.1,0-0.2,0-0.2-0.1S307,9.8,307,9.7V7.1h6.5v2.6c0,0.1,0,0.2-0.1,0.3s-0.1,0.1-0.2,0.1c-0.1,0-0.2,0-0.2-0.1s-0.1-0.2-0.1-0.3
		v-2H310.5z"/>
	<path d="M320.6,11.2h-3.8v3.3h0.8c0.1,0,0.2,0,0.3,0.1s0.1,0.1,0.1,0.2c0,0.1,0,0.2-0.1,0.2s-0.2,0.1-0.3,0.1h-2
		c-0.1,0-0.2,0-0.3-0.1s-0.1-0.1-0.1-0.2c0-0.1,0-0.2,0.1-0.2s0.2-0.1,0.3-0.1h0.7V7.7h-0.4c-0.1,0-0.2,0-0.3-0.1s-0.1-0.1-0.1-0.2
		c0-0.1,0-0.2,0.1-0.2s0.2-0.1,0.3-0.1h1.7c0.1,0,0.2,0,0.3,0.1s0.1,0.1,0.1,0.2c0,0.1,0,0.2-0.1,0.2s-0.2,0.1-0.3,0.1h-0.8v3h3.8
		v-3h-0.8c-0.1,0-0.2,0-0.3-0.1s-0.1-0.1-0.1-0.2c0-0.1,0-0.2,0.1-0.2s0.2-0.1,0.3-0.1h1.7c0.1,0,0.2,0,0.3,0.1s0.1,0.1,0.1,0.2
		c0,0.1,0,0.2-0.1,0.2s-0.2,0.1-0.3,0.1h-0.4v6.9h0.7c0.1,0,0.2,0,0.3,0.1s0.1,0.1,0.1,0.2c0,0.1,0,0.2-0.1,0.2s-0.2,0.1-0.3,0.1h-2
		c-0.1,0-0.2,0-0.3-0.1s-0.1-0.1-0.1-0.2c0-0.1,0-0.2,0.1-0.2s0.2-0.1,0.3-0.1h0.8V11.2z"/>
	<path d="M325.2,11.2v3.3h4.4v-1.7c0-0.1,0-0.2,0.1-0.3s0.1-0.1,0.2-0.1s0.2,0,0.2,0.1s0.1,0.2,0.1,0.3v2.3h-6.4
		c-0.1,0-0.2,0-0.3-0.1s-0.1-0.1-0.1-0.2c0-0.1,0-0.2,0.1-0.2s0.2-0.1,0.3-0.1h0.8V7.7h-0.8c-0.1,0-0.2,0-0.3-0.1s-0.1-0.1-0.1-0.2
		c0-0.1,0-0.2,0.1-0.2s0.2-0.1,0.3-0.1h6.1v2c0,0.1,0,0.2-0.1,0.3s-0.1,0.1-0.2,0.1s-0.2,0-0.2-0.1c-0.1-0.1-0.1-0.2-0.1-0.3V7.7
		h-4.1v3h2.1V10c0-0.1,0-0.2,0.1-0.3s0.1-0.1,0.2-0.1c0.1,0,0.2,0,0.2,0.1c0.1,0.1,0.1,0.2,0.1,0.3v1.9c0,0.1,0,0.2-0.1,0.3
		c-0.1,0.1-0.1,0.1-0.2,0.1c-0.1,0-0.2,0-0.2-0.1s-0.1-0.2-0.1-0.3v-0.7H325.2z"/>
	<path d="M333.7,11.5v3h1.1c0.1,0,0.2,0,0.3,0.1c0.1,0.1,0.1,0.1,0.1,0.2c0,0.1,0,0.2-0.1,0.2c-0.1,0.1-0.2,0.1-0.3,0.1h-2.4
		c-0.1,0-0.2,0-0.3-0.1s-0.1-0.1-0.1-0.2c0-0.1,0-0.2,0.1-0.2s0.2-0.1,0.3-0.1h0.8V7.7h-0.8c-0.1,0-0.2,0-0.3-0.1s-0.1-0.1-0.1-0.2
		c0-0.1,0-0.2,0.1-0.2s0.2-0.1,0.3-0.1h3.5c0.7,0,1.3,0.2,1.8,0.7c0.5,0.5,0.7,1,0.7,1.5c0,0.4-0.2,0.8-0.5,1.2
		c-0.3,0.4-0.8,0.7-1.5,0.9c0.4,0.3,0.8,0.6,1.1,1c0.3,0.4,0.8,1.1,1.4,2.2h0.4c0.1,0,0.2,0,0.3,0.1s0.1,0.1,0.1,0.2
		c0,0.1,0,0.2-0.1,0.2s-0.2,0.1-0.3,0.1h-0.8c-0.7-1.3-1.3-2.1-1.7-2.6c-0.4-0.4-0.8-0.8-1.4-1H333.7z M333.7,11h1.6
		c0.5,0,1-0.1,1.4-0.3c0.4-0.2,0.7-0.4,0.9-0.6s0.3-0.5,0.3-0.8c0-0.4-0.2-0.8-0.6-1.1c-0.4-0.3-0.9-0.5-1.4-0.5h-2.1V11z"/>
	<path d="M343.7,8.9v-2c0-0.1,0-0.2,0.1-0.3s0.1-0.1,0.2-0.1c0.1,0,0.2,0,0.2,0.1c0.1,0.1,0.1,0.2,0.1,0.3v2l1.9-0.6
		c0.1,0,0.2,0,0.2,0c0.1,0,0.1,0,0.2,0.1s0.1,0.1,0.1,0.2c0,0.1,0,0.1-0.1,0.2c0,0.1-0.1,0.1-0.2,0.1l-1.9,0.6l1.2,1.6
		c0.1,0.1,0.1,0.2,0.1,0.2c0,0.1,0,0.2-0.1,0.2c-0.1,0.1-0.1,0.1-0.2,0.1c-0.1,0-0.2-0.1-0.3-0.2L344,9.8l-1.2,1.6
		c-0.1,0.1-0.2,0.2-0.3,0.2c-0.1,0-0.2,0-0.2-0.1c-0.1-0.1-0.1-0.1-0.1-0.2c0-0.1,0-0.1,0.1-0.2l1.2-1.6l-1.9-0.6
		c-0.1,0-0.2-0.1-0.2-0.1c0,0-0.1-0.1-0.1-0.2c0-0.1,0-0.1,0.1-0.2c0.1-0.1,0.1-0.1,0.2-0.1c0,0,0.1,0,0.2,0L343.7,8.9z"/>
	<path d="M351.5,6.5h1.8l-0.5,3.6c0,0.2-0.1,0.3-0.2,0.4c-0.1,0.1-0.2,0.1-0.3,0.1c-0.1,0-0.2,0-0.3-0.1c-0.1-0.1-0.1-0.2-0.2-0.4
		L351.5,6.5z"/>
	<path d="M361.1,11.7c0,0.5-0.1,1.1-0.2,1.7s-0.4,1.3-0.8,2s-0.7,1.2-0.9,1.4c-0.1,0.1-0.1,0.1-0.2,0.1c-0.1,0-0.2,0-0.2-0.1
		c-0.1-0.1-0.1-0.1-0.1-0.2c0,0,0-0.1,0-0.2c0.5-0.9,0.9-1.8,1.1-2.5c0.2-0.8,0.3-1.5,0.3-2.3c0-0.8-0.1-1.5-0.3-2.3
		c-0.2-0.8-0.6-1.6-1.1-2.5c0-0.1,0-0.1,0-0.2c0-0.1,0-0.1,0.1-0.2s0.1-0.1,0.2-0.1c0.1,0,0.1,0,0.2,0.1c0.2,0.2,0.4,0.6,0.8,1.4
		c0.4,0.8,0.7,1.4,0.8,2S361.1,11.1,361.1,11.7z"/>
</g>
<polyline fill="none" stroke="#A7A9AC" stroke-width="0.5" stroke-miterlimit="10" points="234.1,19.9 234.1,33.3 129.6,33.3 "/>
<g>
	<path d="M7.7,10.1h1.2v1.4H7.7v4.1c0,0.4,0,0.6,0.8,0.6c0.1,0,0.3,0,0.4,0v1.5c-0.3,0-0.6,0-0.9,0H7.8c-1.7,0-2-0.6-2-1.6v-4.5h-1
		v-1.4h1v-2h2V10.1z"/>
	<path d="M12.2,9.2h-2V7.4h2V9.2z M12.2,10.1v7.5h-2v-7.5H12.2z"/>
	<path d="M16.3,10.1h1.2v1.4h-1.2v4.1c0,0.4,0,0.6,0.8,0.6c0.1,0,0.3,0,0.4,0v1.5c-0.3,0-0.6,0-0.9,0h-0.3c-1.7,0-2-0.6-2-1.6v-4.5
		h-1v-1.4h1v-2h2V10.1z"/>
	<path d="M20.8,17.6h-2V7.5h2V17.6z"/>
	<path d="M29.1,15.4c-0.5,1.8-2,2.4-3.3,2.4c-2.1,0-3.7-1-3.7-4.1c0-0.9,0.3-3.8,3.6-3.8c1.5,0,3.5,0.7,3.5,4.1v0.4h-5.1
		c0.1,0.6,0.2,1.8,1.8,1.8c0.5,0,1.1-0.3,1.3-0.8H29.1z M27.2,13.1c-0.1-1.2-0.9-1.6-1.5-1.6c-0.9,0-1.4,0.6-1.5,1.6H27.2z"/>
	<path d="M12.8,32.4c-0.4-1.8-1.9-2.1-2.8-2.1c-1.8,0-3.3,1.4-3.3,4c0,2.4,0.8,4.2,3.4,4.2c0.9,0,2.4-0.4,2.9-2.8h1.3
		c-0.6,3.8-3.7,4-4.4,4c-2.3,0-4.5-1.5-4.5-5.4c0-3.1,1.8-5.3,4.7-5.3c2.6,0,4,1.6,4.2,3.3H12.8z"/>
	<path d="M21.7,39.5h-1.2v-4.8c0-1-0.3-1.6-1.5-1.6c-1,0-2.1,0.6-2.1,2.5v4h-1.2V29.4h1.2v3.7h0c0.4-0.5,1-1.2,2.2-1.2
		c1.1,0,2.6,0.5,2.6,2.6V39.5z"/>
	<path d="M23.5,30.8v-1.4h1.2v1.4H23.5z M24.8,39.5h-1.2v-7.4h1.2V39.5z"/>
	<path d="M32.9,37.2c0,0.4-0.4,1.4-1.3,2c-0.3,0.2-0.8,0.5-2,0.5c-2.1,0-3.3-1.6-3.3-3.7c0-2.3,1.1-4.1,3.5-4.1
		c2.1,0,3.2,1.7,3.2,4.3h-5.4c0,1.5,0.7,2.4,2.1,2.4c1.2,0,1.9-0.9,1.9-1.5H32.9z M31.7,35.2c-0.1-1.1-0.5-2.2-2.1-2.2
		c-1.1,0-2,1.1-2,2.2H31.7z"/>
	<path d="M36,33.1v6.3h-1.2v-6.3h-1v-1h1v-1.3c0-1.1,0.7-1.6,1.9-1.6c0.2,0,0.4,0,0.6,0v1.1c-0.2,0-0.4,0-0.5,0
		c-0.5,0-0.7,0.3-0.7,0.9v0.9h1.2v1H36z"/>
	<path d="M50,39.5h-7.5V29.4h7.4v1.2h-6v3.1h5.5v1.2h-5.5v3.4H50V39.5z"/>
	<path d="M57.7,39.5h-1.6l-1.8-2.8l-1.8,2.8h-1.6l2.6-3.8L51,32.1h1.6l1.7,2.6l1.7-2.6h1.5l-2.5,3.6L57.7,39.5z"/>
	<path d="M64.5,37.2c0,0.4-0.4,1.4-1.3,2c-0.3,0.2-0.8,0.5-2,0.5c-2.1,0-3.3-1.6-3.3-3.7c0-2.3,1.1-4.1,3.5-4.1
		c2.1,0,3.2,1.7,3.2,4.3h-5.4c0,1.5,0.7,2.4,2.1,2.4c1.2,0,1.9-0.9,1.9-1.5H64.5z M63.4,35.2c-0.1-1.1-0.5-2.2-2.1-2.2
		c-1.1,0-2,1.1-2,2.2H63.4z"/>
	<path d="M70.7,34.6C70.6,33.6,70,33,69,33c-1.5,0-2,1.5-2,2.8c0,1.3,0.3,2.8,2,2.8c0.8,0,1.5-0.6,1.8-1.7h1.2
		c-0.1,1.2-0.8,2.8-3,2.8c-2.1,0-3.3-1.6-3.3-3.7c0-2.3,1.1-4.1,3.5-4.1c1.9,0,2.7,1.4,2.8,2.7H70.7z"/>
	<path d="M81.6,39.8c-3.8,0-4.9-3.1-4.9-5.3s1.2-5.3,4.9-5.3s4.9,3.1,4.9,5.3S85.4,39.8,81.6,39.8z M81.6,30.3
		c-2.2,0-3.5,1.7-3.5,4.1s1.3,4.1,3.5,4.1c2.2,0,3.5-1.7,3.5-4.1S83.8,30.3,81.6,30.3z"/>
	<path d="M89.6,33.1v6.3h-1.2v-6.3h-1v-1h1v-1.3c0-1.1,0.7-1.6,1.9-1.6c0.2,0,0.4,0,0.6,0v1.1c-0.2,0-0.4,0-0.5,0
		c-0.5,0-0.7,0.3-0.7,0.9v0.9h1.2v1H89.6z"/>
	<path d="M93.5,33.1v6.3h-1.2v-6.3h-1v-1h1v-1.3c0-1.1,0.7-1.6,1.9-1.6c0.2,0,0.4,0,0.6,0v1.1c-0.2,0-0.4,0-0.5,0
		c-0.5,0-0.7,0.3-0.7,0.9v0.9h1.2v1H93.5z"/>
	<path d="M95.9,30.8v-1.4h1.2v1.4H95.9z M97.1,39.5h-1.2v-7.4h1.2V39.5z"/>
	<path d="M103.6,34.6c-0.2-1-0.7-1.6-1.7-1.6c-1.5,0-2,1.5-2,2.8c0,1.3,0.3,2.8,2,2.8c0.8,0,1.5-0.6,1.8-1.7h1.2
		c-0.1,1.2-0.8,2.8-3,2.8c-2.1,0-3.3-1.6-3.3-3.7c0-2.3,1.1-4.1,3.5-4.1c1.9,0,2.7,1.4,2.8,2.7H103.6z"/>
	<path d="M112.3,37.2c0,0.4-0.4,1.4-1.3,2c-0.3,0.2-0.8,0.5-2,0.5c-2.1,0-3.3-1.6-3.3-3.7c0-2.3,1.1-4.1,3.5-4.1
		c2.1,0,3.2,1.7,3.2,4.3H107c0,1.5,0.7,2.4,2.1,2.4c1.2,0,1.9-0.9,1.9-1.5H112.3z M111.1,35.2c-0.1-1.1-0.5-2.2-2.1-2.2
		c-1.1,0-2,1.1-2,2.2H111.1z"/>
	<path d="M115.3,39.5H114v-7.4h1.2v1.2h0c0.5-0.9,1.1-1.4,2.1-1.4c0.2,0,0.2,0,0.3,0v1.3h-0.5c-1.2,0-1.9,0.9-1.9,2V39.5z"/>
	<path d="M11.8,54.2c-0.1-1.6-1.4-2.1-2.5-2.1c-0.9,0-2.3,0.2-2.3,1.8c0,0.9,0.6,1.1,1.2,1.3l2.9,0.7c1.3,0.3,2.3,1.1,2.3,2.7
		c0,2.4-2.2,3.1-4,3.1c-1.9,0-2.6-0.6-3.1-1c-0.9-0.8-1-1.6-1-2.6h1.3c0,1.8,1.5,2.4,2.8,2.4c1,0,2.6-0.3,2.6-1.7
		c0-1.1-0.5-1.4-2.2-1.8l-2.1-0.5c-0.7-0.2-2.2-0.6-2.2-2.4c0-1.6,1-3.1,3.5-3.1c3.5,0,3.9,2.1,3.9,3.2H11.8z"/>
	<path d="M17.9,53.8c2.4,0,3.4,2,3.4,3.9s-1.1,3.9-3.4,3.9c-2.4,0-3.4-2-3.4-3.9S15.5,53.8,17.9,53.8z M17.9,60.5
		c1.8,0,2.1-1.8,2.1-2.8s-0.4-2.8-2.1-2.8c-1.8,0-2.1,1.8-2.1,2.8S16.1,60.5,17.9,60.5z"/>
	<path d="M24.3,55v6.3H23V55h-1v-1h1v-1.3c0-1.1,0.7-1.6,1.9-1.6c0.2,0,0.4,0,0.6,0v1.1c-0.2,0-0.4,0-0.5,0c-0.5,0-0.7,0.3-0.7,0.9
		V54h1.2v1H24.3z"/>
	<path d="M28.2,55v4.8c0,0.6,0.5,0.6,0.7,0.6h0.4v1c-0.5,0-0.8,0.1-0.9,0.1c-1.2,0-1.5-0.7-1.5-1.6V55h-1v-1h1V52h1.2V54h1.2v1H28.2
		z"/>
	<path d="M33.2,61.4H32L29.8,54h1.4l1.4,5.8h0L34,54h1.4l1.4,5.8h0l1.5-5.8h1.2l-2.1,7.4h-1.3l-1.5-5.7h0L33.2,61.4z"/>
	<path d="M40.5,56.3c0.1-1.8,1.2-2.5,3-2.5c0.6,0,2.7,0.2,2.7,2.1v4.2c0,0.3,0.2,0.4,0.4,0.4c0.1,0,0.3,0,0.4-0.1v0.9
		c-0.2,0.1-0.4,0.1-0.7,0.1c-1.1,0-1.3-0.6-1.3-1.1c-0.5,0.5-1.2,1.2-2.7,1.2c-1.4,0-2.3-0.9-2.3-2.1c0-0.6,0.2-2.1,2.2-2.3l2-0.3
		c0.3,0,0.6-0.1,0.6-0.9c0-0.8-0.6-1.2-1.7-1.2c-1.4,0-1.6,0.9-1.7,1.4H40.5z M45,57.6c-0.2,0.2-0.5,0.3-2,0.5
		c-0.6,0.1-1.6,0.3-1.6,1.2c0,0.8,0.4,1.3,1.3,1.3c1.2,0,2.3-0.7,2.3-1.7V57.6z"/>
	<path d="M49.7,61.4h-1.2V54h1.2v1.2h0c0.5-0.9,1.1-1.4,2.1-1.4c0.2,0,0.2,0,0.3,0v1.3h-0.5c-1.2,0-1.9,0.9-1.9,2V61.4z"/>
	<path d="M59.3,59.1c0,0.4-0.4,1.4-1.3,2c-0.3,0.2-0.8,0.5-2,0.5c-2.1,0-3.3-1.6-3.3-3.7c0-2.3,1.1-4.1,3.5-4.1
		c2.1,0,3.2,1.7,3.2,4.3H54c0,1.5,0.7,2.4,2.1,2.4c1.2,0,1.9-0.9,1.9-1.5H59.3z M58.1,57.1C58,56,57.5,54.9,56,54.9
		c-1.1,0-2,1.1-2,2.2H58.1z"/>
	<path d="M72.5,61.4h-7.5V51.3h7.4v1.2h-6v3.1H72v1.2h-5.5v3.4h6.1V61.4z"/>
	<path d="M80.2,61.4h-1.2v-4.5c0-1.3-0.4-1.9-1.6-1.9c-0.7,0-1.9,0.5-1.9,2.5v4h-1.2V54h1.2v1h0c0.3-0.4,1-1.3,2.2-1.3
		c1.1,0,2.6,0.5,2.6,2.6V61.4z"/>
	<path d="M88.1,60.8c0,1.1,0,3.7-3.4,3.7c-0.9,0-2.6-0.2-2.8-2.2h1.2c0.2,1.2,1.4,1.2,1.7,1.2c2.1,0,2.1-1.7,2.1-2.6v-0.3h0v0.1
		c-0.3,0.5-1,1-2,1c-2.5,0-3.2-2.4-3.2-4.1c0-2.1,1.1-3.7,3.1-3.7c1.3,0,1.9,0.8,2.2,1.3h0v-1h1.2V60.8z M84.9,60.5
		c0.8,0,2-0.5,2-2.5c0-1.2-0.2-3.1-2-3.1c-1.9,0-2,1.8-2,2.8C82.9,59.3,83.5,60.5,84.9,60.5z"/>
	<path d="M89.8,52.7v-1.4h1.2v1.4H89.8z M91.1,61.4h-1.2V54h1.2V61.4z"/>
	<path d="M98.9,61.4h-1.2v-4.5c0-1.3-0.4-1.9-1.6-1.9c-0.7,0-1.9,0.5-1.9,2.5v4h-1.2V54h1.2v1h0c0.3-0.4,1-1.3,2.2-1.3
		c1.1,0,2.6,0.5,2.6,2.6V61.4z"/>
	<path d="M107,59.1c0,0.4-0.4,1.4-1.3,2c-0.3,0.2-0.8,0.5-2,0.5c-2.1,0-3.3-1.6-3.3-3.7c0-2.3,1.1-4.1,3.5-4.1
		c2.1,0,3.2,1.7,3.2,4.3h-5.4c0,1.5,0.7,2.4,2.1,2.4c1.2,0,1.9-0.9,1.9-1.5H107z M105.8,57.1c-0.1-1.1-0.5-2.2-2.1-2.2
		c-1.1,0-2,1.1-2,2.2H105.8z"/>
	<path d="M114.8,59.1c0,0.4-0.4,1.4-1.3,2c-0.3,0.2-0.8,0.5-2,0.5c-2.1,0-3.3-1.6-3.3-3.7c0-2.3,1.1-4.1,3.5-4.1
		c2.1,0,3.2,1.7,3.2,4.3h-5.4c0,1.5,0.7,2.4,2.1,2.4c1.2,0,1.9-0.9,1.9-1.5H114.8z M113.7,57.1c-0.1-1.1-0.5-2.2-2.1-2.2
		c-1.1,0-2,1.1-2,2.2H113.7z"/>
	<path d="M117.8,61.4h-1.2V54h1.2v1.2h0c0.5-0.9,1.1-1.4,2.1-1.4c0.2,0,0.2,0,0.3,0v1.3h-0.5c-1.2,0-1.9,0.9-1.9,2V61.4z"/>
	<path d="M11.8,76.1c-0.1-1.6-1.4-2.1-2.5-2.1c-0.9,0-2.3,0.2-2.3,1.8c0,0.9,0.6,1.1,1.2,1.3l2.9,0.7c1.3,0.3,2.3,1.1,2.3,2.7
		c0,2.4-2.2,3.1-4,3.1c-1.9,0-2.6-0.6-3.1-1c-0.9-0.8-1-1.6-1-2.6h1.3c0,1.8,1.5,2.4,2.8,2.4c1,0,2.6-0.3,2.6-1.7
		c0-1.1-0.5-1.4-2.2-1.8l-2.1-0.5c-0.7-0.2-2.2-0.6-2.2-2.4c0-1.6,1-3.1,3.5-3.1c3.5,0,3.9,2.1,3.9,3.2H11.8z"/>
	<path d="M17.9,75.7c2.4,0,3.4,2,3.4,3.9s-1.1,3.9-3.4,3.9c-2.4,0-3.4-2-3.4-3.9S15.5,75.7,17.9,75.7z M17.9,82.4
		c1.8,0,2.1-1.8,2.1-2.8s-0.4-2.8-2.1-2.8c-1.8,0-2.1,1.8-2.1,2.8S16.1,82.4,17.9,82.4z"/>
	<path d="M24.3,76.9v6.3H23v-6.3h-1v-1h1v-1.3c0-1.1,0.7-1.6,1.9-1.6c0.2,0,0.4,0,0.6,0v1.1c-0.2,0-0.4,0-0.5,0
		c-0.5,0-0.7,0.3-0.7,0.9v0.9h1.2v1H24.3z"/>
	<path d="M28.2,76.9v4.8c0,0.6,0.5,0.6,0.7,0.6h0.4v1c-0.5,0-0.8,0.1-0.9,0.1c-1.2,0-1.5-0.7-1.5-1.6v-4.9h-1v-1h1v-2.1h1.2v2.1h1.2
		v1H28.2z"/>
	<path d="M33.2,83.3H32l-2.1-7.4h1.4l1.4,5.8h0l1.4-5.8h1.4l1.4,5.8h0l1.5-5.8h1.2l-2.1,7.4h-1.3l-1.5-5.7h0L33.2,83.3z"/>
	<path d="M40.5,78.2c0.1-1.8,1.2-2.5,3-2.5c0.6,0,2.7,0.2,2.7,2.1V82c0,0.3,0.2,0.4,0.4,0.4c0.1,0,0.3,0,0.4-0.1v0.9
		c-0.2,0.1-0.4,0.1-0.7,0.1c-1.1,0-1.3-0.6-1.3-1.1c-0.5,0.5-1.2,1.2-2.7,1.2c-1.4,0-2.3-0.9-2.3-2.1c0-0.6,0.2-2.1,2.2-2.3l2-0.3
		c0.3,0,0.6-0.1,0.6-0.9c0-0.8-0.6-1.2-1.7-1.2c-1.4,0-1.6,0.9-1.7,1.4H40.5z M45,79.5c-0.2,0.2-0.5,0.3-2,0.5
		c-0.6,0.1-1.6,0.3-1.6,1.2c0,0.8,0.4,1.3,1.3,1.3c1.2,0,2.3-0.7,2.3-1.7V79.5z"/>
	<path d="M49.7,83.3h-1.2v-7.4h1.2v1.2h0c0.5-0.9,1.1-1.4,2.1-1.4c0.2,0,0.2,0,0.3,0V77h-0.5c-1.2,0-1.9,0.9-1.9,2V83.3z"/>
	<path d="M59.3,81c0,0.4-0.4,1.4-1.3,2c-0.3,0.2-0.8,0.5-2,0.5c-2.1,0-3.3-1.6-3.3-3.7c0-2.3,1.1-4.1,3.5-4.1c2.1,0,3.2,1.7,3.2,4.3
		H54c0,1.5,0.7,2.4,2.1,2.4c1.2,0,1.9-0.9,1.9-1.5H59.3z M58.1,79c-0.1-1.1-0.5-2.2-2.1-2.2c-1.1,0-2,1.1-2,2.2H58.1z"/>
	<path d="M72.5,83.3h-7.5V73.2h7.4v1.2h-6v3.1H72v1.2h-5.5v3.4h6.1V83.3z"/>
	<path d="M80.2,83.3h-1.2v-4.5c0-1.3-0.4-1.9-1.6-1.9c-0.7,0-1.9,0.5-1.9,2.5v4h-1.2v-7.4h1.2v1h0c0.3-0.4,1-1.3,2.2-1.3
		c1.1,0,2.6,0.5,2.6,2.6V83.3z"/>
	<path d="M88.1,82.7c0,1.1,0,3.7-3.4,3.7c-0.9,0-2.6-0.2-2.8-2.2h1.2c0.2,1.2,1.4,1.2,1.7,1.2c2.1,0,2.1-1.7,2.1-2.6v-0.3h0v0.1
		c-0.3,0.5-1,1-2,1c-2.5,0-3.2-2.4-3.2-4.1c0-2.1,1.1-3.7,3.1-3.7c1.3,0,1.9,0.8,2.2,1.3h0v-1h1.2V82.7z M84.9,82.4
		c0.8,0,2-0.5,2-2.5c0-1.2-0.2-3.1-2-3.1c-1.9,0-2,1.8-2,2.8C82.9,81.2,83.5,82.4,84.9,82.4z"/>
	<path d="M89.8,74.6v-1.4h1.2v1.4H89.8z M91.1,83.3h-1.2v-7.4h1.2V83.3z"/>
	<path d="M98.9,83.3h-1.2v-4.5c0-1.3-0.4-1.9-1.6-1.9c-0.7,0-1.9,0.5-1.9,2.5v4h-1.2v-7.4h1.2v1h0c0.3-0.4,1-1.3,2.2-1.3
		c1.1,0,2.6,0.5,2.6,2.6V83.3z"/>
	<path d="M107,81c0,0.4-0.4,1.4-1.3,2c-0.3,0.2-0.8,0.5-2,0.5c-2.1,0-3.3-1.6-3.3-3.7c0-2.3,1.1-4.1,3.5-4.1c2.1,0,3.2,1.7,3.2,4.3
		h-5.4c0,1.5,0.7,2.4,2.1,2.4c1.2,0,1.9-0.9,1.9-1.5H107z M105.8,79c-0.1-1.1-0.5-2.2-2.1-2.2c-1.1,0-2,1.1-2,2.2H105.8z"/>
	<path d="M114.8,81c0,0.4-0.4,1.4-1.3,2c-0.3,0.2-0.8,0.5-2,0.5c-2.1,0-3.3-1.6-3.3-3.7c0-2.3,1.1-4.1,3.5-4.1
		c2.1,0,3.2,1.7,3.2,4.3h-5.4c0,1.5,0.7,2.4,2.1,2.4c1.2,0,1.9-0.9,1.9-1.5H114.8z M113.7,79c-0.1-1.1-0.5-2.2-2.1-2.2
		c-1.1,0-2,1.1-2,2.2H113.7z"/>
	<path d="M117.8,83.3h-1.2v-7.4h1.2v1.2h0c0.5-0.9,1.1-1.4,2.1-1.4c0.2,0,0.2,0,0.3,0V77h-0.5c-1.2,0-1.9,0.9-1.9,2V83.3z"/>
	<path d="M12.8,98.1c-0.4-1.8-1.9-2.1-2.8-2.1c-1.8,0-3.3,1.4-3.3,4c0,2.4,0.8,4.2,3.4,4.2c0.9,0,2.4-0.4,2.9-2.8h1.3
		c-0.6,3.8-3.7,4-4.4,4c-2.3,0-4.5-1.5-4.5-5.4c0-3.1,1.8-5.3,4.7-5.3c2.6,0,4,1.6,4.2,3.3H12.8z"/>
	<path d="M21.7,105.2h-1.2v-4.8c0-1-0.3-1.6-1.5-1.6c-1,0-2.1,0.6-2.1,2.5v4h-1.2V95.1h1.2v3.7h0c0.4-0.5,1-1.2,2.2-1.2
		c1.1,0,2.6,0.5,2.6,2.6V105.2z"/>
	<path d="M23.5,96.5v-1.4h1.2v1.4H23.5z M24.8,105.2h-1.2v-7.4h1.2V105.2z"/>
	<path d="M32.9,102.9c0,0.4-0.4,1.4-1.3,2c-0.3,0.2-0.8,0.5-2,0.5c-2.1,0-3.3-1.6-3.3-3.7c0-2.3,1.1-4.1,3.5-4.1
		c2.1,0,3.2,1.7,3.2,4.3h-5.4c0,1.5,0.7,2.4,2.1,2.4c1.2,0,1.9-0.9,1.9-1.5H32.9z M31.7,100.9c-0.1-1.1-0.5-2.2-2.1-2.2
		c-1.1,0-2,1.1-2,2.2H31.7z"/>
	<path d="M36,98.9v6.3h-1.2v-6.3h-1v-1h1v-1.3c0-1.1,0.7-1.6,1.9-1.6c0.2,0,0.4,0,0.6,0v1.1c-0.2,0-0.4,0-0.5,0
		c-0.5,0-0.7,0.3-0.7,0.9v0.9h1.2v1H36z"/>
	<path d="M50,105.2h-7.5V95.1h7.4v1.2h-6v3.1h5.5v1.2h-5.5v3.4H50V105.2z"/>
	<path d="M57.7,105.2h-1.6l-1.8-2.8l-1.8,2.8h-1.6l2.6-3.8L51,97.8h1.6l1.7,2.6l1.7-2.6h1.5l-2.5,3.6L57.7,105.2z"/>
	<path d="M64.5,102.9c0,0.4-0.4,1.4-1.3,2c-0.3,0.2-0.8,0.5-2,0.5c-2.1,0-3.3-1.6-3.3-3.7c0-2.3,1.1-4.1,3.5-4.1
		c2.1,0,3.2,1.7,3.2,4.3h-5.4c0,1.5,0.7,2.4,2.1,2.4c1.2,0,1.9-0.9,1.9-1.5H64.5z M63.4,100.9c-0.1-1.1-0.5-2.2-2.1-2.2
		c-1.1,0-2,1.1-2,2.2H63.4z"/>
	<path d="M70.7,100.3c-0.2-1-0.7-1.6-1.7-1.6c-1.5,0-2,1.5-2,2.8c0,1.3,0.3,2.8,2,2.8c0.8,0,1.5-0.6,1.8-1.7h1.2
		c-0.1,1.2-0.8,2.8-3,2.8c-2.1,0-3.3-1.6-3.3-3.7c0-2.3,1.1-4.1,3.5-4.1c1.9,0,2.7,1.4,2.8,2.7H70.7z"/>
	<path d="M81.6,105.5c-3.8,0-4.9-3.1-4.9-5.3c0-2.2,1.2-5.3,4.9-5.3s4.9,3.1,4.9,5.3C86.6,102.3,85.4,105.5,81.6,105.5z M81.6,96
		c-2.2,0-3.5,1.7-3.5,4.1c0,2.4,1.3,4.1,3.5,4.1c2.2,0,3.5-1.7,3.5-4.1C85.2,97.8,83.8,96,81.6,96z"/>
	<path d="M89.6,98.9v6.3h-1.2v-6.3h-1v-1h1v-1.3c0-1.1,0.7-1.6,1.9-1.6c0.2,0,0.4,0,0.6,0v1.1c-0.2,0-0.4,0-0.5,0
		c-0.5,0-0.7,0.3-0.7,0.9v0.9h1.2v1H89.6z"/>
	<path d="M93.5,98.9v6.3h-1.2v-6.3h-1v-1h1v-1.3c0-1.1,0.7-1.6,1.9-1.6c0.2,0,0.4,0,0.6,0v1.1c-0.2,0-0.4,0-0.5,0
		c-0.5,0-0.7,0.3-0.7,0.9v0.9h1.2v1H93.5z"/>
	<path d="M95.9,96.5v-1.4h1.2v1.4H95.9z M97.1,105.2h-1.2v-7.4h1.2V105.2z"/>
	<path d="M103.6,100.3c-0.2-1-0.7-1.6-1.7-1.6c-1.5,0-2,1.5-2,2.8c0,1.3,0.3,2.8,2,2.8c0.8,0,1.5-0.6,1.8-1.7h1.2
		c-0.1,1.2-0.8,2.8-3,2.8c-2.1,0-3.3-1.6-3.3-3.7c0-2.3,1.1-4.1,3.5-4.1c1.9,0,2.7,1.4,2.8,2.7H103.6z"/>
	<path d="M112.3,102.9c0,0.4-0.4,1.4-1.3,2c-0.3,0.2-0.8,0.5-2,0.5c-2.1,0-3.3-1.6-3.3-3.7c0-2.3,1.1-4.1,3.5-4.1
		c2.1,0,3.2,1.7,3.2,4.3H107c0,1.5,0.7,2.4,2.1,2.4c1.2,0,1.9-0.9,1.9-1.5H112.3z M111.1,100.9c-0.1-1.1-0.5-2.2-2.1-2.2
		c-1.1,0-2,1.1-2,2.2H111.1z"/>
	<path d="M115.3,105.2H114v-7.4h1.2V99h0c0.5-0.9,1.1-1.4,2.1-1.4c0.2,0,0.2,0,0.3,0v1.3h-0.5c-1.2,0-1.9,0.9-1.9,2V105.2z"/>
	<path d="M12.8,120c-0.4-1.8-1.9-2.1-2.8-2.1c-1.8,0-3.3,1.4-3.3,4c0,2.4,0.8,4.2,3.4,4.2c0.9,0,2.4-0.4,2.9-2.8h1.3
		c-0.6,3.8-3.7,4-4.4,4c-2.3,0-4.5-1.5-4.5-5.4c0-3.1,1.8-5.3,4.7-5.3c2.6,0,4,1.6,4.2,3.3H12.8z"/>
	<path d="M21.7,127.1h-1.2v-4.8c0-1-0.3-1.6-1.5-1.6c-1,0-2.1,0.6-2.1,2.5v4h-1.2V117h1.2v3.7h0c0.4-0.5,1-1.2,2.2-1.2
		c1.1,0,2.6,0.5,2.6,2.6V127.1z"/>
	<path d="M23.5,118.4V117h1.2v1.4H23.5z M24.8,127.1h-1.2v-7.4h1.2V127.1z"/>
	<path d="M32.9,124.8c0,0.4-0.4,1.4-1.3,2c-0.3,0.2-0.8,0.5-2,0.5c-2.1,0-3.3-1.6-3.3-3.7c0-2.3,1.1-4.1,3.5-4.1
		c2.1,0,3.2,1.7,3.2,4.3h-5.4c0,1.5,0.7,2.4,2.1,2.4c1.2,0,1.9-0.9,1.9-1.5H32.9z M31.7,122.8c-0.1-1.1-0.5-2.2-2.1-2.2
		c-1.1,0-2,1.1-2,2.2H31.7z"/>
	<path d="M36,120.8v6.3h-1.2v-6.3h-1v-1h1v-1.3c0-1.1,0.7-1.6,1.9-1.6c0.2,0,0.4,0,0.6,0v1.1c-0.2,0-0.4,0-0.5,0
		c-0.5,0-0.7,0.3-0.7,0.9v0.9h1.2v1H36z"/>
	<path d="M50,127.1h-7.5V117h7.4v1.2h-6v3.1h5.5v1.2h-5.5v3.4H50V127.1z"/>
	<path d="M57.7,127.1h-1.6l-1.8-2.8l-1.8,2.8h-1.6l2.6-3.8l-2.5-3.6h1.6l1.7,2.6l1.7-2.6h1.5l-2.5,3.6L57.7,127.1z"/>
	<path d="M64.5,124.8c0,0.4-0.4,1.4-1.3,2c-0.3,0.2-0.8,0.5-2,0.5c-2.1,0-3.3-1.6-3.3-3.7c0-2.3,1.1-4.1,3.5-4.1
		c2.1,0,3.2,1.7,3.2,4.3h-5.4c0,1.5,0.7,2.4,2.1,2.4c1.2,0,1.9-0.9,1.9-1.5H64.5z M63.4,122.8c-0.1-1.1-0.5-2.2-2.1-2.2
		c-1.1,0-2,1.1-2,2.2H63.4z"/>
	<path d="M70.7,122.2c-0.2-1-0.7-1.6-1.7-1.6c-1.5,0-2,1.5-2,2.8c0,1.3,0.3,2.8,2,2.8c0.8,0,1.5-0.6,1.8-1.7h1.2
		c-0.1,1.2-0.8,2.8-3,2.8c-2.1,0-3.3-1.6-3.3-3.7c0-2.3,1.1-4.1,3.5-4.1c1.9,0,2.7,1.4,2.8,2.7H70.7z"/>
	<path d="M81.6,127.4c-3.8,0-4.9-3.1-4.9-5.3c0-2.2,1.2-5.3,4.9-5.3s4.9,3.1,4.9,5.3C86.6,124.2,85.4,127.4,81.6,127.4z M81.6,117.9
		c-2.2,0-3.5,1.7-3.5,4.1c0,2.4,1.3,4.1,3.5,4.1c2.2,0,3.5-1.7,3.5-4.1C85.2,119.7,83.8,117.9,81.6,117.9z"/>
	<path d="M89.6,120.8v6.3h-1.2v-6.3h-1v-1h1v-1.3c0-1.1,0.7-1.6,1.9-1.6c0.2,0,0.4,0,0.6,0v1.1c-0.2,0-0.4,0-0.5,0
		c-0.5,0-0.7,0.3-0.7,0.9v0.9h1.2v1H89.6z"/>
	<path d="M93.5,120.8v6.3h-1.2v-6.3h-1v-1h1v-1.3c0-1.1,0.7-1.6,1.9-1.6c0.2,0,0.4,0,0.6,0v1.1c-0.2,0-0.4,0-0.5,0
		c-0.5,0-0.7,0.3-0.7,0.9v0.9h1.2v1H93.5z"/>
	<path d="M95.9,118.4V117h1.2v1.4H95.9z M97.1,127.1h-1.2v-7.4h1.2V127.1z"/>
	<path d="M103.6,122.2c-0.2-1-0.7-1.6-1.7-1.6c-1.5,0-2,1.5-2,2.8c0,1.3,0.3,2.8,2,2.8c0.8,0,1.5-0.6,1.8-1.7h1.2
		c-0.1,1.2-0.8,2.8-3,2.8c-2.1,0-3.3-1.6-3.3-3.7c0-2.3,1.1-4.1,3.5-4.1c1.9,0,2.7,1.4,2.8,2.7H103.6z"/>
	<path d="M112.3,124.8c0,0.4-0.4,1.4-1.3,2c-0.3,0.2-0.8,0.5-2,0.5c-2.1,0-3.3-1.6-3.3-3.7c0-2.3,1.1-4.1,3.5-4.1
		c2.1,0,3.2,1.7,3.2,4.3H107c0,1.5,0.7,2.4,2.1,2.4c1.2,0,1.9-0.9,1.9-1.5H112.3z M111.1,122.8c-0.1-1.1-0.5-2.2-2.1-2.2
		c-1.1,0-2,1.1-2,2.2H111.1z"/>
	<path d="M115.3,127.1H114v-7.4h1.2v1.2h0c0.5-0.9,1.1-1.4,2.1-1.4c0.2,0,0.2,0,0.3,0v1.3h-0.5c-1.2,0-1.9,0.9-1.9,2V127.1z"/>
</g>
<rect x="0.3" y="0.4" fill="none" stroke="#797A7D" stroke-width="0.5" stroke-miterlimit="10" width="125.8" height="133"/>
<line fill="none" stroke="#797A7D" stroke-width="0.5" stroke-miterlimit="10" x1="0.3" y1="23.1" x2="126.1" y2="23.1"/>
<line fill="none" stroke="#797A7D" stroke-width="0.5" stroke-miterlimit="10" x1="0.3" y1="44.3" x2="126.1" y2="44.3"/>
<line fill="none" stroke="#797A7D" stroke-width="0.5" stroke-miterlimit="10" x1="0.3" y1="67.1" x2="126.1" y2="67.1"/>
<line fill="none" stroke="#797A7D" stroke-width="0.5" stroke-miterlimit="10" x1="0.3" y1="89.8" x2="126.1" y2="89.8"/>
<line fill="none" stroke="#797A7D" stroke-width="0.5" stroke-miterlimit="10" x1="0.3" y1="112.6" x2="126.1" y2="112.6"/>
<polyline fill="none" stroke="#A7A9AC" stroke-width="0.5" stroke-miterlimit="10" points="273.2,19.9 273.2,56.1 129.6,56.1 "/>
<polyline fill="none" stroke="#A7A9AC" stroke-width="0.5" stroke-miterlimit="10" points="322.3,19.9 322.3,100.7 140.6,100.7 "/>
<polyline fill="none" stroke="#A7A9AC" stroke-width="0.5" stroke-miterlimit="10" points="129.6,70.4 140.6,70.4 140.6,130.9 
	129.6,130.9 "/>
<g>
</g>
<g>
</g>
<g>
</g>
<g>
</g>
<g>
</g>
<g>
</g>
</svg>
