<?xml version="1.0" encoding="utf-8"?>
<!-- Generator: Adobe Illustrator 22.1.0, SVG Export Plug-In . SVG Version: 6.00 Build 0)  -->
<svg version="1.1" id="Layer_1" xmlns="http://www.w3.org/2000/svg" xmlns:xlink="http://www.w3.org/1999/xlink" x="0px" y="0px"
	 width="501.3px" height="164.6px" viewBox="0 0 501.3 164.6" enable-background="new 0 0 501.3 164.6" xml:space="preserve">
<rect x="167" y="53.9" fill="#EC881D" width="141" height="56.4"/>
<g>
	<path d="M224,88.4H222v-0.9h0c-0.5,0.8-1.4,1.1-2.2,1.1c-2.2,0-3.2-2-3.2-4c0-2.6,1.5-3.9,3.1-3.9c1.3,0,1.9,0.7,2.2,1.2h0v-3.6h2
		V88.4z M220.3,86.9c1.3,0,1.7-1,1.7-2.2c0-1.2-0.3-2.4-1.7-2.4c-1.3,0-1.7,1.1-1.7,2.3C218.7,85.6,219.1,86.9,220.3,86.9z"/>
	<path d="M233.5,88.4h-2l-1.2-5.5h0l-1.2,5.5h-2l-2.1-7.5h2.1l1.2,5.4h0l1.1-5.4h2l1.1,5.4h0l1.2-5.4h2L233.5,88.4z"/>
	<path d="M238.9,80.9h1.2v1.4h-1.2v4.1c0,0.4,0,0.6,0.8,0.6c0.1,0,0.3,0,0.4,0v1.5c-0.3,0-0.6,0-0.9,0H239c-1.7,0-2-0.6-2-1.6v-4.6
		h-1v-1.4h1v-2h2V80.9z"/>
	<path d="M241,81.9c0-3.3,2.4-3.5,3.3-3.5c1.9,0,3.4,1.1,3.4,3.2c0,1.7-1.1,2.6-2.1,3.3c-1.3,0.9-2,1.4-2.2,1.8h4.3v1.7h-6.8
		c0.1-1.2,0.2-2.4,2.3-4c1.8-1.3,2.5-1.8,2.5-2.9c0-0.7-0.4-1.4-1.4-1.4c-1.4,0-1.4,1.1-1.4,1.9H241z"/>
	<path d="M256.1,88.4h-1.9v-0.9h0c-0.5,0.8-1.4,1.1-2.2,1.1c-2.2,0-3.2-2-3.2-4c0-2.6,1.5-3.9,3.1-3.9c1.3,0,1.9,0.7,2.2,1.2h0v-3.6
		h2V88.4z M252.4,86.9c1.3,0,1.7-1,1.7-2.2c0-1.2-0.3-2.4-1.7-2.4c-1.3,0-1.7,1.1-1.7,2.3C250.8,85.6,251.2,86.9,252.4,86.9z"/>
</g>
<rect x="363.8" fill="#BADBF3" width="137.5" height="57.2"/>
<g>
	<rect x="372.5" y="22.4" fill="none" width="120.1" height="14.1"/>
	<path d="M398.2,32.8c-3.8,0-4.9-3.1-4.9-5.3c0-2.2,1.2-5.3,4.9-5.3s4.9,3.1,4.9,5.3C403.2,29.6,402,32.8,398.2,32.8z M398.2,23.3
		c-2.2,0-3.5,1.7-3.5,4.1s1.3,4.1,3.5,4.1s3.5-1.7,3.5-4.1S400.4,23.3,398.2,23.3z"/>
	<path d="M409.4,32.5v-1.1l0,0c-0.5,0.9-1.2,1.3-2.3,1.3c-1.1,0-2.4-0.5-2.4-2.3v-5.3h1.2V30c0,1.2,0.6,1.6,1.4,1.6
		c1.6,0,2-1.4,2-2.5v-4.1h1.2v7.4H409.4z"/>
	<path d="M414,26.2V31c0,0.6,0.5,0.6,0.7,0.6h0.4v1c-0.5,0-0.8,0.1-0.9,0.1c-1.2,0-1.5-0.7-1.5-1.6v-4.9h-1v-1h1v-2.1h1.2v2.1h1.2v1
		H414z"/>
	<path d="M416.3,25.1h1.2v1h0c0.3-0.4,0.9-1.3,2.2-1.3c2,0,3.1,1.6,3.1,3.7c0,1.8-0.7,4.1-3.2,4.1c-1,0-1.6-0.5-2-1h0v3.7h-1.2V25.1
		z M419.5,31.6c1.4,0,2-1.2,2-2.8c0-0.9-0.1-2.8-2-2.8c-1.8,0-2,1.9-2,3.1C417.5,31.1,418.7,31.6,419.5,31.6z"/>
	<path d="M429,32.5v-1.1l0,0c-0.5,0.9-1.2,1.3-2.3,1.3c-1.1,0-2.4-0.5-2.4-2.3v-5.3h1.2V30c0,1.2,0.6,1.6,1.4,1.6c1.6,0,2-1.4,2-2.5
		v-4.1h1.2v7.4H429z"/>
	<path d="M433.6,26.2V31c0,0.6,0.5,0.6,0.7,0.6h0.4v1c-0.5,0-0.8,0.1-0.9,0.1c-1.2,0-1.5-0.7-1.5-1.6v-4.9h-1v-1h1v-2.1h1.2v2.1h1.2
		v1H433.6z"/>
	<path d="M438.9,22.4h8.2v1.2h-3.4v8.9h-1.4v-8.9h-3.4V22.4z"/>
	<path d="M446.6,27.4c0.1-1.8,1.2-2.5,3-2.5c0.6,0,2.7,0.2,2.7,2.1v4.2c0,0.3,0.2,0.4,0.4,0.4c0.1,0,0.3,0,0.4-0.1v0.9
		c-0.2,0.1-0.4,0.1-0.7,0.1c-1.1,0-1.3-0.6-1.3-1.1c-0.5,0.5-1.2,1.2-2.7,1.2c-1.4,0-2.3-0.9-2.3-2.1c0-0.6,0.2-2.1,2.2-2.3l2-0.3
		c0.3,0,0.6-0.1,0.6-0.9c0-0.8-0.6-1.2-1.7-1.2c-1.4,0-1.6,0.9-1.7,1.4H446.6z M451.2,28.7c-0.2,0.2-0.5,0.3-2,0.5
		c-0.6,0.1-1.6,0.3-1.6,1.2c0,0.8,0.4,1.3,1.3,1.3c1.2,0,2.3-0.7,2.3-1.7V28.7z"/>
	<path d="M454.4,32.5V22.4h1.2v3.7h0c0.5-0.8,1.3-1.1,2.1-1.1c2,0,3.1,1.6,3.1,3.7c0,1.8-0.7,4.1-3.2,4.1c-1.3,0-1.8-0.7-2-1.1h0
		v0.9H454.4z M457.6,26c-1.8,0-2,1.9-2,3.1c0,2,1.2,2.5,2,2.5c1.4,0,2-1.2,2-2.8C459.6,27.8,459.5,26,457.6,26z"/>
	<path d="M463.6,32.5h-1.2V22.4h1.2V32.5z"/>
	<path d="M471.7,30.2c0,0.4-0.4,1.4-1.3,2c-0.3,0.2-0.8,0.5-2,0.5c-2.1,0-3.3-1.6-3.3-3.7c0-2.3,1.1-4.1,3.5-4.1
		c2.1,0,3.2,1.7,3.2,4.3h-5.4c0,1.5,0.7,2.4,2.1,2.4c1.2,0,1.9-0.9,1.9-1.5H471.7z M470.6,28.2c-0.1-1.1-0.5-2.2-2.1-2.2
		c-1.1,0-2,1.1-2,2.2H470.6z"/>
</g>
<g>
	<rect y="55.2" fill="#DBDCE0" width="112.8" height="56.2"/>
	<g>
		<rect x="12.7" y="76" fill="none" width="85.6" height="14.1"/>
		<path d="M23.9,86.2h-1.4V76h1.4V86.2z"/>
		<path d="M32.1,86.2h-1.2v-4.5c0-1.3-0.4-1.9-1.6-1.9c-0.7,0-1.9,0.5-1.9,2.5v4h-1.2v-7.4h1.2v1h0c0.3-0.4,1-1.3,2.2-1.3
			c1.1,0,2.6,0.5,2.6,2.6V86.2z"/>
		<path d="M33.8,78.8H35v1h0c0.3-0.4,0.9-1.3,2.2-1.3c2,0,3.1,1.6,3.1,3.7c0,1.8-0.7,4.1-3.2,4.1c-1,0-1.6-0.5-2-1h0v3.7h-1.2V78.8z
			 M37,85.3c1.4,0,2-1.2,2-2.8c0-0.9-0.1-2.8-2-2.8c-1.8,0-2,1.9-2,3.1C35,84.8,36.2,85.3,37,85.3z"/>
		<path d="M46.6,86.2v-1.1l0,0c-0.5,0.9-1.2,1.3-2.3,1.3c-1.1,0-2.4-0.5-2.4-2.3v-5.3H43v4.9c0,1.2,0.6,1.6,1.4,1.6
			c1.6,0,2-1.4,2-2.5v-4.1h1.2v7.4H46.6z"/>
		<path d="M51.1,79.8v4.8c0,0.6,0.5,0.6,0.7,0.6h0.4v1c-0.5,0-0.8,0.1-0.9,0.1c-1.2,0-1.5-0.7-1.5-1.6v-4.9h-1v-1h1v-2.1h1.2v2.1
			h1.2v1H51.1z"/>
		<path d="M56.7,76h8.2v1.2h-3.4v8.9h-1.4v-8.9h-3.4V76z"/>
		<path d="M64.3,81c0.1-1.8,1.2-2.5,3-2.5c0.6,0,2.7,0.2,2.7,2.1v4.2c0,0.3,0.2,0.4,0.4,0.4c0.1,0,0.3,0,0.4-0.1v0.9
			c-0.2,0.1-0.4,0.1-0.7,0.1c-1.1,0-1.3-0.6-1.3-1.1c-0.5,0.5-1.2,1.2-2.7,1.2c-1.4,0-2.3-0.9-2.3-2.1c0-0.6,0.2-2.1,2.2-2.3l2-0.3
			c0.3,0,0.6-0.1,0.6-0.9c0-0.8-0.6-1.2-1.7-1.2c-1.4,0-1.6,0.9-1.7,1.4H64.3z M68.9,82.4c-0.2,0.2-0.5,0.3-2,0.5
			c-0.6,0.1-1.6,0.3-1.6,1.2c0,0.8,0.4,1.3,1.3,1.3c1.2,0,2.3-0.7,2.3-1.7V82.4z"/>
		<path d="M72.1,86.2V76h1.2v3.7h0c0.5-0.8,1.3-1.1,2.1-1.1c2,0,3.1,1.6,3.1,3.7c0,1.8-0.7,4.1-3.2,4.1c-1.3,0-1.8-0.7-2-1.1h0v0.9
			H72.1z M75.3,79.7c-1.8,0-2,1.9-2,3.1c0,2,1.2,2.5,2,2.5c1.4,0,2-1.2,2-2.8C77.3,81.5,77.2,79.7,75.3,79.7z"/>
		<path d="M81,86.2h-1.2V76H81V86.2z"/>
		<path d="M89.1,83.8c0,0.4-0.4,1.4-1.3,2c-0.3,0.2-0.8,0.5-2,0.5c-2.1,0-3.3-1.6-3.3-3.7c0-2.3,1.1-4.1,3.5-4.1
			c2.1,0,3.2,1.7,3.2,4.3h-5.4c0,1.5,0.7,2.4,2.1,2.4c1.2,0,1.9-0.9,1.9-1.5H89.1z M88,81.9c-0.1-1.1-0.5-2.2-2.1-2.2
			c-1.1,0-2,1.1-2,2.2H88z"/>
	</g>
</g>
<g>
	<g>
		<line fill="none" stroke="#5F6062" stroke-width="0.5" stroke-miterlimit="10" x1="112.8" y1="84.1" x2="163.3" y2="84.1"/>
		<g>
			<polygon fill="#5F6062" points="166.8,84.1 161.8,86.1 163,84.1 161.8,82 			"/>
		</g>
	</g>
</g>
<rect x="363.8" y="107.5" fill="#BADBF3" width="137.5" height="57.2"/>
<g>
	<rect x="372.5" y="129.9" fill="none" width="120.1" height="14.1"/>
	<path d="M407.5,140v-6c0-0.3,0-1.6,0-2.5h0l-2.8,8.5h-1.4l-2.8-8.5h0c0,0.9,0,2.2,0,2.5v6h-1.3v-10.1h2l2.9,8.6h0l2.9-8.6h1.9V140
		H407.5z"/>
	<path d="M417,137.7c0,0.4-0.4,1.4-1.3,2c-0.3,0.2-0.8,0.5-2,0.5c-2.1,0-3.3-1.6-3.3-3.7c0-2.3,1.1-4.1,3.5-4.1
		c2.1,0,3.2,1.7,3.2,4.3h-5.4c0,1.5,0.7,2.4,2.1,2.4c1.2,0,1.9-0.9,1.9-1.5H417z M415.8,135.7c-0.1-1.1-0.5-2.2-2.1-2.2
		c-1.1,0-2,1.1-2,2.2H415.8z"/>
	<path d="M420.1,133.6v4.8c0,0.6,0.5,0.6,0.7,0.6h0.4v1c-0.5,0-0.8,0.1-0.9,0.1c-1.2,0-1.5-0.7-1.5-1.6v-4.9h-1v-1h1v-2.1h1.2v2.1
		h1.2v1H420.1z"/>
	<path d="M422.5,134.8c0.1-1.8,1.2-2.5,3-2.5c0.6,0,2.7,0.2,2.7,2.1v4.2c0,0.3,0.2,0.4,0.4,0.4c0.1,0,0.3,0,0.4-0.1v0.9
		c-0.2,0.1-0.4,0.1-0.7,0.1c-1.1,0-1.3-0.6-1.3-1.1c-0.5,0.5-1.2,1.2-2.7,1.2c-1.4,0-2.3-0.9-2.3-2.1c0-0.6,0.2-2.1,2.2-2.3l2-0.3
		c0.3,0,0.6-0.1,0.6-0.9c0-0.8-0.6-1.2-1.7-1.2c-1.4,0-1.6,0.9-1.7,1.4H422.5z M427,136.2c-0.2,0.2-0.5,0.3-2,0.5
		c-0.6,0.1-1.6,0.3-1.6,1.2c0,0.8,0.4,1.3,1.3,1.3c1.2,0,2.3-0.7,2.3-1.7V136.2z"/>
	<path d="M433.6,129.9h8.2v1.2h-3.4v8.9H437v-8.9h-3.4V129.9z"/>
	<path d="M441.3,134.8c0.1-1.8,1.2-2.5,3-2.5c0.6,0,2.7,0.2,2.7,2.1v4.2c0,0.3,0.2,0.4,0.4,0.4c0.1,0,0.3,0,0.4-0.1v0.9
		c-0.2,0.1-0.4,0.1-0.7,0.1c-1.1,0-1.3-0.6-1.3-1.1c-0.5,0.5-1.2,1.2-2.7,1.2c-1.4,0-2.3-0.9-2.3-2.1c0-0.6,0.2-2.1,2.2-2.3l2-0.3
		c0.3,0,0.6-0.1,0.6-0.9c0-0.8-0.6-1.2-1.7-1.2c-1.4,0-1.6,0.9-1.7,1.4H441.3z M445.8,136.2c-0.2,0.2-0.5,0.3-2,0.5
		c-0.6,0.1-1.6,0.3-1.6,1.2c0,0.8,0.4,1.3,1.3,1.3c1.2,0,2.3-0.7,2.3-1.7V136.2z"/>
	<path d="M449.1,140v-10.1h1.2v3.7h0c0.5-0.8,1.3-1.1,2.1-1.1c2,0,3.1,1.6,3.1,3.7c0,1.8-0.7,4.1-3.2,4.1c-1.3,0-1.8-0.7-2-1.1h0
		v0.9H449.1z M452.2,133.5c-1.8,0-2,1.9-2,3.1c0,2,1.2,2.5,2,2.5c1.4,0,2-1.2,2-2.8C454.2,135.3,454.1,133.5,452.2,133.5z"/>
	<path d="M458.3,140H457v-10.1h1.2V140z"/>
	<path d="M466.4,137.7c0,0.4-0.4,1.4-1.3,2c-0.3,0.2-0.8,0.5-2,0.5c-2.1,0-3.3-1.6-3.3-3.7c0-2.3,1.1-4.1,3.5-4.1
		c2.1,0,3.2,1.7,3.2,4.3h-5.4c0,1.5,0.7,2.4,2.1,2.4c1.2,0,1.9-0.9,1.9-1.5H466.4z M465.2,135.7c-0.1-1.1-0.5-2.2-2.1-2.2
		c-1.1,0-2,1.1-2,2.2H465.2z"/>
</g>
<g>
	<g>
		<polyline fill="none" stroke="#5F6062" stroke-width="0.5" stroke-miterlimit="10" points="359.6,28.7 288.7,28.7 288.7,53.8 		
			"/>
		<g>
			<polygon fill="#5F6062" points="363.1,28.7 358.2,26.7 359.3,28.7 358.2,30.8 			"/>
		</g>
	</g>
</g>
<g>
	<g>
		<polyline fill="none" stroke="#5F6062" stroke-width="0.5" stroke-miterlimit="10" points="359.6,136.2 288.7,136.2 288.7,111.2 
					"/>
		<g>
			<polygon fill="#5F6062" points="363.1,136.2 358.2,134.2 359.3,136.2 358.2,138.3 			"/>
		</g>
	</g>
</g>
<g>
</g>
<g>
</g>
<g>
</g>
<g>
</g>
<g>
</g>
<g>
</g>
<g>
</g>
</svg>
