<?xml version="1.0" encoding="utf-8"?>
<!-- Generator: Adobe Illustrator 24.2.3, SVG Export Plug-In . SVG Version: 6.00 Build 0)  -->
<svg version="1.1" id="Layer_1" xmlns="http://www.w3.org/2000/svg" xmlns:xlink="http://www.w3.org/1999/xlink" x="0px" y="0px"
	 width="20px" height="15px" viewBox="0 0 20 15" style="enable-background:new 0 0 20 15;" xml:space="preserve">
<path d="M18.33,0H5.83C5.26,0,4.81,0.29,4.51,0.73L0,7.5l4.51,6.76C4.81,14.7,5.32,15,5.89,15h12.44c0.92,0,1.67-0.75,1.67-1.67
	V1.67C20,0.75,19.25,0,18.33,0z M7.5,8.75c-0.69,0-1.25-0.56-1.25-1.25S6.81,6.25,7.5,6.25S8.75,6.81,8.75,7.5S8.19,8.75,7.5,8.75z
	 M11.67,8.75c-0.69,0-1.25-0.56-1.25-1.25s0.56-1.25,1.25-1.25s1.25,0.56,1.25,1.25S12.36,8.75,11.67,8.75z M15.83,8.75
	c-0.69,0-1.25-0.56-1.25-1.25s0.56-1.25,1.25-1.25s1.25,0.56,1.25,1.25S16.52,8.75,15.83,8.75z"/>
</svg>
