<?xml version="1.0" encoding="utf-8"?>
<!-- Generator: Adobe Illustrator 24.2.3, SVG Export Plug-In . SVG Version: 6.00 Build 0)  -->
<svg version="1.1" id="Layer_1" xmlns="http://www.w3.org/2000/svg" xmlns:xlink="http://www.w3.org/1999/xlink" x="0px" y="0px"
	 width="22px" height="11px" viewBox="0 0 22 11" style="enable-background:new 0 0 22 11;" xml:space="preserve">
<path d="M17,9.5H5.5c-2.21,0-4-1.79-4-4s1.79-4,4-4H18c1.38,0,2.5,1.12,2.5,2.5S19.38,6.5,18,6.5H7.5c-0.55,0-1-0.45-1-1s0.45-1,1-1
	H17V3H7.5C6.12,3,5,4.12,5,5.5S6.12,8,7.5,8H18c2.21,0,4-1.79,4-4s-1.79-4-4-4H5.5C2.46,0,0,2.46,0,5.5S2.46,11,5.5,11H17V9.5z"/>
</svg>
